{"glyphs":{"0":{"ha":833,"x_min":85,"x_max":788,"o":"m 353 -14 q 199 23 261 -14 q 111 127 138 60 q 99 285 85 194 l 169 729 q 232 888 185 821 q 353 991 279 954 q 518 1028 426 1028 q 673 991 611 1028 q 761 888 735 954 q 772 729 788 821 l 701 285 q 640 126 688 193 q 518 23 592 60 q 353 -14 444 -14 m 369 83 q 517 139 457 83 q 592 285 578 194 l 663 729 q 634 875 678 819 q 503 931 590 931 q 354 875 415 931 q 279 729 293 819 l 208 285 q 238 139 193 194 q 369 83 282 83 m 438 429 q 379 452 401 429 q 357 511 357 475 q 379 569 357 547 q 438 590 401 590 q 495 569 474 590 q 517 511 517 547 q 495 452 517 475 q 438 429 474 429 z "},"1":{"ha":833,"x_min":68,"x_max":701,"o":"m 68 0 l 83 100 l 361 100 l 492 921 l 183 717 l 203 839 l 468 1014 l 617 1014 l 472 100 l 701 100 l 685 0 l 68 0 z "},"2":{"ha":833,"x_min":68,"x_max":782,"o":"m 68 0 l 86 114 l 451 442 q 598 600 549 529 q 658 738 647 671 q 630 878 672 826 q 501 931 588 931 q 346 878 408 931 q 269 733 283 825 l 160 733 q 226 890 176 824 q 349 992 275 957 q 515 1028 424 1028 q 668 993 607 1028 q 756 894 729 958 q 768 739 782 829 q 694 562 754 651 q 511 365 633 472 l 208 100 l 686 100 l 671 0 l 68 0 z "},"3":{"ha":833,"x_min":74,"x_max":774,"o":"m 338 -14 q 188 22 249 -14 q 100 123 126 58 q 88 274 74 188 l 197 274 q 225 135 183 185 q 356 85 267 85 q 502 137 444 85 q 574 274 560 189 l 586 354 q 559 494 600 444 q 428 543 518 543 l 333 543 l 350 651 l 642 914 l 228 914 l 244 1014 l 774 1014 l 756 904 l 442 624 l 444 640 q 649 563 581 640 q 696 354 717 486 l 683 274 q 623 123 671 188 q 501 22 575 58 q 338 -14 428 -14 z "},"4":{"ha":833,"x_min":93,"x_max":743,"o":"m 518 0 l 553 226 l 93 226 l 122 407 l 621 1014 l 743 1014 l 229 382 l 219 326 l 569 326 l 611 583 l 721 583 l 628 0 l 518 0 z "},"5":{"ha":833,"x_min":93,"x_max":776,"o":"m 351 -14 q 160 51 228 -14 q 97 225 93 115 l 208 225 q 245 122 204 158 q 368 85 286 85 q 513 135 458 85 q 583 279 568 186 l 599 376 q 574 519 613 468 q 446 569 536 569 q 340 538 388 569 q 265 453 292 507 l 156 453 l 251 1014 l 776 1014 l 760 914 l 342 914 l 281 553 l 317 553 l 272 514 q 345 626 285 585 q 496 667 406 667 q 675 591 619 668 q 708 376 731 514 l 693 279 q 581 65 671 144 q 351 -14 490 -14 z "},"6":{"ha":833,"x_min":74,"x_max":736,"o":"m 354 -14 q 194 27 258 -14 q 101 141 129 68 q 89 311 74 214 q 133 456 100 385 q 217 593 165 526 l 542 1014 l 664 1014 l 303 549 l 307 544 q 388 602 338 579 q 499 625 439 625 q 637 586 582 625 q 714 477 692 547 q 721 311 736 407 q 655 141 706 214 q 526 27 604 68 q 354 -14 449 -14 m 369 85 q 528 147 461 85 q 611 311 594 208 q 579 472 626 411 q 440 533 532 533 q 281 472 347 533 q 200 311 215 411 q 228 147 182 208 q 369 85 275 85 z "},"7":{"ha":833,"x_min":171,"x_max":839,"o":"m 204 0 l 711 911 l 308 911 l 282 746 l 171 746 l 213 1014 l 839 1014 l 822 904 l 328 0 l 204 0 z "},"8":{"ha":833,"x_min":75,"x_max":775,"o":"m 353 -14 q 144 58 214 -14 q 93 253 75 131 q 168 408 108 343 q 346 525 228 474 l 489 590 q 603 670 561 622 q 654 776 644 718 q 624 889 665 847 q 503 931 583 931 q 371 888 424 931 q 307 775 318 846 q 323 669 297 717 q 407 592 349 622 l 528 528 q 673 408 633 474 q 697 253 713 343 q 638 110 685 171 q 519 18 592 50 q 353 -14 446 -14 m 369 85 q 517 131 458 85 q 589 254 576 176 q 572 368 599 317 q 485 451 544 419 l 364 517 q 225 631 264 568 q 200 779 186 693 q 254 910 211 854 q 365 998 297 967 q 518 1029 433 1029 q 662 998 603 1029 q 748 910 721 967 q 763 779 775 854 q 689 632 750 694 q 508 515 628 569 l 368 451 q 255 369 297 419 q 203 256 213 318 q 235 131 190 178 q 369 85 279 85 z "},"9":{"ha":833,"x_min":136,"x_max":799,"o":"m 208 0 l 571 465 l 565 469 q 485 412 536 435 q 374 389 433 389 q 236 428 292 389 q 158 538 181 467 q 151 703 136 608 q 217 874 167 801 q 346 987 268 946 q 517 1028 424 1028 q 678 987 613 1028 q 771 874 743 946 q 783 703 799 801 q 739 559 771 631 q 656 421 707 488 l 331 0 l 208 0 m 431 481 q 590 542 524 481 q 674 704 657 603 q 644 867 690 806 q 503 929 597 929 q 344 867 411 929 q 261 703 278 806 q 292 542 246 603 q 431 481 339 481 z "},"A":{"ha":833,"x_min":15,"x_max":696,"o":"m 15 0 l 444 1014 l 590 1014 l 696 0 l 588 0 l 563 275 l 244 275 l 131 0 l 15 0 m 282 369 l 553 369 l 519 708 q 509 851 513 793 q 506 925 506 908 q 479 851 500 908 q 422 708 458 793 l 282 369 z "},"Á":{"ha":833,"x_min":15,"x_max":763,"o":"m 15 0 l 444 1014 l 590 1014 l 696 0 l 588 0 l 563 275 l 244 275 l 131 0 l 15 0 m 282 369 l 553 369 l 519 708 q 509 851 513 793 q 506 925 506 908 q 479 851 500 908 q 422 708 458 793 l 282 369 m 457 1125 l 635 1319 l 763 1319 l 576 1125 l 457 1125 z "},"Ă":{"ha":833,"x_min":15,"x_max":781,"o":"m 15 0 l 444 1014 l 590 1014 l 696 0 l 588 0 l 563 275 l 244 275 l 131 0 l 15 0 m 282 369 l 553 369 l 519 708 q 509 851 513 793 q 506 925 506 908 q 479 851 500 908 q 422 708 458 793 l 282 369 m 532 1119 q 384 1174 435 1119 q 347 1319 333 1229 l 435 1319 q 456 1228 426 1263 q 542 1193 485 1193 q 642 1228 601 1193 q 690 1319 682 1263 l 781 1319 q 699 1174 767 1229 q 532 1119 631 1119 z "},"Ắ":{"ha":833,"x_min":15,"x_max":779,"o":"m 15 0 l 444 1014 l 590 1014 l 696 0 l 588 0 l 563 275 l 244 275 l 131 0 l 15 0 m 282 369 l 553 369 l 519 708 q 509 851 513 793 q 506 925 506 908 q 479 851 500 908 q 422 708 458 793 l 282 369 m 472 1249 l 643 1417 l 767 1417 l 588 1249 l 472 1249 m 494 1083 q 363 1132 408 1083 q 332 1263 318 1181 l 419 1263 q 436 1188 413 1215 q 507 1160 460 1160 l 571 1160 q 651 1188 618 1160 q 690 1263 683 1215 l 779 1263 q 706 1132 765 1181 q 560 1083 647 1083 l 494 1083 z "},"Ặ":{"ha":833,"x_min":15,"x_max":781,"o":"m 532 1119 q 384 1174 435 1119 q 347 1319 333 1229 l 435 1319 q 456 1228 426 1263 q 542 1193 485 1193 q 642 1228 601 1193 q 690 1319 682 1263 l 781 1319 q 699 1174 767 1229 q 532 1119 631 1119 m 15 0 l 444 1014 l 590 1014 l 696 0 l 588 0 l 563 275 l 244 275 l 131 0 l 15 0 m 282 369 l 553 369 l 519 708 q 509 851 513 793 q 506 925 506 908 q 479 851 500 908 q 422 708 458 793 l 282 369 m 324 -293 q 258 -270 279 -293 q 242 -208 236 -247 q 278 -145 249 -168 q 350 -122 307 -122 q 415 -145 394 -122 q 431 -208 436 -168 q 396 -270 425 -247 q 324 -293 367 -293 z "},"Ằ":{"ha":833,"x_min":15,"x_max":779,"o":"m 15 0 l 444 1014 l 590 1014 l 696 0 l 588 0 l 563 275 l 244 275 l 131 0 l 15 0 m 282 369 l 553 369 l 519 708 q 509 851 513 793 q 506 925 506 908 q 479 851 500 908 q 422 708 458 793 l 282 369 m 494 1083 q 363 1132 408 1083 q 332 1263 318 1181 l 419 1263 q 436 1188 413 1215 q 507 1160 460 1160 l 571 1160 q 651 1188 618 1160 q 690 1263 683 1215 l 779 1263 q 706 1132 765 1181 q 560 1083 647 1083 l 494 1083 m 526 1249 l 414 1417 l 528 1417 l 632 1249 l 526 1249 z "},"Ẳ":{"ha":833,"x_min":15,"x_max":779,"o":"m 15 0 l 444 1014 l 590 1014 l 696 0 l 588 0 l 563 275 l 244 275 l 131 0 l 15 0 m 282 369 l 553 369 l 519 708 q 509 851 513 793 q 506 925 506 908 q 479 851 500 908 q 422 708 458 793 l 282 369 m 486 1222 l 563 1299 q 578 1315 572 1308 q 585 1328 583 1322 q 567 1343 588 1343 l 467 1343 l 479 1417 l 604 1417 q 662 1399 643 1417 q 675 1350 681 1382 q 663 1311 672 1331 q 639 1276 654 1292 l 586 1222 l 486 1222 m 494 1083 q 363 1132 408 1083 q 332 1263 318 1181 l 419 1263 q 436 1188 413 1215 q 507 1160 460 1160 l 571 1160 q 651 1188 618 1160 q 690 1263 683 1215 l 779 1263 q 706 1132 765 1181 q 560 1083 647 1083 l 494 1083 z "},"Ẵ":{"ha":833,"x_min":15,"x_max":801,"o":"m 15 0 l 444 1014 l 590 1014 l 696 0 l 588 0 l 563 275 l 244 275 l 131 0 l 15 0 m 282 369 l 553 369 l 519 708 q 509 851 513 793 q 506 925 506 908 q 479 851 500 908 q 422 708 458 793 l 282 369 m 494 1083 q 363 1126 408 1083 q 331 1250 317 1169 l 418 1250 q 435 1182 411 1204 q 507 1160 460 1160 l 571 1160 q 650 1182 618 1160 q 690 1250 682 1204 l 778 1250 q 706 1126 764 1169 q 560 1083 647 1083 l 494 1083 m 664 1278 q 599 1288 625 1278 q 556 1313 574 1299 q 518 1338 538 1328 q 472 1349 499 1349 q 419 1304 428 1349 l 417 1292 l 336 1292 l 339 1304 q 384 1386 346 1356 q 478 1417 422 1417 q 543 1406 518 1417 q 586 1381 568 1396 q 622 1356 604 1367 q 668 1346 640 1346 q 701 1358 688 1346 q 718 1390 715 1371 l 721 1403 l 801 1403 l 800 1390 q 756 1308 793 1339 q 664 1278 719 1278 z "},"Ǎ":{"ha":833,"x_min":15,"x_max":804,"o":"m 15 0 l 444 1014 l 590 1014 l 696 0 l 588 0 l 563 275 l 244 275 l 131 0 l 15 0 m 282 369 l 553 369 l 519 708 q 509 851 513 793 q 506 925 506 908 q 479 851 500 908 q 422 708 458 793 l 282 369 m 481 1125 l 324 1319 l 440 1319 l 543 1200 l 681 1319 l 804 1319 l 588 1125 l 481 1125 z "},"Â":{"ha":833,"x_min":15,"x_max":774,"o":"m 15 0 l 444 1014 l 590 1014 l 696 0 l 588 0 l 563 275 l 244 275 l 131 0 l 15 0 m 282 369 l 553 369 l 519 708 q 509 851 513 793 q 506 925 506 908 q 479 851 500 908 q 422 708 458 793 l 282 369 m 293 1125 l 510 1319 l 617 1319 l 774 1125 l 657 1125 l 556 1244 l 418 1125 l 293 1125 z "},"Ấ":{"ha":833,"x_min":15,"x_max":1004,"o":"m 700 1249 l 872 1417 l 1004 1417 l 822 1249 l 700 1249 m 289 1083 l 504 1278 l 613 1278 l 768 1083 l 650 1083 l 550 1203 l 413 1083 l 289 1083 m 15 0 l 444 1014 l 590 1014 l 696 0 l 588 0 l 563 275 l 244 275 l 131 0 l 15 0 m 282 369 l 553 369 l 519 708 q 509 851 513 793 q 506 925 506 908 q 479 851 500 908 q 422 708 458 793 l 282 369 z "},"Ậ":{"ha":833,"x_min":15,"x_max":774,"o":"m 293 1125 l 510 1319 l 617 1319 l 774 1125 l 657 1125 l 556 1244 l 418 1125 l 293 1125 m 15 0 l 444 1014 l 590 1014 l 696 0 l 588 0 l 563 275 l 244 275 l 131 0 l 15 0 m 282 369 l 553 369 l 519 708 q 509 851 513 793 q 506 925 506 908 q 479 851 500 908 q 422 708 458 793 l 282 369 m 324 -293 q 258 -270 279 -293 q 242 -208 236 -247 q 278 -145 249 -168 q 350 -122 307 -122 q 415 -145 394 -122 q 431 -208 436 -168 q 396 -270 425 -247 q 324 -293 367 -293 z "},"Ầ":{"ha":833,"x_min":15,"x_max":868,"o":"m 15 0 l 444 1014 l 590 1014 l 696 0 l 588 0 l 563 275 l 244 275 l 131 0 l 15 0 m 282 369 l 553 369 l 519 708 q 509 851 513 793 q 506 925 506 908 q 479 851 500 908 q 422 708 458 793 l 282 369 m 757 1249 l 618 1417 l 738 1417 l 868 1249 l 757 1249 m 289 1083 l 504 1278 l 613 1278 l 768 1083 l 650 1083 l 550 1203 l 413 1083 l 289 1083 z "},"Ẩ":{"ha":833,"x_min":15,"x_max":917,"o":"m 717 1222 l 793 1290 q 808 1306 803 1297 q 814 1321 813 1314 q 792 1344 817 1344 l 701 1344 l 714 1417 l 826 1417 q 894 1394 871 1417 q 910 1335 917 1372 q 898 1300 907 1317 q 874 1271 889 1283 l 819 1222 l 717 1222 m 289 1083 l 504 1278 l 613 1278 l 768 1083 l 650 1083 l 550 1203 l 413 1083 l 289 1083 m 15 0 l 444 1014 l 590 1014 l 696 0 l 588 0 l 563 275 l 244 275 l 131 0 l 15 0 m 282 369 l 553 369 l 519 708 q 509 851 513 793 q 506 925 506 908 q 479 851 500 908 q 422 708 458 793 l 282 369 z "},"Ẫ":{"ha":833,"x_min":15,"x_max":801,"o":"m 15 0 l 444 1014 l 590 1014 l 696 0 l 588 0 l 563 275 l 244 275 l 131 0 l 15 0 m 282 369 l 553 369 l 519 708 q 509 851 513 793 q 506 925 506 908 q 479 851 500 908 q 422 708 458 793 l 282 369 m 664 1278 q 599 1288 625 1278 q 556 1313 574 1299 q 518 1338 538 1328 q 472 1349 499 1349 q 419 1304 428 1349 l 417 1292 l 336 1292 l 339 1304 q 384 1386 346 1356 q 478 1417 422 1417 q 543 1406 518 1417 q 586 1381 568 1396 q 622 1356 604 1367 q 668 1346 640 1346 q 701 1358 688 1346 q 718 1390 715 1371 l 721 1403 l 801 1403 l 800 1390 q 756 1308 793 1339 q 664 1278 719 1278 m 289 1083 l 476 1240 l 628 1240 l 767 1083 l 650 1083 l 549 1192 l 413 1083 l 289 1083 z "},"Ä":{"ha":833,"x_min":15,"x_max":793,"o":"m 15 0 l 444 1014 l 590 1014 l 696 0 l 588 0 l 563 275 l 244 275 l 131 0 l 15 0 m 282 369 l 553 369 l 519 708 q 509 851 513 793 q 506 925 506 908 q 479 851 500 908 q 422 708 458 793 l 282 369 m 690 1138 q 632 1160 651 1138 q 618 1222 613 1183 q 652 1285 625 1263 q 718 1308 679 1308 q 775 1285 756 1308 q 788 1222 794 1263 q 755 1160 782 1183 q 690 1138 728 1138 m 385 1138 q 326 1160 346 1138 q 313 1222 307 1183 q 347 1285 319 1263 q 411 1308 374 1308 q 469 1285 450 1308 q 482 1222 489 1263 q 449 1160 476 1183 q 385 1138 422 1138 z "},"Ạ":{"ha":833,"x_min":15,"x_max":696,"o":"m 15 0 l 444 1014 l 590 1014 l 696 0 l 588 0 l 563 275 l 244 275 l 131 0 l 15 0 m 282 369 l 553 369 l 519 708 q 509 851 513 793 q 506 925 506 908 q 479 851 500 908 q 422 708 458 793 l 282 369 m 324 -293 q 258 -270 279 -293 q 242 -208 236 -247 q 278 -145 249 -168 q 350 -122 307 -122 q 415 -145 394 -122 q 431 -208 436 -168 q 396 -270 425 -247 q 324 -293 367 -293 z "},"À":{"ha":833,"x_min":15,"x_max":696,"o":"m 15 0 l 444 1014 l 590 1014 l 696 0 l 588 0 l 563 275 l 244 275 l 131 0 l 15 0 m 282 369 l 553 369 l 519 708 q 509 851 513 793 q 506 925 506 908 q 479 851 500 908 q 422 708 458 793 l 282 369 m 497 1125 l 369 1319 l 486 1319 l 607 1125 l 497 1125 z "},"Ả":{"ha":833,"x_min":15,"x_max":696,"o":"m 15 0 l 444 1014 l 590 1014 l 696 0 l 588 0 l 563 275 l 244 275 l 131 0 l 15 0 m 282 369 l 553 369 l 519 708 q 509 851 513 793 q 506 925 506 908 q 479 851 500 908 q 422 708 458 793 l 282 369 m 463 1132 l 549 1224 q 569 1250 561 1238 q 578 1271 576 1263 q 540 1301 582 1301 l 428 1301 l 442 1381 l 581 1381 q 660 1355 633 1381 q 681 1283 688 1329 q 668 1243 678 1263 q 644 1208 658 1224 l 575 1132 l 463 1132 z "},"Ā":{"ha":833,"x_min":15,"x_max":771,"o":"m 15 0 l 444 1014 l 590 1014 l 696 0 l 588 0 l 563 275 l 244 275 l 131 0 l 15 0 m 282 369 l 553 369 l 519 708 q 509 851 513 793 q 506 925 506 908 q 479 851 500 908 q 422 708 458 793 l 282 369 m 326 1172 l 342 1264 l 771 1264 l 756 1172 l 326 1172 z "},"Ą":{"ha":833,"x_min":15,"x_max":714,"o":"m 596 -279 q 488 -244 525 -279 q 458 -154 450 -210 q 499 -72 465 -114 q 603 14 533 -31 l 693 14 l 675 1 q 597 -71 624 -37 q 565 -133 571 -104 q 578 -183 561 -164 q 629 -203 594 -203 l 714 -203 l 703 -279 l 596 -279 m 15 0 l 444 1014 l 590 1014 l 696 0 l 588 0 l 563 275 l 244 275 l 131 0 l 15 0 m 282 369 l 553 369 l 519 708 q 509 851 513 793 q 506 925 506 908 q 479 851 500 908 q 422 708 458 793 l 282 369 z "},"Å":{"ha":833,"x_min":15,"x_max":721,"o":"m 15 0 l 444 1014 l 590 1014 l 696 0 l 588 0 l 563 275 l 244 275 l 131 0 l 15 0 m 282 369 l 553 369 l 519 708 q 509 851 513 793 q 506 925 506 908 q 479 851 500 908 q 422 708 458 793 l 282 369 m 525 1069 q 415 1112 453 1069 q 388 1222 378 1154 q 449 1333 399 1290 q 574 1375 500 1375 q 683 1333 646 1375 q 710 1222 721 1290 q 649 1112 700 1154 q 525 1069 597 1069 m 536 1136 q 601 1160 574 1136 q 633 1222 628 1183 q 621 1285 640 1261 q 563 1310 601 1310 q 498 1285 525 1310 q 464 1222 471 1261 q 478 1160 458 1183 q 536 1136 497 1136 z "},"Ã":{"ha":833,"x_min":15,"x_max":785,"o":"m 15 0 l 444 1014 l 590 1014 l 696 0 l 588 0 l 563 275 l 244 275 l 131 0 l 15 0 m 282 369 l 553 369 l 519 708 q 509 851 513 793 q 506 925 506 908 q 479 851 500 908 q 422 708 458 793 l 282 369 m 633 1132 q 569 1148 593 1132 q 530 1185 546 1164 q 499 1222 514 1206 q 458 1238 483 1238 q 422 1224 438 1238 q 401 1182 406 1210 l 394 1139 l 314 1139 l 321 1182 q 370 1278 331 1244 q 467 1313 410 1313 q 531 1297 507 1313 q 571 1260 556 1281 q 601 1223 586 1239 q 642 1207 617 1207 q 677 1221 663 1207 q 696 1263 692 1235 l 704 1306 l 785 1306 l 778 1263 q 729 1166 768 1200 q 633 1132 690 1132 z "},"Æ":{"ha":833,"x_min":-18,"x_max":892,"o":"m -18 0 l 361 1014 l 892 1014 l 875 914 l 613 914 l 560 576 l 783 576 l 768 476 l 543 476 l 483 100 l 746 100 l 731 0 l 361 0 l 407 286 l 200 286 l 93 0 l -18 0 m 233 379 l 421 379 l 506 914 l 431 914 l 233 379 z "},"Ǽ":{"ha":833,"x_min":-18,"x_max":892,"o":"m -18 0 l 361 1014 l 892 1014 l 875 914 l 613 914 l 560 576 l 783 576 l 768 476 l 543 476 l 483 100 l 746 100 l 731 0 l 361 0 l 407 286 l 200 286 l 93 0 l -18 0 m 233 379 l 421 379 l 506 914 l 431 914 l 233 379 m 464 1125 l 642 1319 l 769 1319 l 583 1125 l 464 1125 z "},"B":{"ha":833,"x_min":75,"x_max":785,"o":"m 75 0 l 236 1014 l 515 1014 q 718 944 651 1014 q 765 751 785 874 q 717 630 754 682 q 624 549 681 578 q 494 522 567 521 l 496 542 q 628 510 575 542 q 705 420 682 479 q 714 281 728 361 q 654 131 700 194 q 536 34 608 68 q 371 0 464 0 l 75 0 m 199 100 l 376 100 q 531 149 469 100 q 606 283 592 199 q 574 424 619 371 q 436 478 529 478 l 258 478 l 199 100 m 274 574 l 444 574 q 585 619 529 574 q 656 744 642 665 q 626 869 667 824 q 500 914 585 914 l 328 914 l 274 574 z "},"C":{"ha":833,"x_min":97,"x_max":786,"o":"m 360 -14 q 209 21 269 -14 q 123 121 149 56 q 111 274 97 186 l 185 740 q 246 894 200 829 q 363 993 292 958 q 525 1028 435 1028 q 674 992 614 1028 q 760 892 735 957 q 772 736 786 826 l 663 736 q 635 878 676 828 q 508 929 594 929 q 366 880 422 929 q 294 740 310 831 l 221 274 q 248 135 207 185 q 375 85 289 85 q 519 135 463 85 q 590 278 575 186 l 700 278 q 639 123 686 189 q 520 22 592 57 q 360 -14 449 -14 z "},"Ć":{"ha":833,"x_min":97,"x_max":786,"o":"m 360 -14 q 209 21 269 -14 q 123 121 149 56 q 111 274 97 186 l 185 740 q 246 894 200 829 q 363 993 292 958 q 525 1028 435 1028 q 674 992 614 1028 q 760 892 735 957 q 772 736 786 826 l 663 736 q 635 878 676 828 q 508 929 594 929 q 366 880 422 929 q 294 740 310 831 l 221 274 q 248 135 207 185 q 375 85 289 85 q 519 135 463 85 q 590 278 575 186 l 700 278 q 639 123 686 189 q 520 22 592 57 q 360 -14 449 -14 m 464 1125 l 642 1319 l 769 1319 l 583 1125 l 464 1125 z "},"Č":{"ha":833,"x_min":97,"x_max":811,"o":"m 360 -14 q 209 21 269 -14 q 123 121 149 56 q 111 274 97 186 l 185 740 q 246 894 200 829 q 363 993 292 958 q 525 1028 435 1028 q 674 992 614 1028 q 760 892 735 957 q 772 736 786 826 l 663 736 q 635 878 676 828 q 508 929 594 929 q 366 880 422 929 q 294 740 310 831 l 221 274 q 248 135 207 185 q 375 85 289 85 q 519 135 463 85 q 590 278 575 186 l 700 278 q 639 123 686 189 q 520 22 592 57 q 360 -14 449 -14 m 488 1125 l 331 1319 l 447 1319 l 550 1200 l 688 1319 l 811 1319 l 594 1125 l 488 1125 z "},"Ç":{"ha":833,"x_min":97,"x_max":786,"o":"m 197 -279 l 208 -210 l 310 -210 q 363 -193 342 -210 q 388 -158 385 -176 q 355 -113 392 -132 q 247 -94 318 -94 l 317 36 l 390 36 l 346 -49 q 417 -65 381 -51 q 475 -104 453 -79 q 490 -165 497 -129 q 435 -246 483 -212 q 314 -279 386 -279 l 197 -279 m 360 -14 q 209 21 269 -14 q 123 121 149 56 q 111 274 97 186 l 185 740 q 246 894 200 829 q 363 993 292 958 q 525 1028 435 1028 q 674 992 614 1028 q 760 892 735 957 q 772 736 786 826 l 663 736 q 635 878 676 828 q 508 929 594 929 q 366 880 422 929 q 294 740 310 831 l 221 274 q 248 135 207 185 q 375 85 289 85 q 519 135 463 85 q 590 278 575 186 l 700 278 q 639 123 686 189 q 520 22 592 57 q 360 -14 449 -14 z "},"Ĉ":{"ha":833,"x_min":97,"x_max":786,"o":"m 360 -14 q 209 21 269 -14 q 123 121 149 56 q 111 274 97 186 l 185 740 q 246 894 200 829 q 363 993 292 958 q 525 1028 435 1028 q 674 992 614 1028 q 760 892 735 957 q 772 736 786 826 l 663 736 q 635 878 676 828 q 508 929 594 929 q 366 880 422 929 q 294 740 310 831 l 221 274 q 248 135 207 185 q 375 85 289 85 q 519 135 463 85 q 590 278 575 186 l 700 278 q 639 123 686 189 q 520 22 592 57 q 360 -14 449 -14 m 300 1125 l 517 1319 l 624 1319 l 781 1125 l 664 1125 l 563 1244 l 425 1125 l 300 1125 z "},"Ċ":{"ha":833,"x_min":97,"x_max":786,"o":"m 360 -14 q 209 21 269 -14 q 123 121 149 56 q 111 274 97 186 l 185 740 q 246 894 200 829 q 363 993 292 958 q 525 1028 435 1028 q 674 992 614 1028 q 760 892 735 957 q 772 736 786 826 l 663 736 q 635 878 676 828 q 508 929 594 929 q 366 880 422 929 q 294 740 310 831 l 221 274 q 248 135 207 185 q 375 85 289 85 q 519 135 463 85 q 590 278 575 186 l 700 278 q 639 123 686 189 q 520 22 592 57 q 360 -14 449 -14 m 543 1136 q 477 1160 499 1136 q 461 1222 456 1183 q 497 1285 468 1261 q 569 1308 526 1308 q 635 1285 614 1308 q 650 1222 657 1261 q 615 1160 644 1183 q 543 1136 586 1136 z "},"D":{"ha":833,"x_min":74,"x_max":771,"o":"m 74 0 l 235 1014 l 486 1014 q 649 976 583 1014 q 742 870 714 939 q 756 710 771 801 l 692 306 q 627 144 678 213 q 499 38 576 75 q 325 0 422 0 l 74 0 m 200 99 l 340 99 q 502 154 438 99 q 582 306 567 210 l 646 710 q 614 860 661 804 q 469 915 567 915 l 328 915 l 200 99 z "},"Ð":{"ha":833,"x_min":14,"x_max":771,"o":"m 14 471 l 14 564 l 403 564 l 403 471 l 14 471 m 74 0 l 235 1014 l 486 1014 q 649 976 583 1014 q 742 870 714 939 q 756 710 771 801 l 692 306 q 627 144 678 213 q 499 38 576 75 q 325 0 422 0 l 74 0 m 200 99 l 340 99 q 502 154 438 99 q 582 306 567 210 l 646 710 q 614 860 661 804 q 469 915 567 915 l 328 915 l 200 99 z "},"Ď":{"ha":833,"x_min":74,"x_max":804,"o":"m 74 0 l 235 1014 l 486 1014 q 649 976 583 1014 q 742 870 714 939 q 756 710 771 801 l 692 306 q 627 144 678 213 q 499 38 576 75 q 325 0 422 0 l 74 0 m 200 99 l 340 99 q 502 154 438 99 q 582 306 567 210 l 646 710 q 614 860 661 804 q 469 915 567 915 l 328 915 l 200 99 m 481 1125 l 324 1319 l 440 1319 l 543 1200 l 681 1319 l 804 1319 l 588 1125 l 481 1125 z "},"Đ":{"ha":833,"x_min":14,"x_max":771,"o":"m 14 471 l 14 564 l 403 564 l 403 471 l 14 471 m 74 0 l 235 1014 l 486 1014 q 649 976 583 1014 q 742 870 714 939 q 756 710 771 801 l 692 306 q 627 144 678 213 q 499 38 576 75 q 325 0 422 0 l 74 0 m 200 99 l 340 99 q 502 154 438 99 q 582 306 567 210 l 646 710 q 614 860 661 804 q 469 915 567 915 l 328 915 l 200 99 z "},"E":{"ha":833,"x_min":85,"x_max":818,"o":"m 85 0 l 246 1014 l 818 1014 l 803 914 l 339 914 l 286 579 l 701 579 l 685 481 l 271 481 l 210 100 l 674 100 l 657 0 l 85 0 z "},"É":{"ha":833,"x_min":85,"x_max":818,"o":"m 85 0 l 246 1014 l 818 1014 l 803 914 l 339 914 l 286 579 l 701 579 l 685 481 l 271 481 l 210 100 l 674 100 l 657 0 l 85 0 m 485 1125 l 663 1319 l 790 1319 l 604 1125 l 485 1125 z "},"Ĕ":{"ha":833,"x_min":85,"x_max":818,"o":"m 85 0 l 246 1014 l 818 1014 l 803 914 l 339 914 l 286 579 l 701 579 l 685 481 l 271 481 l 210 100 l 674 100 l 657 0 l 85 0 m 560 1119 q 412 1174 463 1119 q 375 1319 361 1229 l 463 1319 q 483 1228 454 1263 q 569 1193 513 1193 q 669 1228 629 1193 q 718 1319 710 1263 l 808 1319 q 726 1174 794 1229 q 560 1119 658 1119 z "},"Ě":{"ha":833,"x_min":85,"x_max":832,"o":"m 85 0 l 246 1014 l 818 1014 l 803 914 l 339 914 l 286 579 l 701 579 l 685 481 l 271 481 l 210 100 l 674 100 l 657 0 l 85 0 m 508 1125 l 351 1319 l 468 1319 l 571 1200 l 708 1319 l 832 1319 l 615 1125 l 508 1125 z "},"Ê":{"ha":833,"x_min":85,"x_max":818,"o":"m 85 0 l 246 1014 l 818 1014 l 803 914 l 339 914 l 286 579 l 701 579 l 685 481 l 271 481 l 210 100 l 674 100 l 657 0 l 85 0 m 321 1125 l 538 1319 l 644 1319 l 801 1125 l 685 1125 l 583 1244 l 446 1125 l 321 1125 z "},"Ế":{"ha":833,"x_min":85,"x_max":1004,"o":"m 85 0 l 246 1014 l 818 1014 l 803 914 l 339 914 l 286 579 l 701 579 l 685 481 l 271 481 l 210 100 l 674 100 l 657 0 l 85 0 m 700 1249 l 872 1417 l 1004 1417 l 822 1249 l 700 1249 m 289 1083 l 504 1278 l 613 1278 l 768 1083 l 650 1083 l 550 1203 l 413 1083 l 289 1083 z "},"Ệ":{"ha":833,"x_min":85,"x_max":818,"o":"m 293 1125 l 510 1319 l 617 1319 l 774 1125 l 657 1125 l 556 1244 l 418 1125 l 293 1125 m 85 0 l 246 1014 l 818 1014 l 803 914 l 339 914 l 286 579 l 701 579 l 685 481 l 271 481 l 210 100 l 674 100 l 657 0 l 85 0 m 338 -293 q 272 -270 293 -293 q 256 -208 250 -247 q 292 -145 263 -168 q 364 -122 321 -122 q 429 -145 408 -122 q 444 -208 450 -168 q 410 -270 439 -247 q 338 -293 381 -293 z "},"Ề":{"ha":833,"x_min":85,"x_max":868,"o":"m 85 0 l 246 1014 l 818 1014 l 803 914 l 339 914 l 286 579 l 701 579 l 685 481 l 271 481 l 210 100 l 674 100 l 657 0 l 85 0 m 757 1249 l 618 1417 l 738 1417 l 868 1249 l 757 1249 m 289 1083 l 504 1278 l 613 1278 l 768 1083 l 650 1083 l 550 1203 l 413 1083 l 289 1083 z "},"Ể":{"ha":833,"x_min":85,"x_max":917,"o":"m 85 0 l 246 1014 l 818 1014 l 803 914 l 339 914 l 286 579 l 701 579 l 685 481 l 271 481 l 210 100 l 674 100 l 657 0 l 85 0 m 717 1222 l 793 1290 q 808 1306 803 1297 q 814 1321 813 1314 q 792 1344 817 1344 l 701 1344 l 714 1417 l 826 1417 q 894 1394 871 1417 q 910 1335 917 1372 q 898 1300 907 1317 q 874 1271 889 1283 l 819 1222 l 717 1222 m 289 1083 l 504 1278 l 613 1278 l 768 1083 l 650 1083 l 550 1203 l 413 1083 l 289 1083 z "},"Ễ":{"ha":833,"x_min":85,"x_max":818,"o":"m 85 0 l 246 1014 l 818 1014 l 803 914 l 339 914 l 286 579 l 701 579 l 685 481 l 271 481 l 210 100 l 674 100 l 657 0 l 85 0 m 664 1278 q 599 1288 625 1278 q 556 1313 574 1299 q 518 1338 538 1328 q 472 1349 499 1349 q 419 1304 428 1349 l 417 1292 l 336 1292 l 339 1304 q 384 1386 346 1356 q 478 1417 422 1417 q 543 1406 518 1417 q 586 1381 568 1396 q 622 1356 604 1367 q 668 1346 640 1346 q 701 1358 688 1346 q 718 1390 715 1371 l 721 1403 l 801 1403 l 800 1390 q 756 1308 793 1339 q 664 1278 719 1278 m 289 1083 l 476 1240 l 628 1240 l 767 1083 l 650 1083 l 549 1192 l 413 1083 l 289 1083 z "},"Ë":{"ha":833,"x_min":85,"x_max":821,"o":"m 85 0 l 246 1014 l 818 1014 l 803 914 l 339 914 l 286 579 l 701 579 l 685 481 l 271 481 l 210 100 l 674 100 l 657 0 l 85 0 m 718 1138 q 660 1160 679 1138 q 646 1222 640 1183 q 680 1285 653 1263 q 746 1308 707 1308 q 803 1285 783 1308 q 815 1222 822 1263 q 783 1160 810 1183 q 718 1138 756 1138 m 413 1138 q 354 1160 374 1138 q 340 1222 335 1183 q 374 1285 347 1263 q 439 1308 401 1308 q 497 1285 478 1308 q 510 1222 517 1263 q 477 1160 504 1183 q 413 1138 450 1138 z "},"Ė":{"ha":833,"x_min":85,"x_max":818,"o":"m 85 0 l 246 1014 l 818 1014 l 803 914 l 339 914 l 286 579 l 701 579 l 685 481 l 271 481 l 210 100 l 674 100 l 657 0 l 85 0 m 564 1136 q 498 1160 519 1136 q 482 1222 476 1183 q 518 1285 489 1261 q 590 1308 547 1308 q 656 1285 635 1308 q 671 1222 678 1261 q 636 1160 665 1183 q 564 1136 607 1136 z "},"Ẹ":{"ha":833,"x_min":85,"x_max":818,"o":"m 85 0 l 246 1014 l 818 1014 l 803 914 l 339 914 l 286 579 l 701 579 l 685 481 l 271 481 l 210 100 l 674 100 l 657 0 l 85 0 m 338 -293 q 272 -270 293 -293 q 256 -208 250 -247 q 292 -145 263 -168 q 364 -122 321 -122 q 429 -145 408 -122 q 444 -208 450 -168 q 410 -270 439 -247 q 338 -293 381 -293 z "},"È":{"ha":833,"x_min":85,"x_max":818,"o":"m 85 0 l 246 1014 l 818 1014 l 803 914 l 339 914 l 286 579 l 701 579 l 685 481 l 271 481 l 210 100 l 674 100 l 657 0 l 85 0 m 525 1125 l 397 1319 l 514 1319 l 635 1125 l 525 1125 z "},"Ẻ":{"ha":833,"x_min":85,"x_max":818,"o":"m 85 0 l 246 1014 l 818 1014 l 803 914 l 339 914 l 286 579 l 701 579 l 685 481 l 271 481 l 210 100 l 674 100 l 657 0 l 85 0 m 471 1111 l 557 1203 q 577 1229 569 1217 q 586 1250 585 1242 q 549 1281 590 1281 l 436 1281 l 450 1360 l 589 1360 q 669 1334 642 1360 q 689 1263 696 1308 q 676 1222 686 1242 q 653 1188 667 1203 l 583 1111 l 471 1111 z "},"Ē":{"ha":833,"x_min":85,"x_max":818,"o":"m 85 0 l 246 1014 l 818 1014 l 803 914 l 339 914 l 286 579 l 701 579 l 685 481 l 271 481 l 210 100 l 674 100 l 657 0 l 85 0 m 354 1172 l 369 1264 l 799 1264 l 783 1172 l 354 1172 z "},"Ę":{"ha":833,"x_min":85,"x_max":818,"o":"m 514 -279 q 405 -244 443 -279 q 376 -154 367 -210 q 417 -72 383 -114 q 521 14 451 -31 l 611 14 l 593 1 q 515 -71 542 -37 q 483 -133 489 -104 q 496 -183 479 -164 q 547 -203 513 -203 l 632 -203 l 621 -279 l 514 -279 m 85 0 l 246 1014 l 818 1014 l 803 914 l 339 914 l 286 579 l 701 579 l 685 481 l 271 481 l 210 100 l 674 100 l 657 0 l 85 0 z "},"Ẽ":{"ha":833,"x_min":85,"x_max":818,"o":"m 85 0 l 246 1014 l 818 1014 l 803 914 l 339 914 l 286 579 l 701 579 l 685 481 l 271 481 l 210 100 l 674 100 l 657 0 l 85 0 m 661 1132 q 597 1148 621 1132 q 558 1185 574 1164 q 526 1222 542 1206 q 486 1238 511 1238 q 449 1224 465 1238 q 429 1182 433 1210 l 422 1139 l 342 1139 l 349 1182 q 398 1278 358 1244 q 494 1313 438 1313 q 559 1297 535 1313 q 599 1260 583 1281 q 629 1223 614 1239 q 669 1207 644 1207 q 705 1221 690 1207 q 724 1263 719 1235 l 732 1306 l 813 1306 l 806 1263 q 757 1166 796 1200 q 661 1132 718 1132 z "},"F":{"ha":833,"x_min":78,"x_max":829,"o":"m 78 0 l 239 1015 l 829 1015 l 813 914 l 332 914 l 275 558 l 717 558 l 701 458 l 261 458 l 189 0 l 78 0 z "},"G":{"ha":833,"x_min":97,"x_max":786,"o":"m 360 -14 q 209 21 269 -14 q 123 121 149 56 q 111 274 97 186 l 185 740 q 246 894 200 829 q 363 993 292 958 q 525 1028 435 1028 q 674 992 614 1028 q 760 892 735 957 q 772 736 786 826 l 663 736 q 635 878 676 828 q 508 929 594 929 q 366 880 422 929 q 294 740 310 831 l 221 274 q 248 135 207 185 q 375 85 289 85 q 519 135 463 85 q 590 278 575 186 l 610 410 l 396 410 l 411 511 l 736 511 l 700 278 q 639 123 686 189 q 520 22 592 57 q 360 -14 449 -14 z "},"Ǵ":{"ha":833,"x_min":97,"x_max":786,"o":"m 360 -14 q 209 21 269 -14 q 123 121 149 56 q 111 274 97 186 l 185 740 q 246 894 200 829 q 363 993 292 958 q 525 1028 435 1028 q 674 992 614 1028 q 760 892 735 957 q 772 736 786 826 l 663 736 q 635 878 676 828 q 508 929 594 929 q 366 880 422 929 q 294 740 310 831 l 221 274 q 248 135 207 185 q 375 85 289 85 q 519 135 463 85 q 590 278 575 186 l 610 410 l 396 410 l 411 511 l 736 511 l 700 278 q 639 123 686 189 q 520 22 592 57 q 360 -14 449 -14 m 460 1125 l 638 1319 l 765 1319 l 579 1125 l 460 1125 z "},"Ğ":{"ha":833,"x_min":97,"x_max":786,"o":"m 360 -14 q 209 21 269 -14 q 123 121 149 56 q 111 274 97 186 l 185 740 q 246 894 200 829 q 363 993 292 958 q 525 1028 435 1028 q 674 992 614 1028 q 760 892 735 957 q 772 736 786 826 l 663 736 q 635 878 676 828 q 508 929 594 929 q 366 880 422 929 q 294 740 310 831 l 221 274 q 248 135 207 185 q 375 85 289 85 q 519 135 463 85 q 590 278 575 186 l 610 410 l 396 410 l 411 511 l 736 511 l 700 278 q 639 123 686 189 q 520 22 592 57 q 360 -14 449 -14 m 535 1119 q 387 1174 438 1119 q 350 1319 336 1229 l 438 1319 q 458 1228 429 1263 q 544 1193 488 1193 q 644 1228 604 1193 q 693 1319 685 1263 l 783 1319 q 701 1174 769 1229 q 535 1119 633 1119 z "},"Ǧ":{"ha":833,"x_min":97,"x_max":806,"o":"m 360 -14 q 209 21 269 -14 q 123 121 149 56 q 111 274 97 186 l 185 740 q 246 894 200 829 q 363 993 292 958 q 525 1028 435 1028 q 674 992 614 1028 q 760 892 735 957 q 772 736 786 826 l 663 736 q 635 878 676 828 q 508 929 594 929 q 366 880 422 929 q 294 740 310 831 l 221 274 q 248 135 207 185 q 375 85 289 85 q 519 135 463 85 q 590 278 575 186 l 610 410 l 396 410 l 411 511 l 736 511 l 700 278 q 639 123 686 189 q 520 22 592 57 q 360 -14 449 -14 m 483 1125 l 326 1319 l 443 1319 l 546 1200 l 683 1319 l 807 1319 l 590 1125 l 483 1125 z "},"Ĝ":{"ha":833,"x_min":97,"x_max":786,"o":"m 360 -14 q 209 21 269 -14 q 123 121 149 56 q 111 274 97 186 l 185 740 q 246 894 200 829 q 363 993 292 958 q 525 1028 435 1028 q 674 992 614 1028 q 760 892 735 957 q 772 736 786 826 l 663 736 q 635 878 676 828 q 508 929 594 929 q 366 880 422 929 q 294 740 310 831 l 221 274 q 248 135 207 185 q 375 85 289 85 q 519 135 463 85 q 590 278 575 186 l 610 410 l 396 410 l 411 511 l 736 511 l 700 278 q 639 123 686 189 q 520 22 592 57 q 360 -14 449 -14 m 296 1125 l 513 1319 l 619 1319 l 776 1125 l 660 1125 l 558 1244 l 421 1125 l 296 1125 z "},"Ģ":{"ha":833,"x_min":97,"x_max":786,"o":"m 360 -14 q 209 21 269 -14 q 123 121 149 56 q 111 274 97 186 l 185 740 q 246 894 200 829 q 363 993 292 958 q 525 1028 435 1028 q 674 992 614 1028 q 760 892 735 957 q 772 736 786 826 l 663 736 q 635 878 676 828 q 508 929 594 929 q 366 880 422 929 q 294 740 310 831 l 221 274 q 248 135 207 185 q 375 85 289 85 q 519 135 463 85 q 590 278 575 186 l 610 410 l 396 410 l 411 511 l 736 511 l 700 278 q 639 123 686 189 q 520 22 592 57 q 360 -14 449 -14 m 168 -333 l 331 -132 l 457 -132 l 279 -333 l 168 -333 z "},"Ġ":{"ha":833,"x_min":97,"x_max":786,"o":"m 360 -14 q 209 21 269 -14 q 123 121 149 56 q 111 274 97 186 l 185 740 q 246 894 200 829 q 363 993 292 958 q 525 1028 435 1028 q 674 992 614 1028 q 760 892 735 957 q 772 736 786 826 l 663 736 q 635 878 676 828 q 508 929 594 929 q 366 880 422 929 q 294 740 310 831 l 221 274 q 248 135 207 185 q 375 85 289 85 q 519 135 463 85 q 590 278 575 186 l 610 410 l 396 410 l 411 511 l 736 511 l 700 278 q 639 123 686 189 q 520 22 592 57 q 360 -14 449 -14 m 539 1136 q 473 1160 494 1136 q 457 1222 451 1183 q 493 1285 464 1261 q 565 1308 522 1308 q 631 1285 610 1308 q 646 1222 653 1261 q 611 1160 640 1183 q 539 1136 582 1136 z "},"H":{"ha":833,"x_min":75,"x_max":797,"o":"m 75 0 l 236 1014 l 346 1014 l 275 575 l 618 575 l 688 1014 l 797 1014 l 636 0 l 526 0 l 601 474 l 260 474 l 185 0 l 75 0 z "},"Ħ":{"ha":833,"x_min":71,"x_max":889,"o":"m 71 735 l 85 828 l 889 828 l 875 735 l 71 735 m 75 0 l 236 1014 l 346 1014 l 275 575 l 618 575 l 688 1014 l 797 1014 l 636 0 l 526 0 l 601 474 l 260 474 l 185 0 l 75 0 z "},"Ĥ":{"ha":833,"x_min":75,"x_max":797,"o":"m 75 0 l 236 1014 l 346 1014 l 275 575 l 618 575 l 688 1014 l 797 1014 l 636 0 l 526 0 l 601 474 l 260 474 l 185 0 l 75 0 m 293 1125 l 510 1319 l 617 1319 l 774 1125 l 657 1125 l 556 1244 l 418 1125 l 293 1125 z "},"I":{"ha":833,"x_min":90,"x_max":782,"o":"m 90 0 l 106 100 l 315 100 l 444 914 l 235 914 l 251 1014 l 782 1014 l 765 914 l 557 914 l 428 100 l 636 100 l 621 0 l 90 0 z "},"Í":{"ha":833,"x_min":90,"x_max":782,"o":"m 90 0 l 106 100 l 315 100 l 444 914 l 235 914 l 251 1014 l 782 1014 l 765 914 l 557 914 l 428 100 l 636 100 l 621 0 l 90 0 m 457 1125 l 635 1319 l 763 1319 l 576 1125 l 457 1125 z "},"Ĭ":{"ha":833,"x_min":90,"x_max":782,"o":"m 90 0 l 106 100 l 315 100 l 444 914 l 235 914 l 251 1014 l 782 1014 l 765 914 l 557 914 l 428 100 l 636 100 l 621 0 l 90 0 m 532 1119 q 384 1174 435 1119 q 347 1319 333 1229 l 435 1319 q 456 1228 426 1263 q 542 1193 485 1193 q 642 1228 601 1193 q 690 1319 682 1263 l 781 1319 q 699 1174 767 1229 q 532 1119 631 1119 z "},"Î":{"ha":833,"x_min":90,"x_max":782,"o":"m 90 0 l 106 100 l 315 100 l 444 914 l 235 914 l 251 1014 l 782 1014 l 765 914 l 557 914 l 428 100 l 636 100 l 621 0 l 90 0 m 293 1125 l 510 1319 l 617 1319 l 774 1125 l 657 1125 l 556 1244 l 418 1125 l 293 1125 z "},"Ï":{"ha":833,"x_min":90,"x_max":793,"o":"m 90 0 l 106 100 l 315 100 l 444 914 l 235 914 l 251 1014 l 782 1014 l 765 914 l 557 914 l 428 100 l 636 100 l 621 0 l 90 0 m 690 1138 q 632 1160 651 1138 q 618 1222 613 1183 q 652 1285 625 1263 q 718 1308 679 1308 q 775 1285 756 1308 q 788 1222 794 1263 q 755 1160 782 1183 q 690 1138 728 1138 m 385 1138 q 326 1160 346 1138 q 313 1222 307 1183 q 347 1285 319 1263 q 411 1308 374 1308 q 469 1285 450 1308 q 482 1222 489 1263 q 449 1160 476 1183 q 385 1138 422 1138 z "},"İ":{"ha":833,"x_min":90,"x_max":782,"o":"m 90 0 l 106 100 l 315 100 l 444 914 l 235 914 l 251 1014 l 782 1014 l 765 914 l 557 914 l 428 100 l 636 100 l 621 0 l 90 0 m 536 1136 q 470 1160 492 1136 q 454 1222 449 1183 q 490 1285 461 1261 q 563 1308 519 1308 q 628 1285 607 1308 q 643 1222 650 1261 q 608 1160 638 1183 q 536 1136 579 1136 z "},"Ị":{"ha":833,"x_min":90,"x_max":782,"o":"m 90 0 l 106 100 l 315 100 l 444 914 l 235 914 l 251 1014 l 782 1014 l 765 914 l 557 914 l 428 100 l 636 100 l 621 0 l 90 0 m 310 -293 q 244 -270 265 -293 q 228 -208 222 -247 q 264 -145 235 -168 q 336 -122 293 -122 q 401 -145 381 -122 q 417 -208 422 -168 q 382 -270 411 -247 q 310 -293 353 -293 z "},"Ì":{"ha":833,"x_min":90,"x_max":782,"o":"m 90 0 l 106 100 l 315 100 l 444 914 l 235 914 l 251 1014 l 782 1014 l 765 914 l 557 914 l 428 100 l 636 100 l 621 0 l 90 0 m 497 1125 l 369 1319 l 486 1319 l 607 1125 l 497 1125 z "},"Ỉ":{"ha":833,"x_min":90,"x_max":782,"o":"m 90 0 l 106 100 l 315 100 l 444 914 l 235 914 l 251 1014 l 782 1014 l 765 914 l 557 914 l 428 100 l 636 100 l 621 0 l 90 0 m 496 1111 l 582 1203 q 602 1229 594 1217 q 611 1250 610 1242 q 574 1281 615 1281 l 461 1281 l 475 1360 l 614 1360 q 694 1334 667 1360 q 714 1263 721 1308 q 701 1222 711 1242 q 678 1188 692 1203 l 608 1111 l 496 1111 z "},"Ī":{"ha":833,"x_min":90,"x_max":782,"o":"m 90 0 l 106 100 l 315 100 l 444 914 l 235 914 l 251 1014 l 782 1014 l 765 914 l 557 914 l 428 100 l 636 100 l 621 0 l 90 0 m 326 1172 l 342 1264 l 771 1264 l 756 1172 l 326 1172 z "},"Į":{"ha":833,"x_min":90,"x_max":782,"o":"m 319 -279 q 210 -244 247 -279 q 182 -154 172 -210 q 223 -72 189 -114 q 325 14 257 -31 l 415 14 l 397 1 q 321 -71 347 -37 q 289 -133 294 -104 q 301 -183 283 -164 q 351 -203 318 -203 l 438 -203 l 425 -279 l 319 -279 m 90 0 l 106 100 l 315 100 l 444 914 l 235 914 l 251 1014 l 782 1014 l 765 914 l 557 914 l 428 100 l 636 100 l 621 0 l 90 0 z "},"Ĩ":{"ha":833,"x_min":90,"x_max":785,"o":"m 90 0 l 106 100 l 315 100 l 444 914 l 235 914 l 251 1014 l 782 1014 l 765 914 l 557 914 l 428 100 l 636 100 l 621 0 l 90 0 m 633 1132 q 569 1148 593 1132 q 530 1185 546 1164 q 499 1222 514 1206 q 458 1238 483 1238 q 422 1224 438 1238 q 401 1182 406 1210 l 394 1139 l 314 1139 l 321 1182 q 370 1278 331 1244 q 467 1313 410 1313 q 531 1297 507 1313 q 571 1260 556 1281 q 601 1223 586 1239 q 642 1207 617 1207 q 677 1221 663 1207 q 696 1263 692 1235 l 704 1306 l 785 1306 l 778 1263 q 729 1166 768 1200 q 633 1132 690 1132 z "},"J":{"ha":833,"x_min":33,"x_max":782,"o":"m 313 -14 q 102 67 171 -14 q 56 288 33 147 l 167 288 q 194 138 151 192 q 329 85 238 85 q 481 138 421 85 q 556 288 542 192 l 656 913 l 408 913 l 424 1014 l 782 1014 l 667 288 q 604 126 653 194 q 482 22 556 58 q 313 -14 408 -14 z "},"Ĵ":{"ha":833,"x_min":33,"x_max":857,"o":"m 313 -14 q 102 67 171 -14 q 56 288 33 147 l 167 288 q 194 138 151 192 q 329 85 238 85 q 481 138 421 85 q 556 288 542 192 l 656 913 l 408 913 l 424 1014 l 782 1014 l 667 288 q 604 126 653 194 q 482 22 556 58 q 313 -14 408 -14 m 376 1125 l 593 1319 l 700 1319 l 857 1125 l 740 1125 l 639 1244 l 501 1125 l 376 1125 z "},"K":{"ha":833,"x_min":74,"x_max":857,"o":"m 74 0 l 235 1014 l 344 1014 l 275 574 l 439 574 l 733 1014 l 857 1014 l 531 522 l 710 0 l 586 0 l 426 476 l 260 476 l 183 0 l 74 0 z "},"Ķ":{"ha":833,"x_min":74,"x_max":857,"o":"m 74 0 l 235 1014 l 344 1014 l 275 574 l 439 574 l 733 1014 l 857 1014 l 531 522 l 710 0 l 586 0 l 426 476 l 260 476 l 183 0 l 74 0 m 161 -333 l 324 -132 l 450 -132 l 272 -333 l 161 -333 z "},"L":{"ha":833,"x_min":100,"x_max":694,"o":"m 100 0 l 261 1014 l 372 1014 l 226 100 l 694 100 l 678 0 l 100 0 z "},"Ĺ":{"ha":833,"x_min":100,"x_max":694,"o":"m 100 0 l 261 1014 l 372 1014 l 226 100 l 694 100 l 678 0 l 100 0 m 258 1125 l 436 1319 l 564 1319 l 378 1125 l 258 1125 z "},"Ľ":{"ha":833,"x_min":100,"x_max":715,"o":"m 100 0 l 261 1014 l 372 1014 l 226 100 l 694 100 l 678 0 l 100 0 m 556 764 l 610 1014 l 715 1014 l 647 764 l 556 764 z "},"Ļ":{"ha":833,"x_min":100,"x_max":694,"o":"m 100 0 l 261 1014 l 372 1014 l 226 100 l 694 100 l 678 0 l 100 0 m 189 -333 l 351 -132 l 478 -132 l 300 -333 l 189 -333 z "},"Ŀ":{"ha":833,"x_min":100,"x_max":694,"o":"m 100 0 l 261 1014 l 372 1014 l 226 100 l 694 100 l 678 0 l 100 0 z "},"Ł":{"ha":833,"x_min":18,"x_max":697,"o":"m 18 318 l 33 425 l 603 779 l 588 672 l 18 318 m 104 0 l 265 1014 l 375 1014 l 231 100 l 697 100 l 682 0 l 104 0 z "},"M":{"ha":833,"x_min":50,"x_max":822,"o":"m 50 0 l 211 1014 l 357 1014 l 417 669 q 430 588 424 629 q 439 522 436 546 q 468 588 450 546 q 506 671 486 629 l 671 1014 l 822 1014 l 661 0 l 553 0 l 622 433 q 646 566 632 494 q 676 709 660 638 q 709 846 693 781 q 738 958 725 911 l 486 446 l 369 446 l 278 958 q 272 848 276 911 q 260 713 267 785 q 246 569 254 642 q 226 433 238 497 l 158 0 l 50 0 z "},"N":{"ha":833,"x_min":71,"x_max":801,"o":"m 71 0 l 232 1014 l 378 1014 l 565 128 q 572 206 568 160 q 583 301 576 253 q 596 389 589 350 l 694 1014 l 801 1014 l 640 0 l 493 0 l 308 886 q 301 815 306 858 q 291 722 297 771 q 276 625 285 672 l 178 0 l 71 0 z "},"Ń":{"ha":833,"x_min":71,"x_max":801,"o":"m 71 0 l 232 1014 l 378 1014 l 565 128 q 572 206 568 160 q 583 301 576 253 q 596 389 589 350 l 694 1014 l 801 1014 l 640 0 l 493 0 l 308 886 q 301 815 306 858 q 291 722 297 771 q 276 625 285 672 l 178 0 l 71 0 m 457 1125 l 635 1319 l 763 1319 l 576 1125 l 457 1125 z "},"Ň":{"ha":833,"x_min":71,"x_max":804,"o":"m 71 0 l 232 1014 l 378 1014 l 565 128 q 572 206 568 160 q 583 301 576 253 q 596 389 589 350 l 694 1014 l 801 1014 l 640 0 l 493 0 l 308 886 q 301 815 306 858 q 291 722 297 771 q 276 625 285 672 l 178 0 l 71 0 m 481 1125 l 324 1319 l 440 1319 l 543 1200 l 681 1319 l 804 1319 l 588 1125 l 481 1125 z "},"Ņ":{"ha":833,"x_min":71,"x_max":801,"o":"m 71 0 l 232 1014 l 378 1014 l 565 128 q 572 206 568 160 q 583 301 576 253 q 596 389 589 350 l 694 1014 l 801 1014 l 640 0 l 493 0 l 308 886 q 301 815 306 858 q 291 722 297 771 q 276 625 285 672 l 178 0 l 71 0 m 160 -333 l 321 -132 l 453 -132 l 275 -333 l 160 -333 z "},"Ŋ":{"ha":833,"x_min":71,"x_max":801,"o":"m 228 -250 l 243 -150 l 339 -150 q 469 -106 418 -150 q 532 15 521 -62 l 308 886 q 301 815 306 858 q 290 722 296 771 q 276 625 285 672 l 178 0 l 71 0 l 232 1014 l 378 1014 l 581 217 q 588 292 583 247 q 597 388 592 338 q 611 486 603 439 l 694 1014 l 801 1014 l 642 15 q 586 -126 629 -65 q 476 -218 543 -186 q 324 -250 408 -250 l 228 -250 z "},"Ñ":{"ha":833,"x_min":71,"x_max":801,"o":"m 71 0 l 232 1014 l 378 1014 l 565 128 q 572 206 568 160 q 583 301 576 253 q 596 389 589 350 l 694 1014 l 801 1014 l 640 0 l 493 0 l 308 886 q 301 815 306 858 q 291 722 297 771 q 276 625 285 672 l 178 0 l 71 0 m 633 1132 q 569 1148 593 1132 q 530 1185 546 1164 q 499 1222 514 1206 q 458 1238 483 1238 q 422 1224 438 1238 q 401 1182 406 1210 l 394 1139 l 314 1139 l 321 1182 q 370 1278 331 1244 q 467 1313 410 1313 q 531 1297 507 1313 q 571 1260 556 1281 q 601 1223 586 1239 q 642 1207 617 1207 q 677 1221 663 1207 q 696 1263 692 1235 l 704 1306 l 785 1306 l 778 1263 q 729 1166 768 1200 q 633 1132 690 1132 z "},"O":{"ha":833,"x_min":97,"x_max":776,"o":"m 353 -14 q 206 21 265 -14 q 122 120 146 56 q 111 274 97 185 l 185 740 q 245 894 200 829 q 360 993 290 958 q 518 1028 431 1028 q 666 993 607 1028 q 751 894 725 958 q 761 740 776 829 l 688 274 q 628 120 674 185 q 512 21 582 56 q 353 -14 442 -14 m 368 85 q 508 134 454 85 q 578 274 563 183 l 651 740 q 626 880 665 831 q 503 929 588 929 q 364 880 418 929 q 294 740 310 831 l 221 274 q 245 134 207 183 q 368 85 283 85 z "},"Ó":{"ha":833,"x_min":97,"x_max":776,"o":"m 353 -14 q 206 21 265 -14 q 122 120 146 56 q 111 274 97 185 l 185 740 q 245 894 200 829 q 360 993 290 958 q 518 1028 431 1028 q 666 993 607 1028 q 751 894 725 958 q 761 740 776 829 l 688 274 q 628 120 674 185 q 512 21 582 56 q 353 -14 442 -14 m 368 85 q 508 134 454 85 q 578 274 563 183 l 651 740 q 626 880 665 831 q 503 929 588 929 q 364 880 418 929 q 294 740 310 831 l 221 274 q 245 134 207 183 q 368 85 283 85 m 457 1125 l 635 1319 l 763 1319 l 576 1125 l 457 1125 z "},"Ŏ":{"ha":833,"x_min":97,"x_max":781,"o":"m 353 -14 q 206 21 265 -14 q 122 120 146 56 q 111 274 97 185 l 185 740 q 245 894 200 829 q 360 993 290 958 q 518 1028 431 1028 q 666 993 607 1028 q 751 894 725 958 q 761 740 776 829 l 688 274 q 628 120 674 185 q 512 21 582 56 q 353 -14 442 -14 m 368 85 q 508 134 454 85 q 578 274 563 183 l 651 740 q 626 880 665 831 q 503 929 588 929 q 364 880 418 929 q 294 740 310 831 l 221 274 q 245 134 207 183 q 368 85 283 85 m 532 1119 q 384 1174 435 1119 q 347 1319 333 1229 l 435 1319 q 456 1228 426 1263 q 542 1193 485 1193 q 642 1228 601 1193 q 690 1319 682 1263 l 781 1319 q 699 1174 767 1229 q 532 1119 631 1119 z "},"Ô":{"ha":833,"x_min":97,"x_max":776,"o":"m 353 -14 q 206 21 265 -14 q 122 120 146 56 q 111 274 97 185 l 185 740 q 245 894 200 829 q 360 993 290 958 q 518 1028 431 1028 q 666 993 607 1028 q 751 894 725 958 q 761 740 776 829 l 688 274 q 628 120 674 185 q 512 21 582 56 q 353 -14 442 -14 m 368 85 q 508 134 454 85 q 578 274 563 183 l 651 740 q 626 880 665 831 q 503 929 588 929 q 364 880 418 929 q 294 740 310 831 l 221 274 q 245 134 207 183 q 368 85 283 85 m 293 1125 l 510 1319 l 617 1319 l 774 1125 l 657 1125 l 556 1244 l 418 1125 l 293 1125 z "},"Ố":{"ha":833,"x_min":97,"x_max":1004,"o":"m 353 -14 q 206 21 265 -14 q 122 120 146 56 q 111 274 97 185 l 185 740 q 245 894 200 829 q 360 993 290 958 q 518 1028 431 1028 q 666 993 607 1028 q 751 894 725 958 q 761 740 776 829 l 688 274 q 628 120 674 185 q 512 21 582 56 q 353 -14 442 -14 m 368 85 q 508 134 454 85 q 578 274 563 183 l 651 740 q 626 880 665 831 q 503 929 588 929 q 364 880 418 929 q 294 740 310 831 l 221 274 q 245 134 207 183 q 368 85 283 85 m 700 1249 l 872 1417 l 1004 1417 l 822 1249 l 700 1249 m 289 1083 l 504 1278 l 613 1278 l 768 1083 l 650 1083 l 550 1203 l 413 1083 l 289 1083 z "},"Ộ":{"ha":833,"x_min":97,"x_max":776,"o":"m 293 1125 l 510 1319 l 617 1319 l 774 1125 l 657 1125 l 556 1244 l 418 1125 l 293 1125 m 353 -14 q 206 21 265 -14 q 122 120 146 56 q 111 274 97 185 l 185 740 q 245 894 200 829 q 360 993 290 958 q 518 1028 431 1028 q 666 993 607 1028 q 751 894 725 958 q 761 740 776 829 l 688 274 q 628 120 674 185 q 512 21 582 56 q 353 -14 442 -14 m 368 85 q 508 134 454 85 q 578 274 563 183 l 651 740 q 626 880 665 831 q 503 929 588 929 q 364 880 418 929 q 294 740 310 831 l 221 274 q 245 134 207 183 q 368 85 283 85 m 310 -293 q 244 -270 265 -293 q 228 -208 222 -247 q 264 -145 235 -168 q 336 -122 293 -122 q 401 -145 381 -122 q 417 -208 422 -168 q 382 -270 411 -247 q 310 -293 353 -293 z "},"Ồ":{"ha":833,"x_min":97,"x_max":868,"o":"m 353 -14 q 206 21 265 -14 q 122 120 146 56 q 111 274 97 185 l 185 740 q 245 894 200 829 q 360 993 290 958 q 518 1028 431 1028 q 666 993 607 1028 q 751 894 725 958 q 761 740 776 829 l 688 274 q 628 120 674 185 q 512 21 582 56 q 353 -14 442 -14 m 368 85 q 508 134 454 85 q 578 274 563 183 l 651 740 q 626 880 665 831 q 503 929 588 929 q 364 880 418 929 q 294 740 310 831 l 221 274 q 245 134 207 183 q 368 85 283 85 m 757 1249 l 618 1417 l 738 1417 l 868 1249 l 757 1249 m 289 1083 l 504 1278 l 613 1278 l 768 1083 l 650 1083 l 550 1203 l 413 1083 l 289 1083 z "},"Ổ":{"ha":833,"x_min":97,"x_max":917,"o":"m 353 -14 q 206 21 265 -14 q 122 120 146 56 q 111 274 97 185 l 185 740 q 245 894 200 829 q 360 993 290 958 q 518 1028 431 1028 q 666 993 607 1028 q 751 894 725 958 q 761 740 776 829 l 688 274 q 628 120 674 185 q 512 21 582 56 q 353 -14 442 -14 m 368 85 q 508 134 454 85 q 578 274 563 183 l 651 740 q 626 880 665 831 q 503 929 588 929 q 364 880 418 929 q 294 740 310 831 l 221 274 q 245 134 207 183 q 368 85 283 85 m 717 1222 l 793 1290 q 808 1306 803 1297 q 814 1321 813 1314 q 792 1344 817 1344 l 701 1344 l 714 1417 l 826 1417 q 894 1394 871 1417 q 910 1335 917 1372 q 898 1300 907 1317 q 874 1271 889 1283 l 819 1222 l 717 1222 m 289 1083 l 504 1278 l 613 1278 l 768 1083 l 650 1083 l 550 1203 l 413 1083 l 289 1083 z "},"Ỗ":{"ha":833,"x_min":97,"x_max":801,"o":"m 353 -14 q 206 21 265 -14 q 122 120 146 56 q 111 274 97 185 l 185 740 q 245 894 200 829 q 360 993 290 958 q 518 1028 431 1028 q 666 993 607 1028 q 751 894 725 958 q 761 740 776 829 l 688 274 q 628 120 674 185 q 512 21 582 56 q 353 -14 442 -14 m 368 85 q 508 134 454 85 q 578 274 563 183 l 651 740 q 626 880 665 831 q 503 929 588 929 q 364 880 418 929 q 294 740 310 831 l 221 274 q 245 134 207 183 q 368 85 283 85 m 664 1278 q 599 1288 625 1278 q 556 1313 574 1299 q 518 1338 538 1328 q 472 1349 499 1349 q 419 1304 428 1349 l 417 1292 l 336 1292 l 339 1304 q 384 1386 346 1356 q 478 1417 422 1417 q 543 1406 518 1417 q 586 1381 568 1396 q 622 1356 604 1367 q 668 1346 640 1346 q 701 1358 688 1346 q 718 1390 715 1371 l 721 1403 l 801 1403 l 800 1390 q 756 1308 793 1339 q 664 1278 719 1278 m 289 1083 l 476 1240 l 628 1240 l 767 1083 l 650 1083 l 549 1192 l 413 1083 l 289 1083 z "},"Ö":{"ha":833,"x_min":97,"x_max":793,"o":"m 353 -14 q 206 21 265 -14 q 122 120 146 56 q 111 274 97 185 l 185 740 q 245 894 200 829 q 360 993 290 958 q 518 1028 431 1028 q 666 993 607 1028 q 751 894 725 958 q 761 740 776 829 l 688 274 q 628 120 674 185 q 512 21 582 56 q 353 -14 442 -14 m 368 85 q 508 134 454 85 q 578 274 563 183 l 651 740 q 626 880 665 831 q 503 929 588 929 q 364 880 418 929 q 294 740 310 831 l 221 274 q 245 134 207 183 q 368 85 283 85 m 690 1138 q 632 1160 651 1138 q 618 1222 613 1183 q 652 1285 625 1263 q 718 1308 679 1308 q 775 1285 756 1308 q 788 1222 794 1263 q 755 1160 782 1183 q 690 1138 728 1138 m 385 1138 q 326 1160 346 1138 q 313 1222 307 1183 q 347 1285 319 1263 q 411 1308 374 1308 q 469 1285 450 1308 q 482 1222 489 1263 q 449 1160 476 1183 q 385 1138 422 1138 z "},"Ọ":{"ha":833,"x_min":97,"x_max":776,"o":"m 353 -14 q 206 21 265 -14 q 122 120 146 56 q 111 274 97 185 l 185 740 q 245 894 200 829 q 360 993 290 958 q 518 1028 431 1028 q 666 993 607 1028 q 751 894 725 958 q 761 740 776 829 l 688 274 q 628 120 674 185 q 512 21 582 56 q 353 -14 442 -14 m 368 85 q 508 134 454 85 q 578 274 563 183 l 651 740 q 626 880 665 831 q 503 929 588 929 q 364 880 418 929 q 294 740 310 831 l 221 274 q 245 134 207 183 q 368 85 283 85 m 324 -293 q 258 -270 279 -293 q 242 -208 236 -247 q 278 -145 249 -168 q 350 -122 307 -122 q 415 -145 394 -122 q 431 -208 436 -168 q 396 -270 425 -247 q 324 -293 367 -293 z "},"Ò":{"ha":833,"x_min":97,"x_max":776,"o":"m 353 -14 q 206 21 265 -14 q 122 120 146 56 q 111 274 97 185 l 185 740 q 245 894 200 829 q 360 993 290 958 q 518 1028 431 1028 q 666 993 607 1028 q 751 894 725 958 q 761 740 776 829 l 688 274 q 628 120 674 185 q 512 21 582 56 q 353 -14 442 -14 m 368 85 q 508 134 454 85 q 578 274 563 183 l 651 740 q 626 880 665 831 q 503 929 588 929 q 364 880 418 929 q 294 740 310 831 l 221 274 q 245 134 207 183 q 368 85 283 85 m 497 1125 l 369 1319 l 486 1319 l 607 1125 l 497 1125 z "},"Ỏ":{"ha":833,"x_min":97,"x_max":776,"o":"m 353 -14 q 206 21 265 -14 q 122 120 146 56 q 111 274 97 185 l 185 740 q 245 894 200 829 q 360 993 290 958 q 518 1028 431 1028 q 666 993 607 1028 q 751 894 725 958 q 761 740 776 829 l 688 274 q 628 120 674 185 q 512 21 582 56 q 353 -14 442 -14 m 368 85 q 508 134 454 85 q 578 274 563 183 l 651 740 q 626 880 665 831 q 503 929 588 929 q 364 880 418 929 q 294 740 310 831 l 221 274 q 245 134 207 183 q 368 85 283 85 m 496 1111 l 582 1203 q 602 1229 594 1217 q 611 1250 610 1242 q 574 1281 615 1281 l 461 1281 l 475 1360 l 614 1360 q 694 1334 667 1360 q 714 1263 721 1308 q 701 1222 711 1242 q 678 1188 692 1203 l 608 1111 l 496 1111 z "},"Ơ":{"ha":833,"x_min":97,"x_max":850,"o":"m 633 893 l 646 972 l 683 972 q 723 987 707 972 q 743 1026 739 1001 l 758 1125 l 850 1125 l 835 1021 q 782 928 825 964 q 676 893 739 893 l 633 893 m 353 -14 q 206 21 265 -14 q 122 120 146 56 q 111 274 97 185 l 185 740 q 245 894 200 829 q 360 993 290 958 q 518 1028 431 1028 q 666 993 607 1028 q 751 894 725 958 q 761 740 776 829 l 688 274 q 628 120 674 185 q 512 21 582 56 q 353 -14 442 -14 m 368 85 q 508 134 454 85 q 578 274 563 183 l 651 740 q 626 880 665 831 q 503 929 588 929 q 364 880 418 929 q 294 740 310 831 l 221 274 q 245 134 207 183 q 368 85 283 85 z "},"Ớ":{"ha":833,"x_min":97,"x_max":850,"o":"m 633 893 l 646 972 l 683 972 q 723 987 707 972 q 743 1026 739 1001 l 758 1125 l 850 1125 l 835 1021 q 782 928 825 964 q 676 893 739 893 l 633 893 m 353 -14 q 206 21 265 -14 q 122 120 146 56 q 111 274 97 185 l 185 740 q 245 894 200 829 q 360 993 290 958 q 518 1028 431 1028 q 666 993 607 1028 q 751 894 725 958 q 761 740 776 829 l 688 274 q 628 120 674 185 q 512 21 582 56 q 353 -14 442 -14 m 368 85 q 508 134 454 85 q 578 274 563 183 l 651 740 q 626 880 665 831 q 503 929 588 929 q 364 880 418 929 q 294 740 310 831 l 221 274 q 245 134 207 183 q 368 85 283 85 m 453 1125 l 631 1319 l 758 1319 l 572 1125 l 453 1125 z "},"Ợ":{"ha":833,"x_min":97,"x_max":850,"o":"m 633 893 l 646 972 l 683 972 q 723 987 707 972 q 743 1026 739 1001 l 758 1125 l 850 1125 l 835 1021 q 782 928 825 964 q 676 893 739 893 l 633 893 m 353 -14 q 206 21 265 -14 q 122 120 146 56 q 111 274 97 185 l 185 740 q 245 894 200 829 q 360 993 290 958 q 518 1028 431 1028 q 666 993 607 1028 q 751 894 725 958 q 761 740 776 829 l 688 274 q 628 120 674 185 q 512 21 582 56 q 353 -14 442 -14 m 368 85 q 508 134 454 85 q 578 274 563 183 l 651 740 q 626 880 665 831 q 503 929 588 929 q 364 880 418 929 q 294 740 310 831 l 221 274 q 245 134 207 183 q 368 85 283 85 m 324 -293 q 258 -270 279 -293 q 242 -208 236 -247 q 278 -145 249 -168 q 350 -122 307 -122 q 415 -145 394 -122 q 431 -208 436 -168 q 396 -270 425 -247 q 324 -293 367 -293 z "},"Ờ":{"ha":833,"x_min":97,"x_max":850,"o":"m 633 893 l 646 972 l 683 972 q 723 987 707 972 q 743 1026 739 1001 l 758 1125 l 850 1125 l 835 1021 q 782 928 825 964 q 676 893 739 893 l 633 893 m 353 -14 q 206 21 265 -14 q 122 120 146 56 q 111 274 97 185 l 185 740 q 245 894 200 829 q 360 993 290 958 q 518 1028 431 1028 q 666 993 607 1028 q 751 894 725 958 q 761 740 776 829 l 688 274 q 628 120 674 185 q 512 21 582 56 q 353 -14 442 -14 m 368 85 q 508 134 454 85 q 578 274 563 183 l 651 740 q 626 880 665 831 q 503 929 588 929 q 364 880 418 929 q 294 740 310 831 l 221 274 q 245 134 207 183 q 368 85 283 85 m 493 1125 l 365 1319 l 482 1319 l 603 1125 l 493 1125 z "},"Ở":{"ha":833,"x_min":97,"x_max":850,"o":"m 633 893 l 646 972 l 683 972 q 723 987 707 972 q 743 1026 739 1001 l 758 1125 l 850 1125 l 835 1021 q 782 928 825 964 q 676 893 739 893 l 633 893 m 353 -14 q 206 21 265 -14 q 122 120 146 56 q 111 274 97 185 l 185 740 q 245 894 200 829 q 360 993 290 958 q 518 1028 431 1028 q 666 993 607 1028 q 751 894 725 958 q 761 740 776 829 l 688 274 q 628 120 674 185 q 512 21 582 56 q 353 -14 442 -14 m 368 85 q 508 134 454 85 q 578 274 563 183 l 651 740 q 626 880 665 831 q 503 929 588 929 q 364 880 418 929 q 294 740 310 831 l 221 274 q 245 134 207 183 q 368 85 283 85 m 471 1111 l 557 1203 q 577 1229 569 1217 q 586 1250 585 1242 q 549 1281 590 1281 l 436 1281 l 450 1360 l 589 1360 q 669 1334 642 1360 q 689 1263 696 1308 q 676 1222 686 1242 q 653 1188 667 1203 l 583 1111 l 471 1111 z "},"Ỡ":{"ha":833,"x_min":97,"x_max":850,"o":"m 633 893 l 646 972 l 683 972 q 723 987 707 972 q 743 1026 739 1001 l 758 1125 l 850 1125 l 835 1021 q 782 928 825 964 q 676 893 739 893 l 633 893 m 353 -14 q 206 21 265 -14 q 122 120 146 56 q 111 274 97 185 l 185 740 q 245 894 200 829 q 360 993 290 958 q 518 1028 431 1028 q 666 993 607 1028 q 751 894 725 958 q 761 740 776 829 l 688 274 q 628 120 674 185 q 512 21 582 56 q 353 -14 442 -14 m 368 85 q 508 134 454 85 q 578 274 563 183 l 651 740 q 626 880 665 831 q 503 929 588 929 q 364 880 418 929 q 294 740 310 831 l 221 274 q 245 134 207 183 q 368 85 283 85 m 629 1132 q 565 1148 589 1132 q 526 1185 542 1164 q 494 1222 510 1206 q 454 1238 479 1238 q 417 1224 433 1238 q 397 1182 401 1210 l 390 1139 l 310 1139 l 317 1182 q 366 1278 326 1244 q 463 1313 406 1313 q 527 1297 503 1313 q 567 1260 551 1281 q 597 1223 582 1239 q 638 1207 613 1207 q 673 1221 658 1207 q 692 1263 688 1235 l 700 1306 l 781 1306 l 774 1263 q 725 1166 764 1200 q 629 1132 686 1132 z "},"Ő":{"ha":833,"x_min":97,"x_max":874,"o":"m 353 -14 q 206 21 265 -14 q 122 120 146 56 q 111 274 97 185 l 185 740 q 245 894 200 829 q 360 993 290 958 q 518 1028 431 1028 q 666 993 607 1028 q 751 894 725 958 q 761 740 776 829 l 688 274 q 628 120 674 185 q 512 21 582 56 q 353 -14 442 -14 m 368 85 q 508 134 454 85 q 578 274 563 183 l 651 740 q 626 880 665 831 q 503 929 588 929 q 364 880 418 929 q 294 740 310 831 l 221 274 q 245 134 207 183 q 368 85 283 85 m 572 1125 l 754 1319 l 874 1319 l 685 1125 l 572 1125 m 328 1125 l 510 1319 l 629 1319 l 440 1125 l 328 1125 z "},"Ō":{"ha":833,"x_min":97,"x_max":776,"o":"m 353 -14 q 206 21 265 -14 q 122 120 146 56 q 111 274 97 185 l 185 740 q 245 894 200 829 q 360 993 290 958 q 518 1028 431 1028 q 666 993 607 1028 q 751 894 725 958 q 761 740 776 829 l 688 274 q 628 120 674 185 q 512 21 582 56 q 353 -14 442 -14 m 368 85 q 508 134 454 85 q 578 274 563 183 l 651 740 q 626 880 665 831 q 503 929 588 929 q 364 880 418 929 q 294 740 310 831 l 221 274 q 245 134 207 183 q 368 85 283 85 m 326 1172 l 342 1264 l 771 1264 l 756 1172 l 326 1172 z "},"Ǫ":{"ha":833,"x_min":97,"x_max":776,"o":"m 418 -279 q 308 -244 346 -279 q 281 -154 271 -210 q 297 -110 283 -133 q 331 -61 310 -86 q 381 -12 353 -36 q 367 -13 375 -12 q 353 -14 358 -14 q 206 21 265 -14 q 122 120 146 56 q 111 274 97 185 l 185 740 q 245 894 200 829 q 360 993 290 958 q 518 1028 431 1028 q 666 993 607 1028 q 751 894 725 958 q 761 740 776 829 l 688 274 q 633 128 674 190 q 529 29 592 65 l 492 1 q 417 -70 442 -36 q 388 -133 392 -104 q 399 -183 382 -164 q 451 -203 417 -203 l 536 -203 l 524 -279 l 418 -279 m 368 85 q 508 134 454 85 q 578 274 563 183 l 651 740 q 626 880 665 831 q 503 929 588 929 q 364 880 418 929 q 294 740 310 831 l 221 274 q 245 134 207 183 q 368 85 283 85 z "},"Ø":{"ha":833,"x_min":-15,"x_max":883,"o":"m -15 -56 l 778 1042 l 883 1042 l 90 -56 l -15 -56 m 353 -14 q 206 21 265 -14 q 122 120 146 56 q 111 274 97 185 l 185 740 q 245 894 200 829 q 360 993 290 958 q 518 1028 431 1028 q 666 993 607 1028 q 750 894 725 958 q 761 740 775 829 l 688 274 q 628 120 674 185 q 512 21 582 56 q 353 -14 442 -14 m 368 85 q 508 134 454 85 q 578 274 563 183 l 651 740 q 626 880 665 831 q 503 929 588 929 q 364 880 418 929 q 294 740 310 831 l 221 274 q 245 134 207 183 q 368 85 283 85 z "},"Ǿ":{"ha":833,"x_min":-15,"x_max":883,"o":"m -15 -56 l 778 1042 l 883 1042 l 90 -56 l -15 -56 m 353 -14 q 206 21 265 -14 q 122 120 146 56 q 111 274 97 185 l 185 740 q 245 894 200 829 q 360 993 290 958 q 518 1028 431 1028 q 666 993 607 1028 q 750 894 725 958 q 761 740 775 829 l 688 274 q 628 120 674 185 q 512 21 582 56 q 353 -14 442 -14 m 368 85 q 508 134 454 85 q 578 274 563 183 l 651 740 q 626 880 665 831 q 503 929 588 929 q 364 880 418 929 q 294 740 310 831 l 221 274 q 245 134 207 183 q 368 85 283 85 m 457 1125 l 635 1319 l 763 1319 l 576 1125 l 457 1125 z "},"Õ":{"ha":833,"x_min":97,"x_max":785,"o":"m 353 -14 q 206 21 265 -14 q 122 120 146 56 q 111 274 97 185 l 185 740 q 245 894 200 829 q 360 993 290 958 q 518 1028 431 1028 q 666 993 607 1028 q 751 894 725 958 q 761 740 776 829 l 688 274 q 628 120 674 185 q 512 21 582 56 q 353 -14 442 -14 m 368 85 q 508 134 454 85 q 578 274 563 183 l 651 740 q 626 880 665 831 q 503 929 588 929 q 364 880 418 929 q 294 740 310 831 l 221 274 q 245 134 207 183 q 368 85 283 85 m 633 1132 q 569 1148 593 1132 q 530 1185 546 1164 q 499 1222 514 1206 q 458 1238 483 1238 q 422 1224 438 1238 q 401 1182 406 1210 l 394 1139 l 314 1139 l 321 1182 q 370 1278 331 1244 q 467 1313 410 1313 q 531 1297 507 1313 q 571 1260 556 1281 q 601 1223 586 1239 q 642 1207 617 1207 q 677 1221 663 1207 q 696 1263 692 1235 l 704 1306 l 785 1306 l 778 1263 q 729 1166 768 1200 q 633 1132 690 1132 z "},"Œ":{"ha":833,"x_min":21,"x_max":896,"o":"m 207 -14 q 99 18 142 -14 q 38 109 56 50 q 33 247 21 168 l 115 767 q 165 906 129 847 q 253 996 200 964 q 372 1028 307 1028 q 451 1008 421 1028 q 494 959 481 988 q 510 903 508 931 l 517 903 l 535 1014 l 896 1014 l 881 913 l 628 913 l 574 575 l 788 575 l 771 472 l 558 472 l 500 101 l 751 101 l 735 0 l 374 0 l 392 111 l 385 111 q 351 56 375 85 q 292 6 328 26 q 207 -14 256 -14 m 253 86 q 358 129 314 86 q 413 247 401 172 l 494 767 q 477 885 506 842 q 388 928 449 928 q 282 884 325 928 q 228 767 239 840 l 146 247 q 163 130 135 174 q 253 86 192 86 z "},"P":{"ha":833,"x_min":74,"x_max":825,"o":"m 74 0 l 235 1014 l 553 1014 q 709 978 646 1014 q 799 876 772 942 q 811 719 825 810 q 750 565 799 631 q 627 462 701 499 q 460 425 553 425 l 251 425 l 183 0 l 74 0 m 267 525 l 475 525 q 623 578 563 525 q 699 719 683 631 q 669 862 713 810 q 538 914 625 914 l 328 914 l 267 525 z "},"Þ":{"ha":833,"x_min":69,"x_max":799,"o":"m 69 0 l 231 1014 l 340 1014 l 307 800 l 528 800 q 730 726 661 800 q 779 528 799 651 q 721 383 767 444 q 603 289 675 322 q 443 256 532 256 l 221 256 l 179 0 l 69 0 m 236 354 l 457 354 q 597 401 542 354 q 665 528 653 449 q 638 655 679 608 q 513 701 596 701 l 290 701 l 236 354 z "},"Q":{"ha":833,"x_min":89,"x_max":783,"o":"m 500 -250 l 390 -3 l 406 -8 q 381 -12 394 -10 q 353 -14 367 -14 q 201 22 263 -14 q 115 124 140 58 q 103 279 89 190 l 175 735 q 237 890 190 825 q 356 992 283 956 q 518 1028 428 1028 q 670 991 610 1028 q 757 889 731 954 q 768 735 783 824 l 696 279 q 621 106 679 178 q 474 6 563 33 l 481 63 l 618 -250 l 500 -250 m 369 85 q 513 138 454 85 q 585 279 571 190 l 658 735 q 631 877 672 825 q 504 929 589 929 q 359 877 418 929 q 286 735 300 825 l 213 279 q 241 138 199 190 q 369 85 283 85 z "},"R":{"ha":833,"x_min":74,"x_max":807,"o":"m 74 0 l 235 1014 l 540 1014 q 692 978 631 1014 q 780 877 753 942 q 793 725 807 813 q 743 590 782 650 q 644 492 704 531 q 510 442 583 454 l 522 496 l 689 0 l 565 0 l 426 438 l 253 438 l 183 0 l 74 0 m 268 538 l 464 538 q 608 589 549 538 q 679 726 667 640 q 651 863 694 813 q 525 914 608 914 l 328 914 l 268 538 z "},"Ŕ":{"ha":833,"x_min":74,"x_max":807,"o":"m 74 0 l 235 1014 l 540 1014 q 692 978 631 1014 q 780 877 753 942 q 793 725 807 813 q 743 590 782 650 q 644 492 704 531 q 510 442 583 454 l 522 496 l 689 0 l 565 0 l 426 438 l 253 438 l 183 0 l 74 0 m 268 538 l 464 538 q 608 589 549 538 q 679 726 667 640 q 651 863 694 813 q 525 914 608 914 l 328 914 l 268 538 m 457 1125 l 635 1319 l 763 1319 l 576 1125 l 457 1125 z "},"Ř":{"ha":833,"x_min":74,"x_max":807,"o":"m 74 0 l 235 1014 l 540 1014 q 692 978 631 1014 q 780 877 753 942 q 793 725 807 813 q 743 590 782 650 q 644 492 704 531 q 510 442 583 454 l 522 496 l 689 0 l 565 0 l 426 438 l 253 438 l 183 0 l 74 0 m 268 538 l 464 538 q 608 589 549 538 q 679 726 667 640 q 651 863 694 813 q 525 914 608 914 l 328 914 l 268 538 m 481 1125 l 324 1319 l 440 1319 l 543 1200 l 681 1319 l 804 1319 l 588 1125 l 481 1125 z "},"Ŗ":{"ha":833,"x_min":74,"x_max":807,"o":"m 74 0 l 235 1014 l 540 1014 q 692 978 631 1014 q 780 877 753 942 q 793 725 807 813 q 743 590 782 650 q 644 492 704 531 q 510 442 583 454 l 522 496 l 689 0 l 565 0 l 426 438 l 253 438 l 183 0 l 74 0 m 268 538 l 464 538 q 608 589 549 538 q 679 726 667 640 q 651 863 694 813 q 525 914 608 914 l 328 914 l 268 538 m 160 -333 l 321 -132 l 453 -132 l 275 -333 l 160 -333 z "},"S":{"ha":833,"x_min":67,"x_max":793,"o":"m 358 -14 q 140 60 213 -14 q 85 263 67 135 l 196 263 q 230 133 182 181 q 375 85 278 85 q 526 131 467 85 q 599 257 585 176 q 581 377 608 328 q 490 446 553 426 l 365 486 q 223 591 268 518 q 192 763 178 664 q 251 903 206 844 q 367 996 296 963 q 526 1029 438 1029 q 726 956 658 1029 q 775 758 793 882 l 664 758 q 637 883 678 838 q 510 929 596 929 q 370 888 425 929 q 304 772 315 847 q 322 656 294 706 q 410 585 350 606 l 536 543 q 678 437 633 513 q 708 260 724 361 q 648 116 696 178 q 526 20 600 54 q 358 -14 451 -14 z "},"Ś":{"ha":833,"x_min":67,"x_max":793,"o":"m 358 -14 q 140 60 213 -14 q 85 263 67 135 l 196 263 q 230 133 182 181 q 375 85 278 85 q 526 131 467 85 q 599 257 585 176 q 581 377 608 328 q 490 446 553 426 l 365 486 q 223 591 268 518 q 192 763 178 664 q 251 903 206 844 q 367 996 296 963 q 526 1029 438 1029 q 726 956 658 1029 q 775 758 793 882 l 664 758 q 637 883 678 838 q 510 929 596 929 q 370 888 425 929 q 304 772 315 847 q 322 656 294 706 q 410 585 350 606 l 536 543 q 678 437 633 513 q 708 260 724 361 q 648 116 696 178 q 526 20 600 54 q 358 -14 451 -14 m 457 1125 l 635 1319 l 763 1319 l 576 1125 l 457 1125 z "},"Š":{"ha":833,"x_min":67,"x_max":804,"o":"m 358 -14 q 140 60 213 -14 q 85 263 67 135 l 196 263 q 230 133 182 181 q 375 85 278 85 q 526 131 467 85 q 599 257 585 176 q 581 377 608 328 q 490 446 553 426 l 365 486 q 223 591 268 518 q 192 763 178 664 q 251 903 206 844 q 367 996 296 963 q 526 1029 438 1029 q 726 956 658 1029 q 775 758 793 882 l 664 758 q 637 883 678 838 q 510 929 596 929 q 370 888 425 929 q 304 772 315 847 q 322 656 294 706 q 410 585 350 606 l 536 543 q 678 437 633 513 q 708 260 724 361 q 648 116 696 178 q 526 20 600 54 q 358 -14 451 -14 m 481 1125 l 324 1319 l 440 1319 l 543 1200 l 681 1319 l 804 1319 l 588 1125 l 481 1125 z "},"Ş":{"ha":833,"x_min":67,"x_max":793,"o":"m 190 -279 l 201 -210 l 303 -210 q 356 -193 335 -210 q 381 -158 378 -176 q 348 -113 385 -132 q 240 -94 311 -94 l 310 36 l 383 36 l 339 -49 q 410 -65 374 -51 q 468 -104 446 -79 q 483 -165 490 -129 q 428 -246 478 -212 q 307 -279 379 -279 l 190 -279 m 358 -14 q 140 60 213 -14 q 85 263 67 135 l 196 263 q 230 133 182 181 q 375 85 278 85 q 526 131 467 85 q 599 257 585 176 q 581 377 608 328 q 490 446 553 426 l 365 486 q 223 591 268 518 q 192 763 178 664 q 251 903 206 844 q 367 996 296 963 q 526 1029 438 1029 q 726 956 658 1029 q 775 758 793 882 l 664 758 q 637 883 678 838 q 510 929 596 929 q 370 888 425 929 q 304 772 315 847 q 322 656 294 706 q 410 585 350 606 l 536 543 q 678 437 633 513 q 708 260 724 361 q 648 116 696 178 q 526 20 600 54 q 358 -14 451 -14 z "},"Ŝ":{"ha":833,"x_min":67,"x_max":793,"o":"m 358 -14 q 140 60 213 -14 q 85 263 67 135 l 196 263 q 230 133 182 181 q 375 85 278 85 q 526 131 467 85 q 599 257 585 176 q 581 377 608 328 q 490 446 553 426 l 365 486 q 223 591 268 518 q 192 763 178 664 q 251 903 206 844 q 367 996 296 963 q 526 1029 438 1029 q 726 956 658 1029 q 775 758 793 882 l 664 758 q 637 883 678 838 q 510 929 596 929 q 370 888 425 929 q 304 772 315 847 q 322 656 294 706 q 410 585 350 606 l 536 543 q 678 437 633 513 q 708 260 724 361 q 648 116 696 178 q 526 20 600 54 q 358 -14 451 -14 m 293 1125 l 510 1319 l 617 1319 l 774 1125 l 657 1125 l 556 1244 l 418 1125 l 293 1125 z "},"Ș":{"ha":833,"x_min":67,"x_max":793,"o":"m 358 -14 q 140 60 213 -14 q 85 263 67 135 l 196 263 q 230 133 182 181 q 375 85 278 85 q 526 131 467 85 q 599 257 585 176 q 581 377 608 328 q 490 446 553 426 l 365 486 q 223 591 268 518 q 192 763 178 664 q 251 903 206 844 q 367 996 296 963 q 526 1029 438 1029 q 726 956 658 1029 q 775 758 793 882 l 664 758 q 637 883 678 838 q 510 929 596 929 q 370 888 425 929 q 304 772 315 847 q 322 656 294 706 q 410 585 350 606 l 536 543 q 678 437 633 513 q 708 260 724 361 q 648 116 696 178 q 526 20 600 54 q 358 -14 451 -14 m 160 -333 l 321 -132 l 453 -132 l 275 -333 l 160 -333 z "},"ẞ":{"ha":833,"x_min":74,"x_max":831,"o":"m 74 0 l 190 735 q 249 882 203 819 q 365 979 294 944 q 521 1014 435 1014 l 831 1014 l 813 907 l 499 550 l 503 582 q 687 505 625 583 q 728 297 749 426 q 667 141 714 208 q 547 37 619 74 q 385 0 475 0 l 293 0 l 310 100 l 390 100 q 539 153 479 100 q 613 296 599 207 q 584 436 628 385 q 451 488 540 488 l 392 488 l 406 583 l 693 914 l 504 914 q 368 866 424 914 q 300 735 313 818 l 183 0 l 74 0 z "},"Ə":{"ha":833,"x_min":100,"x_max":781,"o":"m 353 -14 q 206 22 264 -14 q 124 122 149 57 q 113 274 100 188 l 156 547 l 618 547 l 649 740 q 626 880 663 831 q 503 929 589 929 q 365 878 418 929 q 296 736 311 828 l 186 736 q 244 892 200 826 q 359 992 289 957 q 518 1028 429 1028 q 717 951 654 1028 q 760 740 781 874 l 685 274 q 627 122 672 188 q 512 22 582 57 q 353 -14 442 -14 m 367 79 q 509 130 457 79 q 575 274 561 181 l 604 460 l 242 460 l 254 472 l 224 274 q 244 130 210 181 q 367 79 279 79 z "},"T":{"ha":833,"x_min":163,"x_max":856,"o":"m 301 0 l 446 914 l 163 914 l 178 1015 l 856 1015 l 839 914 l 556 914 l 411 0 l 301 0 z "},"Ŧ":{"ha":833,"x_min":161,"x_max":856,"o":"m 161 415 l 176 508 l 697 508 l 682 415 l 161 415 m 301 0 l 446 914 l 163 914 l 178 1015 l 856 1015 l 839 914 l 556 914 l 411 0 l 301 0 z "},"Ť":{"ha":833,"x_min":163,"x_max":856,"o":"m 301 0 l 446 914 l 163 914 l 178 1015 l 856 1015 l 839 914 l 556 914 l 411 0 l 301 0 m 481 1125 l 324 1319 l 440 1319 l 543 1200 l 681 1319 l 804 1319 l 588 1125 l 481 1125 z "},"Ţ":{"ha":833,"x_min":163,"x_max":856,"o":"m 238 -279 l 249 -210 l 350 -210 q 402 -193 381 -210 q 426 -158 424 -176 q 394 -113 432 -132 q 286 -94 357 -94 l 356 36 l 411 0 l 386 -49 q 457 -65 421 -51 q 515 -104 493 -79 q 531 -165 536 -129 q 474 -246 524 -212 q 354 -279 425 -279 l 238 -279 m 301 0 l 446 914 l 163 914 l 178 1015 l 856 1015 l 839 914 l 556 914 l 411 0 l 301 0 z "},"Ț":{"ha":833,"x_min":111,"x_max":856,"o":"m 301 0 l 446 914 l 163 914 l 178 1015 l 856 1015 l 839 914 l 556 914 l 411 0 l 301 0 m 111 -333 l 272 -132 l 404 -132 l 226 -333 l 111 -333 z "},"U":{"ha":833,"x_min":93,"x_max":801,"o":"m 353 -14 q 155 64 217 -14 q 114 274 93 142 l 232 1014 l 342 1014 l 225 274 q 246 135 210 186 q 369 85 282 85 q 508 135 456 85 q 574 274 560 186 l 692 1014 l 801 1014 l 685 274 q 626 121 671 186 q 513 21 582 56 q 353 -14 444 -14 z "},"Ú":{"ha":833,"x_min":93,"x_max":801,"o":"m 353 -14 q 155 64 217 -14 q 114 274 93 142 l 232 1014 l 342 1014 l 225 274 q 246 135 210 186 q 369 85 282 85 q 508 135 456 85 q 574 274 560 186 l 692 1014 l 801 1014 l 685 274 q 626 121 671 186 q 513 21 582 56 q 353 -14 444 -14 m 457 1125 l 635 1319 l 763 1319 l 576 1125 l 457 1125 z "},"Ŭ":{"ha":833,"x_min":93,"x_max":801,"o":"m 353 -14 q 155 64 217 -14 q 114 274 93 142 l 232 1014 l 342 1014 l 225 274 q 246 135 210 186 q 369 85 282 85 q 508 135 456 85 q 574 274 560 186 l 692 1014 l 801 1014 l 685 274 q 626 121 671 186 q 513 21 582 56 q 353 -14 444 -14 m 532 1119 q 384 1174 435 1119 q 347 1319 333 1229 l 435 1319 q 456 1228 426 1263 q 542 1193 485 1193 q 642 1228 601 1193 q 690 1319 682 1263 l 781 1319 q 699 1174 767 1229 q 532 1119 631 1119 z "},"Û":{"ha":833,"x_min":93,"x_max":801,"o":"m 353 -14 q 155 64 217 -14 q 114 274 93 142 l 232 1014 l 342 1014 l 225 274 q 246 135 210 186 q 369 85 282 85 q 508 135 456 85 q 574 274 560 186 l 692 1014 l 801 1014 l 685 274 q 626 121 671 186 q 513 21 582 56 q 353 -14 444 -14 m 293 1125 l 510 1319 l 617 1319 l 774 1125 l 657 1125 l 556 1244 l 418 1125 l 293 1125 z "},"Ü":{"ha":833,"x_min":93,"x_max":801,"o":"m 353 -14 q 155 64 217 -14 q 114 274 93 142 l 232 1014 l 342 1014 l 225 274 q 246 135 210 186 q 369 85 282 85 q 508 135 456 85 q 574 274 560 186 l 692 1014 l 801 1014 l 685 274 q 626 121 671 186 q 513 21 582 56 q 353 -14 444 -14 m 690 1138 q 632 1160 651 1138 q 618 1222 613 1183 q 652 1285 625 1263 q 718 1308 679 1308 q 775 1285 756 1308 q 788 1222 794 1263 q 755 1160 782 1183 q 690 1138 728 1138 m 385 1138 q 326 1160 346 1138 q 313 1222 307 1183 q 347 1285 319 1263 q 411 1308 374 1308 q 469 1285 450 1308 q 482 1222 489 1263 q 449 1160 476 1183 q 385 1138 422 1138 z "},"Ụ":{"ha":833,"x_min":93,"x_max":801,"o":"m 353 -14 q 155 64 217 -14 q 114 274 93 142 l 232 1014 l 342 1014 l 225 274 q 246 135 210 186 q 369 85 282 85 q 508 135 456 85 q 574 274 560 186 l 692 1014 l 801 1014 l 685 274 q 626 121 671 186 q 513 21 582 56 q 353 -14 444 -14 m 310 -293 q 244 -270 265 -293 q 228 -208 222 -247 q 264 -145 235 -168 q 336 -122 293 -122 q 401 -145 381 -122 q 417 -208 422 -168 q 382 -270 411 -247 q 310 -293 353 -293 z "},"Ù":{"ha":833,"x_min":93,"x_max":801,"o":"m 353 -14 q 155 64 217 -14 q 114 274 93 142 l 232 1014 l 342 1014 l 225 274 q 246 135 210 186 q 369 85 282 85 q 508 135 456 85 q 574 274 560 186 l 692 1014 l 801 1014 l 685 274 q 626 121 671 186 q 513 21 582 56 q 353 -14 444 -14 m 497 1125 l 369 1319 l 486 1319 l 607 1125 l 497 1125 z "},"Ủ":{"ha":833,"x_min":93,"x_max":801,"o":"m 353 -14 q 155 64 217 -14 q 114 274 93 142 l 232 1014 l 342 1014 l 225 274 q 246 135 210 186 q 369 85 282 85 q 508 135 456 85 q 574 274 560 186 l 692 1014 l 801 1014 l 685 274 q 626 121 671 186 q 513 21 582 56 q 353 -14 444 -14 m 471 1111 l 557 1203 q 577 1229 569 1217 q 586 1250 585 1242 q 549 1281 590 1281 l 436 1281 l 450 1360 l 589 1360 q 669 1334 642 1360 q 689 1263 696 1308 q 676 1222 686 1242 q 653 1188 667 1203 l 583 1111 l 471 1111 z "},"Ư":{"ha":833,"x_min":93,"x_max":957,"o":"m 694 935 l 707 1014 l 790 1014 q 830 1028 814 1014 q 850 1068 846 1043 l 865 1167 l 957 1167 l 940 1063 q 888 970 931 1006 q 782 935 844 935 l 694 935 m 353 -14 q 155 64 217 -14 q 114 274 93 142 l 232 1014 l 342 1014 l 225 274 q 246 135 210 186 q 369 85 282 85 q 508 135 456 85 q 574 274 560 186 l 692 1014 l 801 1014 l 685 274 q 626 121 671 186 q 513 21 582 56 q 353 -14 444 -14 z "},"Ứ":{"ha":833,"x_min":93,"x_max":957,"o":"m 694 935 l 707 1014 l 790 1014 q 830 1028 814 1014 q 850 1068 846 1043 l 865 1167 l 957 1167 l 940 1063 q 888 970 931 1006 q 782 935 844 935 l 694 935 m 353 -14 q 155 64 217 -14 q 114 274 93 142 l 232 1014 l 342 1014 l 225 274 q 246 135 210 186 q 369 85 282 85 q 508 135 456 85 q 574 274 560 186 l 692 1014 l 801 1014 l 685 274 q 626 121 671 186 q 513 21 582 56 q 353 -14 444 -14 m 453 1125 l 631 1319 l 758 1319 l 572 1125 l 453 1125 z "},"Ự":{"ha":833,"x_min":93,"x_max":957,"o":"m 324 -293 q 258 -270 279 -293 q 242 -208 236 -247 q 278 -145 249 -168 q 350 -122 307 -122 q 415 -145 394 -122 q 431 -208 436 -168 q 396 -270 425 -247 q 324 -293 367 -293 m 694 935 l 707 1014 l 790 1014 q 830 1028 814 1014 q 850 1068 846 1043 l 865 1167 l 957 1167 l 940 1063 q 888 970 931 1006 q 782 935 844 935 l 694 935 m 353 -14 q 155 64 217 -14 q 114 274 93 142 l 232 1014 l 342 1014 l 225 274 q 246 135 210 186 q 369 85 282 85 q 508 135 456 85 q 574 274 560 186 l 692 1014 l 801 1014 l 685 274 q 626 121 671 186 q 513 21 582 56 q 353 -14 444 -14 z "},"Ừ":{"ha":833,"x_min":93,"x_max":957,"o":"m 694 935 l 707 1014 l 790 1014 q 830 1028 814 1014 q 850 1068 846 1043 l 865 1167 l 957 1167 l 940 1063 q 888 970 931 1006 q 782 935 844 935 l 694 935 m 353 -14 q 155 64 217 -14 q 114 274 93 142 l 232 1014 l 342 1014 l 225 274 q 246 135 210 186 q 369 85 282 85 q 508 135 456 85 q 574 274 560 186 l 692 1014 l 801 1014 l 685 274 q 626 121 671 186 q 513 21 582 56 q 353 -14 444 -14 m 493 1125 l 365 1319 l 482 1319 l 603 1125 l 493 1125 z "},"Ử":{"ha":833,"x_min":93,"x_max":957,"o":"m 694 935 l 707 1014 l 790 1014 q 830 1028 814 1014 q 850 1068 846 1043 l 865 1167 l 957 1167 l 940 1063 q 888 970 931 1006 q 782 935 844 935 l 694 935 m 353 -14 q 155 64 217 -14 q 114 274 93 142 l 232 1014 l 342 1014 l 225 274 q 246 135 210 186 q 369 85 282 85 q 508 135 456 85 q 574 274 560 186 l 692 1014 l 801 1014 l 685 274 q 626 121 671 186 q 513 21 582 56 q 353 -14 444 -14 m 471 1111 l 557 1203 q 577 1229 569 1217 q 586 1250 585 1242 q 549 1281 590 1281 l 436 1281 l 450 1360 l 589 1360 q 669 1334 642 1360 q 689 1263 696 1308 q 676 1222 686 1242 q 653 1188 667 1203 l 583 1111 l 471 1111 z "},"Ữ":{"ha":833,"x_min":93,"x_max":957,"o":"m 694 935 l 707 1014 l 790 1014 q 830 1028 814 1014 q 850 1068 846 1043 l 865 1167 l 957 1167 l 940 1063 q 888 970 931 1006 q 782 935 844 935 l 694 935 m 353 -14 q 155 64 217 -14 q 114 274 93 142 l 232 1014 l 342 1014 l 225 274 q 246 135 210 186 q 369 85 282 85 q 508 135 456 85 q 574 274 560 186 l 692 1014 l 801 1014 l 685 274 q 626 121 671 186 q 513 21 582 56 q 353 -14 444 -14 m 629 1132 q 565 1148 589 1132 q 526 1185 542 1164 q 494 1222 510 1206 q 454 1238 479 1238 q 417 1224 433 1238 q 397 1182 401 1210 l 390 1139 l 310 1139 l 317 1182 q 366 1278 326 1244 q 463 1313 406 1313 q 527 1297 503 1313 q 567 1260 551 1281 q 597 1223 582 1239 q 638 1207 613 1207 q 673 1221 658 1207 q 692 1263 688 1235 l 700 1306 l 781 1306 l 774 1263 q 725 1166 764 1200 q 629 1132 686 1132 z "},"Ű":{"ha":833,"x_min":93,"x_max":874,"o":"m 353 -14 q 155 64 217 -14 q 114 274 93 142 l 232 1014 l 342 1014 l 225 274 q 246 135 210 186 q 369 85 282 85 q 508 135 456 85 q 574 274 560 186 l 692 1014 l 801 1014 l 685 274 q 626 121 671 186 q 513 21 582 56 q 353 -14 444 -14 m 572 1125 l 754 1319 l 874 1319 l 685 1125 l 572 1125 m 328 1125 l 510 1319 l 629 1319 l 440 1125 l 328 1125 z "},"Ū":{"ha":833,"x_min":93,"x_max":801,"o":"m 353 -14 q 155 64 217 -14 q 114 274 93 142 l 232 1014 l 342 1014 l 225 274 q 246 135 210 186 q 369 85 282 85 q 508 135 456 85 q 574 274 560 186 l 692 1014 l 801 1014 l 685 274 q 626 121 671 186 q 513 21 582 56 q 353 -14 444 -14 m 326 1172 l 342 1264 l 771 1264 l 756 1172 l 326 1172 z "},"Ų":{"ha":833,"x_min":101,"x_max":801,"o":"m 418 -279 q 308 -244 346 -279 q 281 -154 271 -210 q 297 -110 283 -133 q 331 -61 310 -86 q 381 -12 353 -36 q 367 -13 375 -12 q 353 -14 358 -14 q 207 21 265 -14 q 125 120 149 56 q 114 274 101 185 l 232 1014 l 342 1014 l 225 274 q 247 134 210 183 q 368 85 283 85 q 507 134 454 85 q 574 274 560 183 l 692 1014 l 801 1014 l 685 274 q 631 128 671 190 q 529 29 592 65 l 492 1 q 417 -70 442 -36 q 388 -133 392 -104 q 399 -183 382 -164 q 451 -203 417 -203 l 536 -203 l 524 -279 l 418 -279 z "},"Ů":{"ha":833,"x_min":93,"x_max":801,"o":"m 353 -14 q 155 64 217 -14 q 114 274 93 142 l 232 1014 l 342 1014 l 225 274 q 246 135 210 186 q 369 85 282 85 q 508 135 456 85 q 574 274 560 186 l 692 1014 l 801 1014 l 685 274 q 626 121 671 186 q 513 21 582 56 q 353 -14 444 -14 m 525 1069 q 415 1112 453 1069 q 388 1222 378 1154 q 449 1333 399 1290 q 574 1375 500 1375 q 683 1333 646 1375 q 710 1222 721 1290 q 649 1112 700 1154 q 525 1069 597 1069 m 536 1136 q 601 1160 574 1136 q 633 1222 628 1183 q 621 1285 640 1261 q 563 1310 601 1310 q 498 1285 525 1310 q 464 1222 471 1261 q 478 1160 458 1183 q 536 1136 497 1136 z "},"Ũ":{"ha":833,"x_min":93,"x_max":801,"o":"m 353 -14 q 155 64 217 -14 q 114 274 93 142 l 232 1014 l 342 1014 l 225 274 q 246 135 210 186 q 369 85 282 85 q 508 135 456 85 q 574 274 560 186 l 692 1014 l 801 1014 l 685 274 q 626 121 671 186 q 513 21 582 56 q 353 -14 444 -14 m 633 1132 q 569 1148 593 1132 q 530 1185 546 1164 q 499 1222 514 1206 q 458 1238 483 1238 q 422 1224 438 1238 q 401 1182 406 1210 l 394 1139 l 314 1139 l 321 1182 q 370 1278 331 1244 q 467 1313 410 1313 q 531 1297 507 1313 q 571 1260 556 1281 q 601 1223 586 1239 q 642 1207 617 1207 q 677 1221 663 1207 q 696 1263 692 1235 l 704 1306 l 785 1306 l 778 1263 q 729 1166 768 1200 q 633 1132 690 1132 z "},"V":{"ha":833,"x_min":176,"x_max":857,"o":"m 281 0 l 176 1014 l 288 1014 l 356 306 q 366 176 363 236 q 369 86 369 117 q 401 176 379 117 q 450 306 422 236 l 743 1014 l 857 1014 l 429 0 l 281 0 z "},"W":{"ha":833,"x_min":99,"x_max":893,"o":"m 99 0 l 140 1014 l 242 1014 l 204 264 q 200 201 203 235 q 195 134 197 167 q 190 79 193 101 q 206 134 197 101 q 224 201 214 167 q 242 264 233 235 l 458 1014 l 579 1014 l 550 264 q 547 201 549 235 q 545 134 546 167 q 543 79 544 101 q 558 134 550 101 q 574 201 565 167 q 590 264 583 235 l 792 1014 l 893 1014 l 611 0 l 469 0 l 499 757 q 501 822 500 789 q 504 885 503 856 q 507 935 506 915 q 494 886 501 915 q 476 823 486 857 q 457 757 467 789 l 239 0 l 99 0 z "},"Ẃ":{"ha":833,"x_min":99,"x_max":893,"o":"m 99 0 l 140 1014 l 242 1014 l 204 264 q 200 201 203 235 q 195 134 197 167 q 190 79 193 101 q 206 134 197 101 q 224 201 214 167 q 242 264 233 235 l 458 1014 l 579 1014 l 550 264 q 547 201 549 235 q 545 134 546 167 q 543 79 544 101 q 558 134 550 101 q 574 201 565 167 q 590 264 583 235 l 792 1014 l 893 1014 l 611 0 l 469 0 l 499 757 q 501 822 500 789 q 504 885 503 856 q 507 935 506 915 q 494 886 501 915 q 476 823 486 857 q 457 757 467 789 l 239 0 l 99 0 m 457 1125 l 635 1319 l 763 1319 l 576 1125 l 457 1125 z "},"Ŵ":{"ha":833,"x_min":99,"x_max":893,"o":"m 99 0 l 140 1014 l 242 1014 l 204 264 q 200 201 203 235 q 195 134 197 167 q 190 79 193 101 q 206 134 197 101 q 224 201 214 167 q 242 264 233 235 l 458 1014 l 579 1014 l 550 264 q 547 201 549 235 q 545 134 546 167 q 543 79 544 101 q 558 134 550 101 q 574 201 565 167 q 590 264 583 235 l 792 1014 l 893 1014 l 611 0 l 469 0 l 499 757 q 501 822 500 789 q 504 885 503 856 q 507 935 506 915 q 494 886 501 915 q 476 823 486 857 q 457 757 467 789 l 239 0 l 99 0 m 293 1125 l 510 1319 l 617 1319 l 774 1125 l 657 1125 l 556 1244 l 418 1125 l 293 1125 z "},"Ẅ":{"ha":833,"x_min":99,"x_max":893,"o":"m 99 0 l 140 1014 l 242 1014 l 204 264 q 200 201 203 235 q 195 134 197 167 q 190 79 193 101 q 206 134 197 101 q 224 201 214 167 q 242 264 233 235 l 458 1014 l 579 1014 l 550 264 q 547 201 549 235 q 545 134 546 167 q 543 79 544 101 q 558 134 550 101 q 574 201 565 167 q 590 264 583 235 l 792 1014 l 893 1014 l 611 0 l 469 0 l 499 757 q 501 822 500 789 q 504 885 503 856 q 507 935 506 915 q 494 886 501 915 q 476 823 486 857 q 457 757 467 789 l 239 0 l 99 0 m 690 1138 q 632 1160 651 1138 q 618 1222 613 1183 q 652 1285 625 1263 q 718 1308 679 1308 q 775 1285 756 1308 q 788 1222 794 1263 q 755 1160 782 1183 q 690 1138 728 1138 m 385 1138 q 326 1160 346 1138 q 313 1222 307 1183 q 347 1285 319 1263 q 411 1308 374 1308 q 469 1285 450 1308 q 482 1222 489 1263 q 449 1160 476 1183 q 385 1138 422 1138 z "},"Ẁ":{"ha":833,"x_min":99,"x_max":893,"o":"m 99 0 l 140 1014 l 242 1014 l 204 264 q 200 201 203 235 q 195 134 197 167 q 190 79 193 101 q 206 134 197 101 q 224 201 214 167 q 242 264 233 235 l 458 1014 l 579 1014 l 550 264 q 547 201 549 235 q 545 134 546 167 q 543 79 544 101 q 558 134 550 101 q 574 201 565 167 q 590 264 583 235 l 792 1014 l 893 1014 l 611 0 l 469 0 l 499 757 q 501 822 500 789 q 504 885 503 856 q 507 935 506 915 q 494 886 501 915 q 476 823 486 857 q 457 757 467 789 l 239 0 l 99 0 m 497 1125 l 369 1319 l 486 1319 l 607 1125 l 497 1125 z "},"X":{"ha":833,"x_min":-1,"x_max":856,"o":"m -1 0 l 375 519 l 178 1014 l 299 1014 l 411 711 q 432 658 419 688 q 451 610 444 628 q 483 658 464 628 q 519 711 503 688 l 731 1014 l 856 1014 l 501 522 l 713 0 l 592 0 l 465 329 q 444 383 456 353 q 426 433 432 413 q 394 383 414 413 q 358 331 374 354 l 126 0 l -1 0 z "},"Y":{"ha":833,"x_min":154,"x_max":879,"o":"m 300 0 l 361 382 l 154 1014 l 265 1014 l 406 586 q 424 528 417 553 q 432 490 431 503 q 453 528 439 503 q 489 586 467 553 l 763 1014 l 879 1014 l 471 382 l 411 0 l 300 0 z "},"Ý":{"ha":833,"x_min":154,"x_max":879,"o":"m 300 0 l 361 382 l 154 1014 l 265 1014 l 406 586 q 424 528 417 553 q 432 490 431 503 q 453 528 439 503 q 489 586 467 553 l 763 1014 l 879 1014 l 471 382 l 411 0 l 300 0 m 457 1125 l 635 1319 l 763 1319 l 576 1125 l 457 1125 z "},"Ŷ":{"ha":833,"x_min":154,"x_max":879,"o":"m 300 0 l 361 382 l 154 1014 l 265 1014 l 406 586 q 424 528 417 553 q 432 490 431 503 q 453 528 439 503 q 489 586 467 553 l 763 1014 l 879 1014 l 471 382 l 411 0 l 300 0 m 293 1125 l 510 1319 l 617 1319 l 774 1125 l 657 1125 l 556 1244 l 418 1125 l 293 1125 z "},"Ÿ":{"ha":833,"x_min":154,"x_max":879,"o":"m 300 0 l 361 382 l 154 1014 l 265 1014 l 406 586 q 424 528 417 553 q 432 490 431 503 q 453 528 439 503 q 489 586 467 553 l 763 1014 l 879 1014 l 471 382 l 411 0 l 300 0 m 690 1138 q 632 1160 651 1138 q 618 1222 613 1183 q 652 1285 625 1263 q 718 1308 679 1308 q 775 1285 756 1308 q 788 1222 794 1263 q 755 1160 782 1183 q 690 1138 728 1138 m 385 1138 q 326 1160 346 1138 q 313 1222 307 1183 q 347 1285 319 1263 q 411 1308 374 1308 q 469 1285 450 1308 q 482 1222 489 1263 q 449 1160 476 1183 q 385 1138 422 1138 z "},"Ỵ":{"ha":833,"x_min":154,"x_max":879,"o":"m 300 0 l 361 382 l 154 1014 l 265 1014 l 406 586 q 424 528 417 553 q 432 490 431 503 q 453 528 439 503 q 489 586 467 553 l 763 1014 l 879 1014 l 471 382 l 411 0 l 300 0 m 324 -293 q 258 -270 279 -293 q 242 -208 236 -247 q 278 -145 249 -168 q 350 -122 307 -122 q 415 -145 394 -122 q 431 -208 436 -168 q 396 -270 425 -247 q 324 -293 367 -293 z "},"Ỳ":{"ha":833,"x_min":154,"x_max":879,"o":"m 300 0 l 361 382 l 154 1014 l 265 1014 l 406 586 q 424 528 417 553 q 432 490 431 503 q 453 528 439 503 q 489 586 467 553 l 763 1014 l 879 1014 l 471 382 l 411 0 l 300 0 m 497 1125 l 369 1319 l 486 1319 l 607 1125 l 497 1125 z "},"Ỷ":{"ha":833,"x_min":154,"x_max":879,"o":"m 300 0 l 361 382 l 154 1014 l 265 1014 l 406 586 q 424 528 417 553 q 432 490 431 503 q 453 528 439 503 q 489 586 467 553 l 763 1014 l 879 1014 l 471 382 l 411 0 l 300 0 m 471 1111 l 557 1203 q 577 1229 569 1217 q 586 1250 585 1242 q 549 1281 590 1281 l 436 1281 l 450 1360 l 589 1360 q 669 1334 642 1360 q 689 1263 696 1308 q 676 1222 686 1242 q 653 1188 667 1203 l 583 1111 l 471 1111 z "},"Ȳ":{"ha":833,"x_min":154,"x_max":879,"o":"m 300 0 l 361 382 l 154 1014 l 265 1014 l 406 586 q 424 528 417 553 q 432 490 431 503 q 453 528 439 503 q 489 586 467 553 l 763 1014 l 879 1014 l 471 382 l 411 0 l 300 0 m 326 1172 l 342 1264 l 771 1264 l 756 1172 l 326 1172 z "},"Ỹ":{"ha":833,"x_min":154,"x_max":879,"o":"m 300 0 l 361 382 l 154 1014 l 265 1014 l 406 586 q 424 528 417 553 q 432 490 431 503 q 453 528 439 503 q 489 586 467 553 l 763 1014 l 879 1014 l 471 382 l 411 0 l 300 0 m 633 1132 q 569 1148 593 1132 q 530 1185 546 1164 q 499 1222 514 1206 q 458 1238 483 1238 q 422 1224 438 1238 q 401 1182 406 1210 l 394 1139 l 314 1139 l 321 1182 q 370 1278 331 1244 q 467 1313 410 1313 q 531 1297 507 1313 q 571 1260 556 1281 q 601 1223 586 1239 q 642 1207 617 1207 q 677 1221 663 1207 q 696 1263 692 1235 l 704 1306 l 785 1306 l 778 1263 q 729 1166 768 1200 q 633 1132 690 1132 z "},"Z":{"ha":833,"x_min":60,"x_max":797,"o":"m 60 0 l 76 110 l 667 914 l 211 914 l 226 1014 l 797 1014 l 779 901 l 190 100 l 668 100 l 651 0 l 60 0 z "},"Ź":{"ha":833,"x_min":60,"x_max":797,"o":"m 60 0 l 76 110 l 667 914 l 211 914 l 226 1014 l 797 1014 l 779 901 l 190 100 l 668 100 l 651 0 l 60 0 m 457 1125 l 635 1319 l 763 1319 l 576 1125 l 457 1125 z "},"Ž":{"ha":833,"x_min":60,"x_max":804,"o":"m 60 0 l 76 110 l 667 914 l 211 914 l 226 1014 l 797 1014 l 779 901 l 190 100 l 668 100 l 651 0 l 60 0 m 481 1125 l 324 1319 l 440 1319 l 543 1200 l 681 1319 l 804 1319 l 588 1125 l 481 1125 z "},"Ż":{"ha":833,"x_min":60,"x_max":797,"o":"m 60 0 l 76 110 l 667 914 l 211 914 l 226 1014 l 797 1014 l 779 901 l 190 100 l 668 100 l 651 0 l 60 0 m 536 1136 q 470 1160 492 1136 q 454 1222 449 1183 q 490 1285 461 1261 q 563 1308 519 1308 q 628 1285 607 1308 q 643 1222 650 1261 q 608 1160 638 1183 q 536 1136 579 1136 z "},"a":{"ha":833,"x_min":90,"x_max":760,"o":"m 317 -14 q 147 63 203 -14 q 111 268 90 139 l 147 494 q 202 645 161 582 q 305 743 243 708 q 443 778 367 778 q 589 725 539 778 q 625 583 639 672 l 603 629 l 629 629 l 650 764 l 760 764 l 639 0 l 529 0 l 550 135 l 522 135 l 561 181 q 480 38 547 90 q 317 -14 413 -14 m 367 82 q 503 133 449 82 q 572 274 558 183 l 606 490 q 582 631 621 581 q 461 682 543 682 q 324 632 378 682 q 256 490 271 582 l 222 274 q 246 132 208 182 q 367 82 283 82 z "},"á":{"ha":833,"x_min":90,"x_max":760,"o":"m 317 -14 q 147 63 203 -14 q 111 268 90 139 l 147 494 q 202 645 161 582 q 305 743 243 708 q 443 778 367 778 q 589 725 539 778 q 625 583 639 672 l 603 629 l 629 629 l 650 764 l 760 764 l 639 0 l 529 0 l 550 135 l 522 135 l 561 181 q 480 38 547 90 q 317 -14 413 -14 m 367 82 q 503 133 449 82 q 572 274 558 183 l 606 490 q 582 631 621 581 q 461 682 543 682 q 324 632 378 682 q 256 490 271 582 l 222 274 q 246 132 208 182 q 367 82 283 82 m 432 896 l 610 1090 l 738 1090 l 551 896 l 432 896 z "},"ă":{"ha":833,"x_min":90,"x_max":760,"o":"m 317 -14 q 147 63 203 -14 q 111 268 90 139 l 147 494 q 202 645 161 582 q 305 743 243 708 q 443 778 367 778 q 589 725 539 778 q 625 583 639 672 l 603 629 l 629 629 l 650 764 l 760 764 l 639 0 l 529 0 l 550 135 l 522 135 l 561 181 q 480 38 547 90 q 317 -14 413 -14 m 367 82 q 503 133 449 82 q 572 274 558 183 l 606 490 q 582 631 621 581 q 461 682 543 682 q 324 632 378 682 q 256 490 271 582 l 222 274 q 246 132 208 182 q 367 82 283 82 m 503 890 q 355 945 406 890 q 318 1090 304 1000 l 406 1090 q 426 999 397 1033 q 513 964 456 964 q 613 999 572 964 q 661 1090 653 1033 l 751 1090 q 669 945 738 1000 q 503 890 601 890 z "},"ắ":{"ha":833,"x_min":90,"x_max":760,"o":"m 317 -14 q 147 63 203 -14 q 111 268 90 139 l 147 494 q 202 645 161 582 q 305 743 243 708 q 443 778 367 778 q 589 725 539 778 q 625 583 639 672 l 603 629 l 629 629 l 650 764 l 760 764 l 639 0 l 529 0 l 550 135 l 522 135 l 561 181 q 480 38 547 90 q 317 -14 413 -14 m 367 82 q 503 133 449 82 q 572 274 558 183 l 606 490 q 582 631 621 581 q 461 682 543 682 q 324 632 378 682 q 256 490 271 582 l 222 274 q 246 132 208 182 q 367 82 283 82 m 496 890 q 340 940 396 890 q 296 1069 283 990 l 383 1069 q 409 994 375 1022 q 507 967 443 967 q 615 994 572 967 q 664 1069 657 1022 l 754 1069 q 710 976 746 1017 q 619 913 675 936 q 496 890 564 890 m 440 1056 l 628 1236 l 753 1236 l 557 1056 l 440 1056 z "},"ặ":{"ha":833,"x_min":90,"x_max":760,"o":"m 503 890 q 355 945 406 890 q 318 1090 304 1000 l 406 1090 q 426 999 397 1033 q 513 964 456 964 q 613 999 572 964 q 661 1090 653 1033 l 751 1090 q 669 945 738 1000 q 503 890 601 890 m 317 -14 q 147 63 203 -14 q 111 268 90 139 l 147 494 q 202 645 161 582 q 305 743 243 708 q 443 778 367 778 q 589 725 539 778 q 625 583 639 672 l 603 629 l 629 629 l 650 764 l 760 764 l 639 0 l 529 0 l 550 135 l 522 135 l 561 181 q 480 38 547 90 q 317 -14 413 -14 m 367 82 q 503 133 449 82 q 572 274 558 183 l 606 490 q 582 631 621 581 q 461 682 543 682 q 324 632 378 682 q 256 490 271 582 l 222 274 q 246 132 208 182 q 367 82 283 82 m 317 -293 q 251 -270 272 -293 q 235 -208 229 -247 q 271 -145 242 -168 q 343 -122 300 -122 q 408 -145 388 -122 q 424 -208 429 -168 q 389 -270 418 -247 q 317 -293 360 -293 z "},"ằ":{"ha":833,"x_min":90,"x_max":760,"o":"m 317 -14 q 147 63 203 -14 q 111 268 90 139 l 147 494 q 202 645 161 582 q 305 743 243 708 q 443 778 367 778 q 589 725 539 778 q 625 583 639 672 l 603 629 l 629 629 l 650 764 l 760 764 l 639 0 l 529 0 l 550 135 l 522 135 l 561 181 q 480 38 547 90 q 317 -14 413 -14 m 367 82 q 503 133 449 82 q 572 274 558 183 l 606 490 q 582 631 621 581 q 461 682 543 682 q 324 632 378 682 q 256 490 271 582 l 222 274 q 246 132 208 182 q 367 82 283 82 m 496 890 q 340 940 396 890 q 296 1069 283 990 l 383 1069 q 409 995 375 1022 q 507 968 443 968 q 615 995 572 968 q 664 1069 657 1022 l 754 1069 q 710 976 746 1017 q 619 913 675 936 q 496 890 564 890 m 493 1056 l 356 1236 l 472 1236 l 600 1056 l 493 1056 z "},"ẳ":{"ha":833,"x_min":90,"x_max":760,"o":"m 317 -14 q 147 63 203 -14 q 111 268 90 139 l 147 494 q 202 645 161 582 q 305 743 243 708 q 443 778 367 778 q 589 725 539 778 q 625 583 639 672 l 603 629 l 629 629 l 650 764 l 760 764 l 639 0 l 529 0 l 550 135 l 522 135 l 561 181 q 480 38 547 90 q 317 -14 413 -14 m 367 82 q 503 133 449 82 q 572 274 558 183 l 606 490 q 582 631 621 581 q 461 682 543 682 q 324 632 378 682 q 256 490 271 582 l 222 274 q 246 132 208 182 q 367 82 283 82 m 496 890 q 340 940 396 890 q 296 1069 283 990 l 383 1069 q 410 995 376 1022 q 508 968 444 968 q 616 995 574 968 q 665 1069 658 1022 l 754 1069 q 710 976 746 1017 q 619 913 675 936 q 496 890 564 890 m 453 1056 l 533 1143 q 554 1182 553 1164 q 521 1217 560 1217 l 443 1217 l 454 1290 l 549 1290 q 634 1265 604 1290 q 657 1197 664 1239 q 644 1160 654 1179 q 619 1125 635 1142 l 558 1056 l 453 1056 z "},"ẵ":{"ha":833,"x_min":90,"x_max":775,"o":"m 317 -14 q 147 63 203 -14 q 111 268 90 139 l 147 494 q 202 645 161 582 q 305 743 243 708 q 443 778 367 778 q 589 725 539 778 q 625 583 639 672 l 603 629 l 629 629 l 650 764 l 760 764 l 639 0 l 529 0 l 550 135 l 522 135 l 561 181 q 480 38 547 90 q 317 -14 413 -14 m 367 82 q 503 133 449 82 q 572 274 558 183 l 606 490 q 582 631 621 581 q 461 682 543 682 q 324 632 378 682 q 256 490 271 582 l 222 274 q 246 132 208 182 q 367 82 283 82 m 497 896 q 347 945 399 896 q 307 1075 294 994 l 389 1075 q 413 997 381 1026 q 507 968 444 968 q 611 997 569 968 q 661 1075 653 1026 l 744 1075 q 702 981 736 1021 q 615 918 668 940 q 497 896 563 896 m 628 1129 q 565 1142 588 1129 q 529 1174 543 1156 q 500 1206 515 1192 q 458 1219 485 1219 q 406 1174 414 1219 l 400 1139 l 319 1139 l 324 1168 q 372 1256 332 1224 q 468 1288 411 1288 q 531 1274 508 1288 q 567 1243 554 1261 q 596 1211 581 1225 q 638 1197 611 1197 q 672 1210 658 1197 q 689 1243 685 1222 l 694 1278 l 775 1278 l 771 1249 q 724 1161 763 1193 q 628 1129 685 1129 z "},"ǎ":{"ha":833,"x_min":90,"x_max":776,"o":"m 317 -14 q 147 63 203 -14 q 111 268 90 139 l 147 494 q 202 645 161 582 q 305 743 243 708 q 443 778 367 778 q 589 725 539 778 q 625 583 639 672 l 603 629 l 629 629 l 650 764 l 760 764 l 639 0 l 529 0 l 550 135 l 522 135 l 561 181 q 480 38 547 90 q 317 -14 413 -14 m 367 82 q 503 133 449 82 q 572 274 558 183 l 606 490 q 582 631 621 581 q 461 682 543 682 q 324 632 378 682 q 256 490 271 582 l 222 274 q 246 132 208 182 q 367 82 283 82 m 453 896 l 296 1090 l 413 1090 l 515 971 l 653 1090 l 776 1090 l 560 896 l 453 896 z "},"â":{"ha":833,"x_min":90,"x_max":760,"o":"m 317 -14 q 147 63 203 -14 q 111 268 90 139 l 147 494 q 202 645 161 582 q 305 743 243 708 q 443 778 367 778 q 589 725 539 778 q 625 583 639 672 l 603 629 l 629 629 l 650 764 l 760 764 l 639 0 l 529 0 l 550 135 l 522 135 l 561 181 q 480 38 547 90 q 317 -14 413 -14 m 367 82 q 503 133 449 82 q 572 274 558 183 l 606 490 q 582 631 621 581 q 461 682 543 682 q 324 632 378 682 q 256 490 271 582 l 222 274 q 246 132 208 182 q 367 82 283 82 m 264 896 l 481 1090 l 588 1090 l 744 896 l 628 896 l 526 1015 l 389 896 l 264 896 z "},"ấ":{"ha":833,"x_min":90,"x_max":989,"o":"m 317 -14 q 147 63 203 -14 q 111 268 90 139 l 147 494 q 202 645 161 582 q 305 743 243 708 q 443 778 367 778 q 589 725 539 778 q 625 583 639 672 l 603 629 l 629 629 l 650 764 l 760 764 l 639 0 l 529 0 l 550 135 l 522 135 l 561 181 q 480 38 547 90 q 317 -14 413 -14 m 367 82 q 503 133 449 82 q 572 274 558 183 l 606 490 q 582 631 621 581 q 461 682 543 682 q 324 632 378 682 q 256 490 271 582 l 222 274 q 246 132 208 182 q 367 82 283 82 m 669 1056 l 860 1250 l 989 1250 l 790 1056 l 669 1056 m 257 896 l 474 1090 l 581 1090 l 738 896 l 621 896 l 519 1015 l 382 896 l 257 896 z "},"ậ":{"ha":833,"x_min":90,"x_max":760,"o":"m 264 896 l 481 1090 l 588 1090 l 744 896 l 628 896 l 526 1015 l 389 896 l 264 896 m 317 -14 q 147 63 203 -14 q 111 268 90 139 l 147 494 q 202 645 161 582 q 305 743 243 708 q 443 778 367 778 q 589 725 539 778 q 625 583 639 672 l 603 629 l 629 629 l 650 764 l 760 764 l 639 0 l 529 0 l 550 135 l 522 135 l 561 181 q 480 38 547 90 q 317 -14 413 -14 m 367 82 q 503 133 449 82 q 572 274 558 183 l 606 490 q 582 631 621 581 q 461 682 543 682 q 324 632 378 682 q 256 490 271 582 l 222 274 q 246 132 208 182 q 367 82 283 82 m 317 -293 q 251 -270 272 -293 q 235 -208 229 -247 q 271 -145 242 -168 q 343 -122 300 -122 q 408 -145 388 -122 q 424 -208 429 -168 q 389 -270 418 -247 q 317 -293 360 -293 z "},"ầ":{"ha":833,"x_min":90,"x_max":856,"o":"m 317 -14 q 147 63 203 -14 q 111 268 90 139 l 147 494 q 202 645 161 582 q 305 743 243 708 q 443 778 367 778 q 589 725 539 778 q 625 583 639 672 l 603 629 l 629 629 l 650 764 l 760 764 l 639 0 l 529 0 l 550 135 l 522 135 l 561 181 q 480 38 547 90 q 317 -14 413 -14 m 367 82 q 503 133 449 82 q 572 274 558 183 l 606 490 q 582 631 621 581 q 461 682 543 682 q 324 632 378 682 q 256 490 271 582 l 222 274 q 246 132 208 182 q 367 82 283 82 m 746 1056 l 596 1250 l 715 1250 l 856 1056 l 746 1056 m 257 896 l 474 1090 l 581 1090 l 738 896 l 621 896 l 519 1015 l 382 896 l 257 896 z "},"ẩ":{"ha":833,"x_min":90,"x_max":892,"o":"m 317 -14 q 147 63 203 -14 q 111 268 90 139 l 147 494 q 202 645 161 582 q 305 743 243 708 q 443 778 367 778 q 589 725 539 778 q 625 583 639 672 l 603 629 l 629 629 l 650 764 l 760 764 l 639 0 l 529 0 l 550 135 l 522 135 l 561 181 q 480 38 547 90 q 317 -14 413 -14 m 367 82 q 503 133 449 82 q 572 274 558 183 l 606 490 q 582 631 621 581 q 461 682 543 682 q 324 632 378 682 q 256 490 271 582 l 222 274 q 246 132 208 182 q 367 82 283 82 m 682 1056 l 761 1143 q 782 1182 781 1164 q 749 1217 788 1217 l 671 1217 l 682 1290 l 776 1290 q 862 1265 832 1290 q 885 1197 892 1239 q 847 1125 879 1161 l 786 1056 l 682 1056 m 257 896 l 474 1090 l 581 1090 l 738 896 l 621 896 l 519 1015 l 382 896 l 257 896 z "},"ẫ":{"ha":833,"x_min":90,"x_max":775,"o":"m 317 -14 q 147 63 203 -14 q 111 268 90 139 l 147 494 q 202 645 161 582 q 305 743 243 708 q 443 778 367 778 q 589 725 539 778 q 625 583 639 672 l 603 629 l 629 629 l 650 764 l 760 764 l 639 0 l 529 0 l 550 135 l 522 135 l 561 181 q 480 38 547 90 q 317 -14 413 -14 m 367 82 q 503 133 449 82 q 572 274 558 183 l 606 490 q 582 631 621 581 q 461 682 543 682 q 324 632 378 682 q 256 490 271 582 l 222 274 q 246 132 208 182 q 367 82 283 82 m 628 1129 q 563 1142 586 1129 q 526 1174 540 1156 q 498 1206 513 1192 q 458 1219 483 1219 q 406 1174 414 1219 l 400 1139 l 319 1139 l 324 1168 q 372 1256 332 1224 q 468 1288 411 1288 q 534 1274 511 1288 q 571 1243 557 1261 q 599 1211 585 1225 q 638 1197 613 1197 q 689 1243 681 1197 l 694 1278 l 775 1278 l 771 1249 q 724 1161 763 1193 q 628 1129 685 1129 m 257 896 l 474 1090 l 581 1090 l 738 896 l 621 896 l 519 1015 l 382 896 l 257 896 z "},"ä":{"ha":833,"x_min":90,"x_max":763,"o":"m 317 -14 q 147 63 203 -14 q 111 268 90 139 l 147 494 q 202 645 161 582 q 305 743 243 708 q 443 778 367 778 q 589 725 539 778 q 625 583 639 672 l 603 629 l 629 629 l 650 764 l 760 764 l 639 0 l 529 0 l 550 135 l 522 135 l 561 181 q 480 38 547 90 q 317 -14 413 -14 m 367 82 q 503 133 449 82 q 572 274 558 183 l 606 490 q 582 631 621 581 q 461 682 543 682 q 324 632 378 682 q 256 490 271 582 l 222 274 q 246 132 208 182 q 367 82 283 82 m 658 904 q 601 926 621 904 q 588 988 582 949 q 621 1051 594 1028 q 686 1075 647 1075 q 743 1051 724 1075 q 756 988 763 1028 q 724 927 750 950 q 658 904 697 904 m 353 904 q 296 926 315 904 q 282 988 276 949 q 315 1051 289 1028 q 379 1075 342 1075 q 438 1051 418 1075 q 451 988 458 1028 q 419 927 446 950 q 353 904 392 904 z "},"ạ":{"ha":833,"x_min":90,"x_max":760,"o":"m 317 -14 q 147 63 203 -14 q 111 268 90 139 l 147 494 q 202 645 161 582 q 305 743 243 708 q 443 778 367 778 q 589 725 539 778 q 625 583 639 672 l 603 629 l 629 629 l 650 764 l 760 764 l 639 0 l 529 0 l 550 135 l 522 135 l 561 181 q 480 38 547 90 q 317 -14 413 -14 m 367 82 q 503 133 449 82 q 572 274 558 183 l 606 490 q 582 631 621 581 q 461 682 543 682 q 324 632 378 682 q 256 490 271 582 l 222 274 q 246 132 208 182 q 367 82 283 82 m 317 -293 q 251 -270 272 -293 q 235 -208 229 -247 q 271 -145 242 -168 q 343 -122 300 -122 q 408 -145 388 -122 q 424 -208 429 -168 q 389 -270 418 -247 q 317 -293 360 -293 z "},"à":{"ha":833,"x_min":90,"x_max":760,"o":"m 317 -14 q 147 63 203 -14 q 111 268 90 139 l 147 494 q 202 645 161 582 q 305 743 243 708 q 443 778 367 778 q 589 725 539 778 q 625 583 639 672 l 603 629 l 629 629 l 650 764 l 760 764 l 639 0 l 529 0 l 550 135 l 522 135 l 561 181 q 480 38 547 90 q 317 -14 413 -14 m 367 82 q 503 133 449 82 q 572 274 558 183 l 606 490 q 582 631 621 581 q 461 682 543 682 q 324 632 378 682 q 256 490 271 582 l 222 274 q 246 132 208 182 q 367 82 283 82 m 468 896 l 340 1090 l 457 1090 l 578 896 l 468 896 z "},"ả":{"ha":833,"x_min":90,"x_max":760,"o":"m 317 -14 q 147 63 203 -14 q 111 268 90 139 l 147 494 q 202 645 161 582 q 305 743 243 708 q 443 778 367 778 q 589 725 539 778 q 625 583 639 672 l 603 629 l 629 629 l 650 764 l 760 764 l 639 0 l 529 0 l 550 135 l 522 135 l 561 181 q 480 38 547 90 q 317 -14 413 -14 m 367 82 q 503 133 449 82 q 572 274 558 183 l 606 490 q 582 631 621 581 q 461 682 543 682 q 324 632 378 682 q 256 490 271 582 l 222 274 q 246 132 208 182 q 367 82 283 82 m 449 896 l 535 988 q 555 1014 547 1001 q 564 1035 563 1026 q 526 1065 568 1065 l 414 1065 l 428 1144 l 567 1144 q 647 1119 619 1144 q 667 1047 674 1093 q 654 1007 664 1026 q 631 972 644 988 l 561 896 l 449 896 z "},"ā":{"ha":833,"x_min":90,"x_max":760,"o":"m 317 -14 q 147 63 203 -14 q 111 268 90 139 l 147 494 q 202 645 161 582 q 305 743 243 708 q 443 778 367 778 q 589 725 539 778 q 625 583 639 672 l 603 629 l 629 629 l 650 764 l 760 764 l 639 0 l 529 0 l 550 135 l 522 135 l 561 181 q 480 38 547 90 q 317 -14 413 -14 m 367 82 q 503 133 449 82 q 572 274 558 183 l 606 490 q 582 631 621 581 q 461 682 543 682 q 324 632 378 682 q 256 490 271 582 l 222 274 q 246 132 208 182 q 367 82 283 82 m 296 936 l 311 1028 l 740 1028 l 725 936 l 296 936 z "},"ą":{"ha":833,"x_min":90,"x_max":760,"o":"m 560 -279 q 450 -244 488 -279 q 422 -154 413 -210 q 463 -72 429 -114 q 565 14 497 -31 l 638 0 q 560 -72 588 -39 q 529 -133 533 -104 q 541 -183 524 -164 q 593 -203 558 -203 l 678 -203 l 665 -279 l 560 -279 m 317 -14 q 147 63 203 -14 q 111 268 90 139 l 147 494 q 202 645 161 582 q 305 743 243 708 q 443 778 367 778 q 589 725 539 778 q 625 583 639 672 l 603 629 l 629 629 l 650 764 l 760 764 l 639 0 l 529 0 l 550 135 l 522 135 l 561 181 q 480 38 547 90 q 317 -14 413 -14 m 367 82 q 503 133 449 82 q 572 274 558 183 l 606 490 q 582 631 621 581 q 461 682 543 682 q 324 632 378 682 q 256 490 271 582 l 222 274 q 246 132 208 182 q 367 82 283 82 z "},"å":{"ha":833,"x_min":90,"x_max":760,"o":"m 317 -14 q 147 63 203 -14 q 111 268 90 139 l 147 494 q 202 645 161 582 q 305 743 243 708 q 443 778 367 778 q 589 725 539 778 q 625 583 639 672 l 603 629 l 629 629 l 650 764 l 760 764 l 639 0 l 529 0 l 550 135 l 522 135 l 561 181 q 480 38 547 90 q 317 -14 413 -14 m 367 82 q 503 133 449 82 q 572 274 558 183 l 606 490 q 582 631 621 581 q 461 682 543 682 q 324 632 378 682 q 256 490 271 582 l 222 274 q 246 132 208 182 q 367 82 283 82 m 497 847 q 387 890 424 847 q 360 1000 350 932 q 422 1111 371 1069 q 544 1153 472 1153 q 656 1110 618 1153 q 682 1000 693 1068 q 621 890 672 932 q 497 847 569 847 m 507 914 q 573 938 546 914 q 606 1000 600 961 q 593 1064 613 1040 q 535 1088 574 1088 q 469 1063 496 1088 q 435 1000 442 1039 q 449 938 429 961 q 507 914 469 914 z "},"ã":{"ha":833,"x_min":90,"x_max":760,"o":"m 317 -14 q 147 63 203 -14 q 111 268 90 139 l 147 494 q 202 645 161 582 q 305 743 243 708 q 443 778 367 778 q 589 725 539 778 q 625 583 639 672 l 603 629 l 629 629 l 650 764 l 760 764 l 639 0 l 529 0 l 550 135 l 522 135 l 561 181 q 480 38 547 90 q 317 -14 413 -14 m 367 82 q 503 133 449 82 q 572 274 558 183 l 606 490 q 582 631 621 581 q 461 682 543 682 q 324 632 378 682 q 256 490 271 582 l 222 274 q 246 132 208 182 q 367 82 283 82 m 604 903 q 540 919 564 903 q 501 956 517 935 q 469 992 485 976 q 429 1008 454 1008 q 392 994 408 1008 q 372 953 376 981 l 365 910 l 285 910 l 290 953 q 341 1049 301 1015 q 438 1083 381 1083 q 502 1067 478 1083 q 542 1031 526 1051 q 572 994 557 1010 q 611 978 588 978 q 648 992 633 978 q 667 1033 663 1006 l 675 1076 l 756 1076 l 749 1033 q 700 937 739 971 q 604 903 661 903 z "},"æ":{"ha":833,"x_min":6,"x_max":826,"o":"m 174 -14 q 47 40 88 -14 q 19 183 6 94 l 31 263 q 107 397 44 347 q 264 447 169 447 l 379 447 l 397 558 q 385 651 407 619 q 313 683 364 683 q 239 656 269 683 q 200 585 208 629 l 94 585 q 169 725 110 672 q 313 778 229 778 q 399 759 367 778 q 447 715 432 740 q 463 664 463 689 l 467 664 q 499 715 476 689 q 559 759 522 740 q 647 778 596 778 q 783 719 739 778 q 810 560 826 660 l 778 358 l 467 358 l 442 204 q 457 115 433 150 q 526 81 481 81 q 606 108 574 81 q 646 179 638 135 l 751 179 q 673 39 735 92 q 522 -14 611 -14 q 438 4 469 -14 q 392 49 407 22 q 378 99 378 75 l 372 99 q 340 49 365 75 q 274 4 315 22 q 174 -14 233 -14 m 214 81 q 297 115 261 81 q 342 204 332 150 l 365 358 l 251 358 q 178 333 207 358 q 140 263 149 307 l 129 183 q 144 109 121 138 q 214 81 167 81 m 481 447 l 688 447 l 706 560 q 691 649 714 615 q 619 683 668 683 q 540 649 574 683 q 499 560 507 615 l 481 447 z "},"ǽ":{"ha":833,"x_min":6,"x_max":826,"o":"m 174 -14 q 47 40 88 -14 q 19 183 6 94 l 31 263 q 107 397 44 347 q 264 447 169 447 l 379 447 l 397 558 q 385 651 407 619 q 313 683 364 683 q 239 656 269 683 q 200 585 208 629 l 94 585 q 169 725 110 672 q 313 778 229 778 q 399 759 367 778 q 447 715 432 740 q 463 664 463 689 l 467 664 q 499 715 476 689 q 559 759 522 740 q 647 778 596 778 q 783 719 739 778 q 810 560 826 660 l 778 358 l 467 358 l 442 204 q 457 115 433 150 q 526 81 481 81 q 606 108 574 81 q 646 179 638 135 l 751 179 q 673 39 735 92 q 522 -14 611 -14 q 438 4 469 -14 q 392 49 407 22 q 378 99 378 75 l 372 99 q 340 49 365 75 q 274 4 315 22 q 174 -14 233 -14 m 214 81 q 297 115 261 81 q 342 204 332 150 l 365 358 l 251 358 q 178 333 207 358 q 140 263 149 307 l 129 183 q 144 109 121 138 q 214 81 167 81 m 481 447 l 688 447 l 706 560 q 691 649 714 615 q 619 683 668 683 q 540 649 574 683 q 499 560 507 615 l 481 447 m 425 896 l 603 1090 l 731 1090 l 544 896 l 425 896 z "},"b":{"ha":833,"x_min":74,"x_max":742,"o":"m 390 -14 q 244 38 294 -14 q 208 181 194 90 l 233 135 l 206 135 l 183 0 l 74 0 l 235 1014 l 344 1014 l 310 796 l 281 629 l 307 629 l 272 583 q 354 725 286 672 q 517 778 422 778 q 687 701 632 778 q 722 494 742 625 l 686 268 q 631 118 672 181 q 528 21 590 56 q 390 -14 467 -14 m 372 82 q 508 132 454 82 q 578 274 563 182 l 611 490 q 588 632 626 582 q 467 682 550 682 q 331 631 385 682 q 261 490 276 581 l 228 274 q 251 133 213 183 q 372 82 290 82 z "},"c":{"ha":833,"x_min":97,"x_max":750,"o":"m 357 -14 q 208 21 268 -14 q 122 120 147 56 q 111 274 97 185 l 144 490 q 205 644 160 579 q 322 743 250 708 q 483 778 394 778 q 682 707 614 778 q 733 514 750 636 l 624 514 q 591 636 632 593 q 468 679 550 679 q 326 630 382 679 q 256 490 269 581 l 221 274 q 248 135 207 185 q 374 85 289 85 q 511 128 457 85 q 582 250 565 172 l 692 250 q 578 57 669 128 q 357 -14 488 -14 z "},"ć":{"ha":833,"x_min":97,"x_max":750,"o":"m 357 -14 q 208 21 268 -14 q 122 120 147 56 q 111 274 97 185 l 144 490 q 205 644 160 579 q 322 743 250 708 q 483 778 394 778 q 682 707 614 778 q 733 514 750 636 l 624 514 q 591 636 632 593 q 468 679 550 679 q 326 630 382 679 q 256 490 269 581 l 221 274 q 248 135 207 185 q 374 85 289 85 q 511 128 457 85 q 582 250 565 172 l 692 250 q 578 57 669 128 q 357 -14 488 -14 m 429 896 l 607 1090 l 735 1090 l 549 896 l 429 896 z "},"č":{"ha":833,"x_min":97,"x_max":774,"o":"m 357 -14 q 208 21 268 -14 q 122 120 147 56 q 111 274 97 185 l 144 490 q 205 644 160 579 q 322 743 250 708 q 483 778 394 778 q 682 707 614 778 q 733 514 750 636 l 624 514 q 591 636 632 593 q 468 679 550 679 q 326 630 382 679 q 256 490 269 581 l 221 274 q 248 135 207 185 q 374 85 289 85 q 511 128 457 85 q 582 250 565 172 l 692 250 q 578 57 669 128 q 357 -14 488 -14 m 450 896 l 293 1090 l 410 1090 l 513 971 l 650 1090 l 774 1090 l 557 896 l 450 896 z "},"ç":{"ha":833,"x_min":97,"x_max":750,"o":"m 186 -279 l 197 -210 l 299 -210 q 351 -193 329 -210 q 376 -158 374 -176 q 343 -113 381 -132 q 236 -94 306 -94 l 304 36 l 378 36 l 335 -49 q 406 -65 369 -51 q 463 -104 442 -79 q 479 -165 485 -129 q 423 -246 472 -212 q 303 -279 374 -279 l 186 -279 m 357 -14 q 208 21 268 -14 q 122 120 147 56 q 111 274 97 185 l 144 490 q 205 644 160 579 q 322 743 250 708 q 483 778 394 778 q 682 707 614 778 q 733 514 750 636 l 624 514 q 591 636 632 593 q 468 679 550 679 q 326 630 382 679 q 256 490 269 581 l 221 274 q 248 135 207 185 q 374 85 289 85 q 511 128 457 85 q 582 250 565 172 l 692 250 q 578 57 669 128 q 357 -14 488 -14 z "},"ĉ":{"ha":833,"x_min":97,"x_max":750,"o":"m 357 -14 q 208 21 268 -14 q 122 120 147 56 q 111 274 97 185 l 144 490 q 205 644 160 579 q 322 743 250 708 q 483 778 394 778 q 682 707 614 778 q 733 514 750 636 l 624 514 q 591 636 632 593 q 468 679 550 679 q 326 630 382 679 q 256 490 269 581 l 221 274 q 248 135 207 185 q 374 85 289 85 q 511 128 457 85 q 582 250 565 172 l 692 250 q 578 57 669 128 q 357 -14 488 -14 m 257 896 l 474 1090 l 581 1090 l 738 896 l 621 896 l 519 1015 l 382 896 l 257 896 z "},"ċ":{"ha":833,"x_min":97,"x_max":750,"o":"m 357 -14 q 208 21 268 -14 q 122 120 147 56 q 111 274 97 185 l 144 490 q 205 644 160 579 q 322 743 250 708 q 483 778 394 778 q 682 707 614 778 q 733 514 750 636 l 624 514 q 591 636 632 593 q 468 679 550 679 q 326 630 382 679 q 256 490 269 581 l 221 274 q 248 135 207 185 q 374 85 289 85 q 511 128 457 85 q 582 250 565 172 l 692 250 q 578 57 669 128 q 357 -14 488 -14 m 501 904 q 436 927 458 904 q 418 988 414 950 q 451 1051 424 1028 q 522 1075 479 1075 q 588 1051 565 1075 q 606 988 611 1028 q 574 927 601 950 q 501 904 546 904 z "},"d":{"ha":833,"x_min":90,"x_max":800,"o":"m 317 -14 q 147 63 203 -14 q 111 268 90 139 l 147 494 q 202 645 161 582 q 305 743 243 708 q 443 778 367 778 q 589 725 539 778 q 625 583 639 672 l 603 629 l 629 629 l 654 796 l 690 1014 l 800 1014 l 639 0 l 529 0 l 550 135 l 522 135 l 561 181 q 480 38 547 90 q 317 -14 413 -14 m 367 82 q 503 133 449 82 q 572 274 558 183 l 606 490 q 582 631 621 581 q 461 682 543 682 q 324 632 378 682 q 256 490 271 582 l 222 274 q 246 132 208 182 q 367 82 283 82 z "},"ð":{"ha":833,"x_min":74,"x_max":739,"o":"m 351 -14 q 194 25 258 -14 q 101 135 129 64 q 88 299 74 206 q 149 460 103 392 q 268 567 196 529 q 428 606 340 606 q 504 591 472 606 q 557 556 536 576 q 586 515 578 535 l 601 515 q 581 572 599 531 q 532 671 564 613 l 460 800 l 211 696 l 226 794 l 417 878 l 339 1014 l 454 1014 l 506 919 l 739 1014 l 725 914 l 549 842 l 635 693 q 713 497 692 599 q 719 306 735 396 q 653 138 704 210 q 525 26 603 65 q 351 -14 447 -14 m 368 86 q 526 144 461 86 q 607 299 592 203 q 599 410 617 363 q 539 485 581 458 q 436 511 497 511 q 280 453 344 511 q 199 299 215 394 q 231 144 185 203 q 368 86 276 86 z "},"ď":{"ha":833,"x_min":58,"x_max":922,"o":"m 768 764 l 813 1014 l 922 1014 l 867 764 l 768 764 m 265 -14 q 108 61 158 -14 q 78 263 58 136 l 115 500 q 210 703 135 628 q 392 778 285 778 q 525 725 481 778 q 554 583 569 672 l 533 629 l 560 629 l 585 796 l 619 1014 l 731 1014 l 569 0 l 458 0 l 481 135 l 451 135 l 490 181 q 415 39 476 92 q 265 -14 354 -14 m 315 82 q 438 131 389 82 q 501 268 488 181 l 536 494 q 518 633 551 583 q 410 682 485 682 q 288 633 338 682 q 225 494 239 583 l 189 268 q 209 131 175 181 q 315 82 243 82 z "},"đ":{"ha":833,"x_min":92,"x_max":910,"o":"m 113 268 l 135 411 q 189 562 149 499 q 290 660 229 625 q 428 694 351 694 q 559 655 511 694 q 610 546 607 615 l 614 546 l 639 713 l 651 797 l 415 797 l 431 890 l 667 890 l 686 1014 l 797 1014 l 776 890 l 910 890 l 894 797 l 763 797 l 636 0 l 525 0 l 547 135 l 544 135 q 459 26 519 65 q 315 -14 399 -14 q 147 63 201 -14 q 113 268 92 139 m 224 274 q 245 132 208 182 q 365 82 282 82 q 501 133 447 82 q 569 274 554 183 l 590 407 q 567 548 604 497 q 447 599 529 599 q 311 549 364 599 q 244 407 258 499 l 224 274 z "},"e":{"ha":833,"x_min":97,"x_max":736,"o":"m 353 -14 q 206 22 264 -14 q 122 122 147 57 q 111 274 97 188 l 144 490 q 205 642 160 578 q 320 742 250 707 q 479 778 390 778 q 627 742 568 778 q 711 642 686 707 q 721 490 736 578 l 700 356 l 232 356 l 219 274 q 243 130 206 181 q 368 79 281 79 q 491 108 442 79 q 561 193 540 138 l 671 193 q 606 83 651 129 q 497 11 561 36 q 353 -14 432 -14 m 604 429 l 613 490 q 590 634 628 583 q 465 685 553 685 q 322 634 376 685 q 253 490 268 583 l 246 442 l 617 442 l 604 429 z "},"é":{"ha":833,"x_min":97,"x_max":736,"o":"m 353 -14 q 206 22 264 -14 q 122 122 147 57 q 111 274 97 188 l 144 490 q 205 642 160 578 q 320 742 250 707 q 479 778 390 778 q 627 742 568 778 q 711 642 686 707 q 721 490 736 578 l 700 356 l 232 356 l 219 274 q 243 130 206 181 q 368 79 281 79 q 491 108 442 79 q 561 193 540 138 l 671 193 q 606 83 651 129 q 497 11 561 36 q 353 -14 432 -14 m 604 429 l 613 490 q 590 634 628 583 q 465 685 553 685 q 322 634 376 685 q 253 490 268 583 l 246 442 l 617 442 l 604 429 m 425 896 l 603 1090 l 731 1090 l 544 896 l 425 896 z "},"ĕ":{"ha":833,"x_min":97,"x_max":744,"o":"m 353 -14 q 206 22 264 -14 q 122 122 147 57 q 111 274 97 188 l 144 490 q 205 642 160 578 q 320 742 250 707 q 479 778 390 778 q 627 742 568 778 q 711 642 686 707 q 721 490 736 578 l 700 356 l 232 356 l 219 274 q 243 130 206 181 q 368 79 281 79 q 491 108 442 79 q 561 193 540 138 l 671 193 q 606 83 651 129 q 497 11 561 36 q 353 -14 432 -14 m 604 429 l 613 490 q 590 634 628 583 q 465 685 553 685 q 322 634 376 685 q 253 490 268 583 l 246 442 l 617 442 l 604 429 m 496 890 q 348 945 399 890 q 311 1090 297 1000 l 399 1090 q 419 999 390 1033 q 506 964 449 964 q 606 999 565 964 q 654 1090 646 1033 l 744 1090 q 663 945 731 1000 q 496 890 594 890 z "},"ě":{"ha":833,"x_min":97,"x_max":769,"o":"m 353 -14 q 206 22 264 -14 q 122 122 147 57 q 111 274 97 188 l 144 490 q 205 642 160 578 q 320 742 250 707 q 479 778 390 778 q 627 742 568 778 q 711 642 686 707 q 721 490 736 578 l 700 356 l 232 356 l 219 274 q 243 130 206 181 q 368 79 281 79 q 491 108 442 79 q 561 193 540 138 l 671 193 q 606 83 651 129 q 497 11 561 36 q 353 -14 432 -14 m 604 429 l 613 490 q 590 634 628 583 q 465 685 553 685 q 322 634 376 685 q 253 490 268 583 l 246 442 l 617 442 l 604 429 m 446 896 l 289 1090 l 406 1090 l 508 971 l 646 1090 l 769 1090 l 553 896 l 446 896 z "},"ê":{"ha":833,"x_min":97,"x_max":738,"o":"m 353 -14 q 206 22 264 -14 q 122 122 147 57 q 111 274 97 188 l 144 490 q 205 642 160 578 q 320 742 250 707 q 479 778 390 778 q 627 742 568 778 q 711 642 686 707 q 721 490 736 578 l 700 356 l 232 356 l 219 274 q 243 130 206 181 q 368 79 281 79 q 491 108 442 79 q 561 193 540 138 l 671 193 q 606 83 651 129 q 497 11 561 36 q 353 -14 432 -14 m 604 429 l 613 490 q 590 634 628 583 q 465 685 553 685 q 322 634 376 685 q 253 490 268 583 l 246 442 l 617 442 l 604 429 m 257 896 l 474 1090 l 581 1090 l 738 896 l 621 896 l 519 1015 l 382 896 l 257 896 z "},"ế":{"ha":833,"x_min":97,"x_max":989,"o":"m 353 -14 q 206 22 264 -14 q 122 122 147 57 q 111 274 97 188 l 144 490 q 205 642 160 578 q 320 742 250 707 q 479 778 390 778 q 627 742 568 778 q 711 642 686 707 q 721 490 736 578 l 700 356 l 232 356 l 219 274 q 243 130 206 181 q 368 79 281 79 q 491 108 442 79 q 561 193 540 138 l 671 193 q 606 83 651 129 q 497 11 561 36 q 353 -14 432 -14 m 604 429 l 613 490 q 590 634 628 583 q 465 685 553 685 q 322 634 376 685 q 253 490 268 583 l 246 442 l 617 442 l 604 429 m 669 1056 l 860 1250 l 989 1250 l 790 1056 l 669 1056 m 257 896 l 474 1090 l 581 1090 l 738 896 l 621 896 l 519 1015 l 382 896 l 257 896 z "},"ệ":{"ha":833,"x_min":97,"x_max":742,"o":"m 261 896 l 478 1090 l 585 1090 l 742 896 l 625 896 l 524 1015 l 386 896 l 261 896 m 353 -14 q 206 22 264 -14 q 122 122 147 57 q 111 274 97 188 l 144 490 q 205 642 160 578 q 320 742 250 707 q 479 778 390 778 q 627 742 568 778 q 711 642 686 707 q 721 490 736 578 l 700 356 l 232 356 l 219 274 q 243 130 206 181 q 368 79 281 79 q 491 108 442 79 q 561 193 540 138 l 671 193 q 606 83 651 129 q 497 11 561 36 q 353 -14 432 -14 m 604 429 l 613 490 q 590 634 628 583 q 465 685 553 685 q 322 634 376 685 q 253 490 268 583 l 246 442 l 617 442 l 604 429 m 310 -293 q 244 -270 265 -293 q 228 -208 222 -247 q 264 -145 235 -168 q 336 -122 293 -122 q 401 -145 381 -122 q 417 -208 422 -168 q 382 -270 411 -247 q 310 -293 353 -293 z "},"ề":{"ha":833,"x_min":97,"x_max":856,"o":"m 353 -14 q 206 22 264 -14 q 122 122 147 57 q 111 274 97 188 l 144 490 q 205 642 160 578 q 320 742 250 707 q 479 778 390 778 q 627 742 568 778 q 711 642 686 707 q 721 490 736 578 l 700 356 l 232 356 l 219 274 q 243 130 206 181 q 368 79 281 79 q 491 108 442 79 q 561 193 540 138 l 671 193 q 606 83 651 129 q 497 11 561 36 q 353 -14 432 -14 m 604 429 l 613 490 q 590 634 628 583 q 465 685 553 685 q 322 634 376 685 q 253 490 268 583 l 246 442 l 617 442 l 604 429 m 746 1056 l 596 1250 l 715 1250 l 856 1056 l 746 1056 m 257 896 l 474 1090 l 581 1090 l 738 896 l 621 896 l 519 1015 l 382 896 l 257 896 z "},"ể":{"ha":833,"x_min":97,"x_max":892,"o":"m 353 -14 q 206 22 264 -14 q 122 122 147 57 q 111 274 97 188 l 144 490 q 205 642 160 578 q 320 742 250 707 q 479 778 390 778 q 627 742 568 778 q 711 642 686 707 q 721 490 736 578 l 700 356 l 232 356 l 219 274 q 243 130 206 181 q 368 79 281 79 q 491 108 442 79 q 561 193 540 138 l 671 193 q 606 83 651 129 q 497 11 561 36 q 353 -14 432 -14 m 604 429 l 613 490 q 590 634 628 583 q 465 685 553 685 q 322 634 376 685 q 253 490 268 583 l 246 442 l 617 442 l 604 429 m 682 1056 l 761 1143 q 782 1182 781 1164 q 749 1217 788 1217 l 671 1217 l 682 1290 l 776 1290 q 862 1265 832 1290 q 885 1197 892 1239 q 847 1125 879 1161 l 786 1056 l 682 1056 m 257 896 l 474 1090 l 581 1090 l 738 896 l 621 896 l 519 1015 l 382 896 l 257 896 z "},"ễ":{"ha":833,"x_min":97,"x_max":775,"o":"m 353 -14 q 206 22 264 -14 q 122 122 147 57 q 111 274 97 188 l 144 490 q 205 642 160 578 q 320 742 250 707 q 479 778 390 778 q 627 742 568 778 q 711 642 686 707 q 721 490 736 578 l 700 356 l 232 356 l 219 274 q 243 130 206 181 q 368 79 281 79 q 491 108 442 79 q 561 193 540 138 l 671 193 q 606 83 651 129 q 497 11 561 36 q 353 -14 432 -14 m 604 429 l 613 490 q 590 634 628 583 q 465 685 553 685 q 322 634 376 685 q 253 490 268 583 l 246 442 l 617 442 l 604 429 m 628 1129 q 563 1142 586 1129 q 526 1174 540 1156 q 498 1206 513 1192 q 458 1219 483 1219 q 406 1174 414 1219 l 400 1139 l 319 1139 l 324 1168 q 372 1256 332 1224 q 468 1288 411 1288 q 534 1274 511 1288 q 571 1243 557 1261 q 599 1211 585 1225 q 638 1197 613 1197 q 689 1243 681 1197 l 694 1278 l 775 1278 l 771 1249 q 724 1161 763 1193 q 628 1129 685 1129 m 257 896 l 474 1090 l 581 1090 l 738 896 l 621 896 l 519 1015 l 382 896 l 257 896 z "},"ë":{"ha":833,"x_min":97,"x_max":756,"o":"m 353 -14 q 206 22 264 -14 q 122 122 147 57 q 111 274 97 188 l 144 490 q 205 642 160 578 q 320 742 250 707 q 479 778 390 778 q 627 742 568 778 q 711 642 686 707 q 721 490 736 578 l 700 356 l 232 356 l 219 274 q 243 130 206 181 q 368 79 281 79 q 491 108 442 79 q 561 193 540 138 l 671 193 q 606 83 651 129 q 497 11 561 36 q 353 -14 432 -14 m 604 429 l 613 490 q 590 634 628 583 q 465 685 553 685 q 322 634 376 685 q 253 490 268 583 l 246 442 l 617 442 l 604 429 m 651 904 q 594 926 614 904 q 581 988 575 949 q 614 1051 588 1028 q 679 1075 640 1075 q 736 1051 717 1075 q 749 988 756 1028 q 717 927 743 950 q 651 904 690 904 m 346 904 q 289 926 308 904 q 275 988 269 949 q 308 1051 282 1028 q 372 1075 335 1075 q 431 1051 411 1075 q 444 988 451 1028 q 412 927 439 950 q 346 904 385 904 z "},"ė":{"ha":833,"x_min":97,"x_max":736,"o":"m 353 -14 q 206 22 264 -14 q 122 122 147 57 q 111 274 97 188 l 144 490 q 205 642 160 578 q 320 742 250 707 q 479 778 390 778 q 627 742 568 778 q 711 642 686 707 q 721 490 736 578 l 700 356 l 232 356 l 219 274 q 243 130 206 181 q 368 79 281 79 q 491 108 442 79 q 561 193 540 138 l 671 193 q 606 83 651 129 q 497 11 561 36 q 353 -14 432 -14 m 604 429 l 613 490 q 590 634 628 583 q 465 685 553 685 q 322 634 376 685 q 253 490 268 583 l 246 442 l 617 442 l 604 429 m 501 904 q 436 927 458 904 q 418 988 414 950 q 451 1051 424 1028 q 522 1075 479 1075 q 588 1051 565 1075 q 606 988 611 1028 q 574 927 601 950 q 501 904 546 904 z "},"ẹ":{"ha":833,"x_min":97,"x_max":736,"o":"m 353 -14 q 206 22 264 -14 q 122 122 147 57 q 111 274 97 188 l 144 490 q 205 642 160 578 q 320 742 250 707 q 479 778 390 778 q 627 742 568 778 q 711 642 686 707 q 721 490 736 578 l 700 356 l 232 356 l 219 274 q 243 130 206 181 q 368 79 281 79 q 491 108 442 79 q 561 193 540 138 l 671 193 q 606 83 651 129 q 497 11 561 36 q 353 -14 432 -14 m 604 429 l 613 490 q 590 634 628 583 q 465 685 553 685 q 322 634 376 685 q 253 490 268 583 l 246 442 l 617 442 l 604 429 m 310 -293 q 244 -270 265 -293 q 228 -208 222 -247 q 264 -145 235 -168 q 336 -122 293 -122 q 401 -145 381 -122 q 417 -208 422 -168 q 382 -270 411 -247 q 310 -293 353 -293 z "},"è":{"ha":833,"x_min":97,"x_max":736,"o":"m 353 -14 q 206 22 264 -14 q 122 122 147 57 q 111 274 97 188 l 144 490 q 205 642 160 578 q 320 742 250 707 q 479 778 390 778 q 627 742 568 778 q 711 642 686 707 q 721 490 736 578 l 700 356 l 232 356 l 219 274 q 243 130 206 181 q 368 79 281 79 q 491 108 442 79 q 561 193 540 138 l 671 193 q 606 83 651 129 q 497 11 561 36 q 353 -14 432 -14 m 604 429 l 613 490 q 590 634 628 583 q 465 685 553 685 q 322 634 376 685 q 253 490 268 583 l 246 442 l 617 442 l 604 429 m 461 896 l 333 1090 l 450 1090 l 571 896 l 461 896 z "},"ẻ":{"ha":833,"x_min":97,"x_max":736,"o":"m 353 -14 q 206 22 264 -14 q 122 122 147 57 q 111 274 97 188 l 144 490 q 205 642 160 578 q 320 742 250 707 q 479 778 390 778 q 627 742 568 778 q 711 642 686 707 q 721 490 736 578 l 700 356 l 232 356 l 219 274 q 243 130 206 181 q 368 79 281 79 q 491 108 442 79 q 561 193 540 138 l 671 193 q 606 83 651 129 q 497 11 561 36 q 353 -14 432 -14 m 604 429 l 613 490 q 590 634 628 583 q 465 685 553 685 q 322 634 376 685 q 253 490 268 583 l 246 442 l 617 442 l 604 429 m 438 896 l 524 988 q 544 1014 536 1001 q 553 1035 551 1026 q 515 1065 557 1065 l 403 1065 l 417 1144 l 556 1144 q 635 1119 608 1144 q 656 1047 663 1093 q 643 1007 653 1026 q 619 972 633 988 l 550 896 l 438 896 z "},"ē":{"ha":833,"x_min":97,"x_max":736,"o":"m 353 -14 q 206 22 264 -14 q 122 122 147 57 q 111 274 97 188 l 144 490 q 205 642 160 578 q 320 742 250 707 q 479 778 390 778 q 627 742 568 778 q 711 642 686 707 q 721 490 736 578 l 700 356 l 232 356 l 219 274 q 243 130 206 181 q 368 79 281 79 q 491 108 442 79 q 561 193 540 138 l 671 193 q 606 83 651 129 q 497 11 561 36 q 353 -14 432 -14 m 604 429 l 613 490 q 590 634 628 583 q 465 685 553 685 q 322 634 376 685 q 253 490 268 583 l 246 442 l 617 442 l 604 429 m 289 936 l 304 1028 l 733 1028 l 718 936 l 289 936 z "},"ę":{"ha":833,"x_min":97,"x_max":736,"o":"m 414 -279 q 306 -244 343 -279 q 276 -154 268 -210 q 308 -86 282 -122 q 382 -12 333 -50 q 368 -13 376 -12 q 353 -14 360 -14 q 206 22 264 -14 q 122 122 147 57 q 111 274 97 188 l 144 490 q 205 642 160 578 q 320 742 250 707 q 479 778 390 778 q 627 742 568 778 q 711 642 686 707 q 721 490 736 578 l 700 356 l 232 356 l 219 274 q 243 130 206 181 q 368 79 281 79 q 491 108 442 79 q 561 193 540 138 l 671 193 q 615 93 654 136 q 522 24 576 50 l 493 1 q 415 -71 442 -37 q 383 -133 389 -104 q 396 -183 379 -164 q 447 -203 413 -203 l 532 -203 l 521 -279 l 414 -279 m 599 392 l 613 490 q 590 634 628 583 q 465 685 553 685 q 322 634 376 685 q 253 490 268 583 l 246 442 l 654 442 l 599 392 z "},"ẽ":{"ha":833,"x_min":97,"x_max":749,"o":"m 353 -14 q 206 22 264 -14 q 122 122 147 57 q 111 274 97 188 l 144 490 q 205 642 160 578 q 320 742 250 707 q 479 778 390 778 q 627 742 568 778 q 711 642 686 707 q 721 490 736 578 l 700 356 l 232 356 l 219 274 q 243 130 206 181 q 368 79 281 79 q 491 108 442 79 q 561 193 540 138 l 671 193 q 606 83 651 129 q 497 11 561 36 q 353 -14 432 -14 m 604 429 l 613 490 q 590 634 628 583 q 465 685 553 685 q 322 634 376 685 q 253 490 268 583 l 246 442 l 617 442 l 604 429 m 597 903 q 533 919 557 903 q 494 956 510 935 q 463 992 478 976 q 422 1008 447 1008 q 385 994 401 1008 q 365 953 369 981 l 358 910 l 278 910 l 283 953 q 334 1049 294 1015 q 431 1083 374 1083 q 495 1067 471 1083 q 535 1031 519 1051 q 565 994 550 1010 q 604 978 581 978 q 641 992 626 978 q 660 1033 656 1006 l 668 1076 l 749 1076 l 742 1033 q 693 937 732 971 q 597 903 654 903 z "},"ə":{"ha":833,"x_min":100,"x_max":733,"o":"m 353 -14 q 206 22 264 -14 q 124 122 149 57 q 113 274 100 188 l 133 408 l 599 408 l 611 490 q 590 634 626 583 q 464 685 553 685 q 342 656 390 685 q 272 571 294 626 l 163 571 q 277 722 193 667 q 479 778 361 778 q 626 742 568 778 q 709 642 685 707 q 719 490 733 578 l 685 274 q 627 122 672 188 q 512 22 582 57 q 353 -14 442 -14 m 367 79 q 510 130 457 79 q 578 274 563 181 l 585 322 l 217 322 l 231 335 l 221 274 q 243 130 207 181 q 367 79 279 79 z "},"f":{"ha":833,"x_min":-57,"x_max":871,"o":"m -57 -250 l -42 -150 l 115 -150 q 205 -123 172 -150 q 246 -40 238 -96 l 344 588 l 118 588 l 135 688 l 360 688 l 379 804 q 424 916 390 869 q 512 988 457 963 q 636 1014 567 1014 l 871 1014 l 854 914 l 619 914 q 530 887 563 914 q 489 804 497 860 l 471 688 l 786 688 l 769 588 l 454 588 l 356 -40 q 273 -194 342 -137 q 99 -250 204 -250 l -57 -250 z "},"g":{"ha":833,"x_min":101,"x_max":760,"o":"m 129 -250 l 146 -150 l 378 -150 q 478 -119 442 -150 q 525 -26 514 -89 l 539 63 l 564 207 l 539 207 l 569 239 q 491 101 556 153 q 332 50 426 50 q 158 127 215 50 q 122 333 101 204 l 147 496 q 202 645 161 582 q 306 743 243 708 q 447 778 369 778 q 591 727 542 778 q 625 590 640 676 l 606 622 l 628 622 l 650 764 l 760 764 l 635 -26 q 546 -191 618 -132 q 360 -250 474 -250 l 129 -250 m 378 146 q 515 197 460 146 q 583 338 569 247 l 607 490 q 583 631 622 581 q 463 682 544 682 q 326 632 379 682 q 257 490 272 582 l 233 338 q 257 196 219 246 q 378 146 294 146 z "},"ǵ":{"ha":833,"x_min":101,"x_max":760,"o":"m 129 -250 l 146 -150 l 378 -150 q 478 -119 442 -150 q 525 -26 514 -89 l 539 63 l 564 207 l 539 207 l 569 239 q 491 101 556 153 q 332 50 426 50 q 158 127 215 50 q 122 333 101 204 l 147 496 q 202 645 161 582 q 306 743 243 708 q 447 778 369 778 q 591 727 542 778 q 625 590 640 676 l 606 622 l 628 622 l 650 764 l 760 764 l 635 -26 q 546 -191 618 -132 q 360 -250 474 -250 l 129 -250 m 378 146 q 515 197 460 146 q 583 338 569 247 l 607 490 q 583 631 622 581 q 463 682 544 682 q 326 632 379 682 q 257 490 272 582 l 233 338 q 257 196 219 246 q 378 146 294 146 m 419 896 l 597 1090 l 725 1090 l 539 896 l 419 896 z "},"ğ":{"ha":833,"x_min":101,"x_max":760,"o":"m 129 -250 l 146 -150 l 378 -150 q 478 -119 442 -150 q 525 -26 514 -89 l 539 63 l 564 207 l 539 207 l 569 239 q 491 101 556 153 q 332 50 426 50 q 158 127 215 50 q 122 333 101 204 l 147 496 q 202 645 161 582 q 306 743 243 708 q 447 778 369 778 q 591 727 542 778 q 625 590 640 676 l 606 622 l 628 622 l 650 764 l 760 764 l 635 -26 q 546 -191 618 -132 q 360 -250 474 -250 l 129 -250 m 378 146 q 515 197 460 146 q 583 338 569 247 l 607 490 q 583 631 622 581 q 463 682 544 682 q 326 632 379 682 q 257 490 272 582 l 233 338 q 257 196 219 246 q 378 146 294 146 m 492 890 q 344 945 394 890 q 307 1090 293 1000 l 394 1090 q 415 999 386 1033 q 501 964 444 964 q 601 999 561 964 q 650 1090 642 1033 l 740 1090 q 658 945 726 1000 q 492 890 590 890 z "},"ǧ":{"ha":833,"x_min":101,"x_max":765,"o":"m 129 -250 l 146 -150 l 378 -150 q 478 -119 442 -150 q 525 -26 514 -89 l 539 63 l 564 207 l 539 207 l 569 239 q 491 101 556 153 q 332 50 426 50 q 158 127 215 50 q 122 333 101 204 l 147 496 q 202 645 161 582 q 306 743 243 708 q 447 778 369 778 q 591 727 542 778 q 625 590 640 676 l 606 622 l 628 622 l 650 764 l 760 764 l 635 -26 q 546 -191 618 -132 q 360 -250 474 -250 l 129 -250 m 378 146 q 515 197 460 146 q 583 338 569 247 l 607 490 q 583 631 622 581 q 463 682 544 682 q 326 632 379 682 q 257 490 272 582 l 233 338 q 257 196 219 246 q 378 146 294 146 m 442 896 l 285 1090 l 401 1090 l 504 971 l 642 1090 l 765 1090 l 549 896 l 442 896 z "},"ĝ":{"ha":833,"x_min":101,"x_max":760,"o":"m 129 -250 l 146 -150 l 378 -150 q 478 -119 442 -150 q 525 -26 514 -89 l 539 63 l 564 207 l 539 207 l 569 239 q 491 101 556 153 q 332 50 426 50 q 158 127 215 50 q 122 333 101 204 l 147 496 q 202 645 161 582 q 306 743 243 708 q 447 778 369 778 q 591 727 542 778 q 625 590 640 676 l 606 622 l 628 622 l 650 764 l 760 764 l 635 -26 q 546 -191 618 -132 q 360 -250 474 -250 l 129 -250 m 378 146 q 515 197 460 146 q 583 338 569 247 l 607 490 q 583 631 622 581 q 463 682 544 682 q 326 632 379 682 q 257 490 272 582 l 233 338 q 257 196 219 246 q 378 146 294 146 m 253 896 l 469 1090 l 576 1090 l 733 896 l 617 896 l 515 1015 l 378 896 l 253 896 z "},"ģ":{"ha":833,"x_min":101,"x_max":760,"o":"m 129 -250 l 146 -150 l 378 -150 q 478 -119 442 -150 q 525 -26 514 -89 l 539 63 l 564 207 l 539 207 l 569 239 q 491 101 556 153 q 332 50 426 50 q 158 127 215 50 q 122 333 101 204 l 147 496 q 202 645 161 582 q 306 743 243 708 q 447 778 369 778 q 591 727 542 778 q 625 590 640 676 l 606 622 l 628 622 l 650 764 l 760 764 l 635 -26 q 546 -191 618 -132 q 360 -250 474 -250 l 129 -250 m 378 146 q 515 197 460 146 q 583 338 569 247 l 607 490 q 583 631 622 581 q 463 682 544 682 q 326 632 379 682 q 257 490 272 582 l 233 338 q 257 196 219 246 q 378 146 294 146 m 696 1222 l 528 896 l 382 896 l 608 1222 l 696 1222 z "},"ġ":{"ha":833,"x_min":101,"x_max":760,"o":"m 129 -250 l 146 -150 l 378 -150 q 478 -119 442 -150 q 525 -26 514 -89 l 539 63 l 564 207 l 539 207 l 569 239 q 491 101 556 153 q 332 50 426 50 q 158 127 215 50 q 122 333 101 204 l 147 496 q 202 645 161 582 q 306 743 243 708 q 447 778 369 778 q 591 727 542 778 q 625 590 640 676 l 606 622 l 628 622 l 650 764 l 760 764 l 635 -26 q 546 -191 618 -132 q 360 -250 474 -250 l 129 -250 m 378 146 q 515 197 460 146 q 583 338 569 247 l 607 490 q 583 631 622 581 q 463 682 544 682 q 326 632 379 682 q 257 490 272 582 l 233 338 q 257 196 219 246 q 378 146 294 146 m 497 904 q 432 927 454 904 q 414 988 410 950 q 447 1051 419 1028 q 518 1075 475 1075 q 584 1051 561 1075 q 601 988 607 1028 q 569 927 597 950 q 497 904 542 904 z "},"h":{"ha":833,"x_min":74,"x_max":742,"o":"m 74 0 l 235 1014 l 344 1014 l 306 775 l 282 628 l 310 628 l 274 583 q 353 726 289 675 q 514 778 417 778 q 685 706 628 778 q 722 513 742 635 l 640 0 l 531 0 l 610 500 q 585 636 624 588 q 468 685 547 685 q 332 633 388 685 q 261 490 276 582 l 183 0 l 74 0 z "},"ħ":{"ha":833,"x_min":68,"x_max":728,"o":"m 68 797 l 83 890 l 214 890 l 235 1014 l 344 1014 l 325 890 l 563 890 l 547 797 l 310 797 l 292 681 l 269 544 l 272 544 q 356 655 297 615 q 500 694 415 694 q 671 623 614 694 q 708 429 728 551 l 640 0 l 531 0 l 597 417 q 572 553 610 504 q 454 601 533 601 q 318 550 374 601 q 249 407 263 499 l 183 0 l 74 0 l 200 797 l 68 797 z "},"ĥ":{"ha":833,"x_min":49,"x_max":742,"o":"m 74 0 l 235 1014 l 344 1014 l 306 775 l 282 628 l 310 628 l 274 583 q 353 726 289 675 q 514 778 417 778 q 685 706 628 778 q 722 513 742 635 l 640 0 l 531 0 l 610 500 q 585 636 624 588 q 468 685 547 685 q 332 633 388 685 q 261 490 276 582 l 183 0 l 74 0 m 49 1118 l 265 1313 l 372 1313 l 529 1118 l 413 1118 l 311 1238 l 174 1118 l 49 1118 z "},"i":{"ha":833,"x_min":56,"x_max":713,"o":"m 56 0 l 71 100 l 344 100 l 433 664 l 196 664 l 211 764 l 560 764 l 454 100 l 713 100 l 697 0 l 56 0 m 522 904 q 457 927 479 904 q 439 988 435 950 q 472 1051 444 1028 q 543 1075 500 1075 q 609 1051 586 1075 q 626 988 632 1028 q 594 927 622 950 q 522 904 567 904 z "},"ı":{"ha":833,"x_min":56,"x_max":713,"o":"m 56 0 l 71 100 l 344 100 l 433 664 l 196 664 l 211 764 l 560 764 l 454 100 l 713 100 l 697 0 l 56 0 z "},"í":{"ha":833,"x_min":56,"x_max":750,"o":"m 56 0 l 71 100 l 344 100 l 433 664 l 196 664 l 211 764 l 560 764 l 454 100 l 713 100 l 697 0 l 56 0 m 446 896 l 624 1090 l 751 1090 l 565 896 l 446 896 z "},"ĭ":{"ha":833,"x_min":56,"x_max":765,"o":"m 56 0 l 71 100 l 344 100 l 433 664 l 196 664 l 211 764 l 560 764 l 454 100 l 713 100 l 697 0 l 56 0 m 517 890 q 369 945 419 890 q 332 1090 318 1000 l 419 1090 q 440 999 411 1033 q 526 964 469 964 q 626 999 586 964 q 675 1090 667 1033 l 765 1090 q 683 945 751 1000 q 517 890 615 890 z "},"î":{"ha":833,"x_min":56,"x_max":758,"o":"m 56 0 l 71 100 l 344 100 l 433 664 l 196 664 l 211 764 l 560 764 l 454 100 l 713 100 l 697 0 l 56 0 m 278 896 l 494 1090 l 601 1090 l 758 896 l 642 896 l 540 1015 l 403 896 l 278 896 z "},"ï":{"ha":833,"x_min":56,"x_max":776,"o":"m 56 0 l 71 100 l 344 100 l 433 664 l 196 664 l 211 764 l 560 764 l 454 100 l 713 100 l 697 0 l 56 0 m 672 904 q 615 926 635 904 q 601 988 596 949 q 635 1051 608 1028 q 700 1075 661 1075 q 757 1051 738 1075 q 769 988 776 1028 q 738 927 764 950 q 672 904 711 904 m 367 904 q 310 926 329 904 q 296 988 290 949 q 329 1051 303 1028 q 393 1075 356 1075 q 452 1051 432 1075 q 465 988 472 1028 q 433 927 460 950 q 367 904 406 904 z "},"ị":{"ha":833,"x_min":56,"x_max":713,"o":"m 56 0 l 71 100 l 344 100 l 433 664 l 196 664 l 211 764 l 560 764 l 454 100 l 713 100 l 697 0 l 56 0 m 522 904 q 457 927 479 904 q 439 988 435 950 q 472 1051 444 1028 q 543 1075 500 1075 q 609 1051 586 1075 q 626 988 632 1028 q 594 927 622 950 q 522 904 567 904 m 331 -293 q 265 -270 286 -293 q 249 -208 243 -247 q 285 -145 256 -168 q 357 -122 314 -122 q 422 -145 401 -122 q 438 -208 443 -168 q 403 -270 432 -247 q 331 -293 374 -293 z "},"ì":{"ha":833,"x_min":56,"x_max":713,"o":"m 56 0 l 71 100 l 344 100 l 433 664 l 196 664 l 211 764 l 560 764 l 454 100 l 713 100 l 697 0 l 56 0 m 482 896 l 354 1090 l 471 1090 l 592 896 l 482 896 z "},"ỉ":{"ha":833,"x_min":56,"x_max":713,"o":"m 56 0 l 71 100 l 344 100 l 433 664 l 196 664 l 211 764 l 560 764 l 454 100 l 713 100 l 697 0 l 56 0 m 463 896 l 549 988 q 569 1014 561 1001 q 578 1035 576 1026 q 540 1065 582 1065 l 428 1065 l 442 1144 l 581 1144 q 660 1119 633 1144 q 681 1047 688 1093 q 668 1007 678 1026 q 644 972 658 988 l 575 896 l 463 896 z "},"ī":{"ha":833,"x_min":56,"x_max":754,"o":"m 56 0 l 71 100 l 344 100 l 433 664 l 196 664 l 211 764 l 560 764 l 454 100 l 713 100 l 697 0 l 56 0 m 310 936 l 325 1028 l 754 1028 l 739 936 l 310 936 z "},"į":{"ha":833,"x_min":56,"x_max":713,"o":"m 340 -279 q 231 -244 269 -279 q 203 -154 193 -210 q 244 -72 210 -114 q 347 14 278 -31 l 438 14 l 419 1 q 342 -71 368 -37 q 310 -133 315 -104 q 322 -183 306 -164 q 374 -203 339 -203 l 458 -203 l 447 -279 l 340 -279 m 56 0 l 71 100 l 344 100 l 433 664 l 196 664 l 211 764 l 560 764 l 454 100 l 713 100 l 697 0 l 56 0 m 522 904 q 457 927 479 904 q 439 988 435 950 q 472 1051 444 1028 q 543 1075 500 1075 q 609 1051 586 1075 q 626 988 632 1028 q 594 927 622 950 q 522 904 567 904 z "},"ĩ":{"ha":833,"x_min":56,"x_max":769,"o":"m 56 0 l 71 100 l 344 100 l 433 664 l 196 664 l 211 764 l 560 764 l 454 100 l 713 100 l 697 0 l 56 0 m 618 903 q 554 919 578 903 q 515 956 531 935 q 483 992 499 976 q 443 1008 468 1008 q 406 994 422 1008 q 386 953 390 981 l 379 910 l 299 910 l 304 953 q 355 1049 315 1015 q 451 1083 394 1083 q 516 1067 492 1083 q 556 1031 540 1051 q 586 994 571 1010 q 625 978 601 978 q 662 992 647 978 q 681 1033 676 1006 l 689 1076 l 769 1076 l 763 1033 q 714 937 753 971 q 618 903 675 903 z "},"j":{"ha":833,"x_min":21,"x_max":732,"o":"m 21 -250 l 38 -149 l 219 -149 q 365 -101 308 -149 q 435 35 421 -53 l 533 664 l 207 664 l 222 764 l 660 764 l 544 35 q 485 -117 532 -53 q 365 -215 438 -181 q 201 -250 293 -250 l 21 -250 m 622 904 q 557 927 579 904 q 539 988 535 950 q 572 1051 544 1028 q 643 1075 600 1075 q 709 1051 686 1075 q 726 988 732 1028 q 694 927 722 950 q 622 904 667 904 z "},"ȷ":{"ha":833,"x_min":21,"x_max":660,"o":"m 21 -250 l 38 -149 l 219 -149 q 365 -101 308 -149 q 435 35 421 -53 l 533 664 l 207 664 l 222 764 l 660 764 l 544 35 q 485 -117 532 -53 q 365 -215 438 -181 q 201 -250 293 -250 l 21 -250 z "},"ĵ":{"ha":833,"x_min":21,"x_max":775,"o":"m 21 -250 l 38 -149 l 219 -149 q 365 -101 308 -149 q 435 35 421 -53 l 533 664 l 207 664 l 222 764 l 660 764 l 544 35 q 485 -117 532 -53 q 365 -215 438 -181 q 201 -250 293 -250 l 21 -250 m 294 896 l 511 1090 l 618 1090 l 775 896 l 658 896 l 557 1015 l 419 896 l 294 896 z "},"k":{"ha":833,"x_min":78,"x_max":808,"o":"m 78 0 l 239 1014 l 349 1014 l 258 443 l 401 443 l 679 764 l 808 764 l 493 394 l 693 0 l 567 0 l 393 347 l 243 347 l 188 0 l 78 0 z "},"ķ":{"ha":833,"x_min":78,"x_max":808,"o":"m 78 0 l 239 1014 l 349 1014 l 258 443 l 401 443 l 679 764 l 808 764 l 493 394 l 693 0 l 567 0 l 393 347 l 243 347 l 188 0 l 78 0 m 160 -333 l 321 -132 l 453 -132 l 275 -333 l 160 -333 z "},"ĸ":{"ha":833,"x_min":79,"x_max":808,"o":"m 79 0 l 200 764 l 311 764 l 260 443 l 401 443 l 679 764 l 808 764 l 494 396 l 693 0 l 567 0 l 393 347 l 244 347 l 190 0 l 79 0 z "},"l":{"ha":833,"x_min":143,"x_max":715,"o":"m 446 0 q 299 56 347 0 q 264 208 250 113 l 376 914 l 143 914 l 160 1014 l 503 1014 l 375 208 q 390 128 367 157 q 461 100 413 100 l 715 100 l 699 0 l 446 0 z "},"ĺ":{"ha":833,"x_min":143,"x_max":715,"o":"m 446 0 q 299 56 347 0 q 264 208 250 113 l 376 914 l 143 914 l 160 1014 l 503 1014 l 375 208 q 390 128 367 157 q 461 100 413 100 l 715 100 l 699 0 l 446 0 m 374 1125 l 551 1319 l 679 1319 l 493 1125 l 374 1125 z "},"ľ":{"ha":833,"x_min":143,"x_max":831,"o":"m 446 0 q 299 56 347 0 q 264 208 250 113 l 376 914 l 143 914 l 160 1014 l 503 1014 l 375 208 q 390 128 367 157 q 461 100 413 100 l 715 100 l 699 0 l 446 0 m 671 764 l 725 1014 l 831 1014 l 763 764 l 671 764 z "},"ļ":{"ha":833,"x_min":138,"x_max":715,"o":"m 446 0 q 299 56 347 0 q 264 208 250 113 l 376 914 l 143 914 l 160 1014 l 503 1014 l 375 208 q 390 128 367 157 q 461 100 413 100 l 715 100 l 699 0 l 446 0 m 138 -333 l 299 -132 l 431 -132 l 253 -333 l 138 -333 z "},"ŀ":{"ha":833,"x_min":115,"x_max":835,"o":"m 418 0 q 271 56 319 0 q 236 208 222 113 l 349 914 l 115 914 l 132 1014 l 475 1014 l 347 208 q 362 128 339 157 q 433 100 385 100 l 688 100 l 671 0 l 418 0 z "},"ł":{"ha":833,"x_min":139,"x_max":715,"o":"m 139 324 l 139 425 l 653 774 l 653 672 l 139 324 m 446 0 q 299 56 347 0 q 264 208 250 113 l 376 914 l 143 914 l 160 1014 l 503 1014 l 375 208 q 390 128 367 157 q 461 100 413 100 l 715 100 l 699 0 l 446 0 z "},"m":{"ha":833,"x_min":35,"x_max":783,"o":"m 35 0 l 156 764 l 253 764 l 239 669 l 258 669 l 239 639 q 290 740 250 703 q 389 778 329 778 q 479 733 451 778 q 497 608 507 689 l 478 669 l 524 669 l 499 639 q 549 740 508 703 q 650 778 590 778 q 752 725 721 778 q 768 585 783 672 l 676 0 l 574 0 l 665 585 q 656 663 672 635 q 599 692 639 692 q 530 663 558 692 q 494 585 501 635 l 401 0 l 310 0 l 401 585 q 392 664 411 636 q 333 692 374 692 q 266 664 293 692 q 231 585 239 636 l 138 0 l 35 0 z "},"n":{"ha":833,"x_min":74,"x_max":742,"o":"m 74 0 l 194 764 l 304 764 l 282 622 l 310 622 l 272 582 q 352 726 288 674 q 514 778 417 778 q 685 706 628 778 q 722 513 742 635 l 640 0 l 531 0 l 610 500 q 585 636 624 588 q 468 685 547 685 q 332 633 388 685 q 261 490 276 582 l 183 0 l 74 0 z "},"ń":{"ha":833,"x_min":74,"x_max":742,"o":"m 74 0 l 194 764 l 304 764 l 282 622 l 310 622 l 272 582 q 352 726 288 674 q 514 778 417 778 q 685 706 628 778 q 722 513 742 635 l 640 0 l 531 0 l 610 500 q 585 636 624 588 q 468 685 547 685 q 332 633 388 685 q 261 490 276 582 l 183 0 l 74 0 m 379 896 l 557 1090 l 685 1090 l 499 896 l 379 896 z "},"ŉ":{"ha":833,"x_min":-104,"x_max":742,"o":"m 74 0 l 194 764 l 304 764 l 282 622 l 310 622 l 272 582 q 352 726 288 674 q 514 778 417 778 q 685 706 628 778 q 722 513 742 635 l 640 0 l 531 0 l 610 500 q 585 636 624 588 q 468 685 547 685 q 332 633 388 685 q 261 490 276 582 l 183 0 l 74 0 m -104 896 l 57 1097 l 189 1097 l 11 896 l -104 896 z "},"ň":{"ha":833,"x_min":74,"x_max":769,"o":"m 74 0 l 194 764 l 304 764 l 282 622 l 310 622 l 272 582 q 352 726 288 674 q 514 778 417 778 q 685 706 628 778 q 722 513 742 635 l 640 0 l 531 0 l 610 500 q 585 636 624 588 q 468 685 547 685 q 332 633 388 685 q 261 490 276 582 l 183 0 l 74 0 m 446 896 l 289 1090 l 406 1090 l 508 971 l 646 1090 l 769 1090 l 553 896 l 446 896 z "},"ņ":{"ha":833,"x_min":74,"x_max":742,"o":"m 74 0 l 194 764 l 304 764 l 282 622 l 310 622 l 272 582 q 352 726 288 674 q 514 778 417 778 q 685 706 628 778 q 722 513 742 635 l 640 0 l 531 0 l 610 500 q 585 636 624 588 q 468 685 547 685 q 332 633 388 685 q 261 490 276 582 l 183 0 l 74 0 m 160 -333 l 321 -132 l 453 -132 l 275 -333 l 160 -333 z "},"ŋ":{"ha":833,"x_min":75,"x_max":739,"o":"m 233 -250 l 250 -150 l 329 -150 q 465 -104 410 -150 q 531 21 519 -58 l 607 500 q 584 636 621 588 q 468 685 547 685 q 333 633 388 685 q 263 490 278 582 l 186 0 l 75 0 l 196 764 l 307 764 l 283 622 l 311 622 l 275 582 q 353 726 290 674 q 514 778 417 778 q 683 706 628 778 q 719 513 739 635 l 642 21 q 584 -122 629 -61 q 469 -217 539 -183 q 313 -250 400 -250 l 233 -250 z "},"ñ":{"ha":833,"x_min":74,"x_max":749,"o":"m 74 0 l 194 764 l 304 764 l 282 622 l 310 622 l 272 582 q 352 726 288 674 q 514 778 417 778 q 685 706 628 778 q 722 513 742 635 l 640 0 l 531 0 l 610 500 q 585 636 624 588 q 468 685 547 685 q 332 633 388 685 q 261 490 276 582 l 183 0 l 74 0 m 597 903 q 533 919 557 903 q 494 956 510 935 q 463 992 478 976 q 422 1008 447 1008 q 385 994 401 1008 q 365 953 369 981 l 358 910 l 278 910 l 283 953 q 334 1049 294 1015 q 431 1083 374 1083 q 495 1067 471 1083 q 535 1031 519 1051 q 565 994 550 1010 q 604 978 581 978 q 641 992 626 978 q 660 1033 656 1006 l 668 1076 l 749 1076 l 742 1033 q 693 937 732 971 q 597 903 654 903 z "},"o":{"ha":833,"x_min":97,"x_max":736,"o":"m 353 -14 q 206 21 265 -14 q 122 120 146 56 q 111 274 97 185 l 144 490 q 205 644 160 579 q 321 743 250 708 q 479 778 392 778 q 627 743 568 778 q 711 644 686 708 q 722 490 736 579 l 688 274 q 628 120 674 185 q 512 21 582 56 q 353 -14 442 -14 m 368 83 q 508 133 454 83 q 578 274 563 182 l 611 490 q 588 631 626 582 q 464 681 549 681 q 325 631 379 681 q 254 490 271 582 l 221 274 q 245 133 207 182 q 368 83 283 83 z "},"ó":{"ha":833,"x_min":97,"x_max":736,"o":"m 353 -14 q 206 21 265 -14 q 122 120 146 56 q 111 274 97 185 l 144 490 q 205 644 160 579 q 321 743 250 708 q 479 778 392 778 q 627 743 568 778 q 711 644 686 708 q 722 490 736 579 l 688 274 q 628 120 674 185 q 512 21 582 56 q 353 -14 442 -14 m 368 83 q 508 133 454 83 q 578 274 563 182 l 611 490 q 588 631 626 582 q 464 681 549 681 q 325 631 379 681 q 254 490 271 582 l 221 274 q 245 133 207 182 q 368 83 283 83 m 425 896 l 603 1090 l 731 1090 l 544 896 l 425 896 z "},"ŏ":{"ha":833,"x_min":97,"x_max":744,"o":"m 353 -14 q 206 21 265 -14 q 122 120 146 56 q 111 274 97 185 l 144 490 q 205 644 160 579 q 321 743 250 708 q 479 778 392 778 q 627 743 568 778 q 711 644 686 708 q 722 490 736 579 l 688 274 q 628 120 674 185 q 512 21 582 56 q 353 -14 442 -14 m 368 83 q 508 133 454 83 q 578 274 563 182 l 611 490 q 588 631 626 582 q 464 681 549 681 q 325 631 379 681 q 254 490 271 582 l 221 274 q 245 133 207 182 q 368 83 283 83 m 496 890 q 348 945 399 890 q 311 1090 297 1000 l 399 1090 q 419 999 390 1033 q 506 964 449 964 q 606 999 565 964 q 654 1090 646 1033 l 744 1090 q 663 945 731 1000 q 496 890 594 890 z "},"ô":{"ha":833,"x_min":97,"x_max":738,"o":"m 353 -14 q 206 21 265 -14 q 122 120 146 56 q 111 274 97 185 l 144 490 q 205 644 160 579 q 321 743 250 708 q 479 778 392 778 q 627 743 568 778 q 711 644 686 708 q 722 490 736 579 l 688 274 q 628 120 674 185 q 512 21 582 56 q 353 -14 442 -14 m 368 83 q 508 133 454 83 q 578 274 563 182 l 611 490 q 588 631 626 582 q 464 681 549 681 q 325 631 379 681 q 254 490 271 582 l 221 274 q 245 133 207 182 q 368 83 283 83 m 257 896 l 474 1090 l 581 1090 l 738 896 l 621 896 l 519 1015 l 382 896 l 257 896 z "},"ố":{"ha":833,"x_min":97,"x_max":989,"o":"m 353 -14 q 206 21 265 -14 q 122 120 146 56 q 111 274 97 185 l 144 490 q 205 644 160 579 q 321 743 250 708 q 479 778 392 778 q 627 743 568 778 q 711 644 686 708 q 722 490 736 579 l 688 274 q 628 120 674 185 q 512 21 582 56 q 353 -14 442 -14 m 368 83 q 508 133 454 83 q 578 274 563 182 l 611 490 q 588 631 626 582 q 464 681 549 681 q 325 631 379 681 q 254 490 271 582 l 221 274 q 245 133 207 182 q 368 83 283 83 m 669 1056 l 860 1250 l 989 1250 l 790 1056 l 669 1056 m 257 896 l 474 1090 l 581 1090 l 738 896 l 621 896 l 519 1015 l 382 896 l 257 896 z "},"ộ":{"ha":833,"x_min":97,"x_max":738,"o":"m 257 896 l 474 1090 l 581 1090 l 738 896 l 621 896 l 519 1015 l 382 896 l 257 896 m 353 -14 q 206 21 265 -14 q 122 120 146 56 q 111 274 97 185 l 144 490 q 205 644 160 579 q 321 743 250 708 q 479 778 392 778 q 627 743 568 778 q 711 644 686 708 q 722 490 736 579 l 688 274 q 628 120 674 185 q 512 21 582 56 q 353 -14 442 -14 m 368 83 q 508 133 454 83 q 578 274 563 182 l 611 490 q 588 631 626 582 q 464 681 549 681 q 325 631 379 681 q 254 490 271 582 l 221 274 q 245 133 207 182 q 368 83 283 83 m 324 -293 q 258 -270 279 -293 q 242 -208 236 -247 q 278 -145 249 -168 q 350 -122 307 -122 q 415 -145 394 -122 q 431 -208 436 -168 q 396 -270 425 -247 q 324 -293 367 -293 z "},"ồ":{"ha":833,"x_min":97,"x_max":856,"o":"m 353 -14 q 206 21 265 -14 q 122 120 146 56 q 111 274 97 185 l 144 490 q 205 644 160 579 q 321 743 250 708 q 479 778 392 778 q 627 743 568 778 q 711 644 686 708 q 722 490 736 579 l 688 274 q 628 120 674 185 q 512 21 582 56 q 353 -14 442 -14 m 368 83 q 508 133 454 83 q 578 274 563 182 l 611 490 q 588 631 626 582 q 464 681 549 681 q 325 631 379 681 q 254 490 271 582 l 221 274 q 245 133 207 182 q 368 83 283 83 m 746 1056 l 596 1250 l 715 1250 l 856 1056 l 746 1056 m 257 896 l 474 1090 l 581 1090 l 738 896 l 621 896 l 519 1015 l 382 896 l 257 896 z "},"ổ":{"ha":833,"x_min":97,"x_max":892,"o":"m 353 -14 q 206 21 265 -14 q 122 120 146 56 q 111 274 97 185 l 144 490 q 205 644 160 579 q 321 743 250 708 q 479 778 392 778 q 627 743 568 778 q 711 644 686 708 q 722 490 736 579 l 688 274 q 628 120 674 185 q 512 21 582 56 q 353 -14 442 -14 m 368 83 q 508 133 454 83 q 578 274 563 182 l 611 490 q 588 631 626 582 q 464 681 549 681 q 325 631 379 681 q 254 490 271 582 l 221 274 q 245 133 207 182 q 368 83 283 83 m 682 1056 l 761 1143 q 782 1182 781 1164 q 749 1217 788 1217 l 671 1217 l 682 1290 l 776 1290 q 862 1265 832 1290 q 885 1197 892 1239 q 847 1125 879 1161 l 786 1056 l 682 1056 m 257 896 l 474 1090 l 581 1090 l 738 896 l 621 896 l 519 1015 l 382 896 l 257 896 z "},"ỗ":{"ha":833,"x_min":97,"x_max":775,"o":"m 353 -14 q 206 21 265 -14 q 122 120 146 56 q 111 274 97 185 l 144 490 q 205 644 160 579 q 321 743 250 708 q 479 778 392 778 q 627 743 568 778 q 711 644 686 708 q 722 490 736 579 l 688 274 q 628 120 674 185 q 512 21 582 56 q 353 -14 442 -14 m 368 83 q 508 133 454 83 q 578 274 563 182 l 611 490 q 588 631 626 582 q 464 681 549 681 q 325 631 379 681 q 254 490 271 582 l 221 274 q 245 133 207 182 q 368 83 283 83 m 628 1129 q 563 1142 586 1129 q 526 1174 540 1156 q 498 1206 513 1192 q 458 1219 483 1219 q 406 1174 414 1219 l 400 1139 l 319 1139 l 324 1168 q 372 1256 332 1224 q 468 1288 411 1288 q 534 1274 511 1288 q 571 1243 557 1261 q 599 1211 585 1225 q 638 1197 613 1197 q 689 1243 681 1197 l 694 1278 l 775 1278 l 771 1249 q 724 1161 763 1193 q 628 1129 685 1129 m 257 896 l 474 1090 l 581 1090 l 738 896 l 621 896 l 519 1015 l 382 896 l 257 896 z "},"ö":{"ha":833,"x_min":97,"x_max":756,"o":"m 353 -14 q 206 21 265 -14 q 122 120 146 56 q 111 274 97 185 l 144 490 q 205 644 160 579 q 321 743 250 708 q 479 778 392 778 q 627 743 568 778 q 711 644 686 708 q 722 490 736 579 l 688 274 q 628 120 674 185 q 512 21 582 56 q 353 -14 442 -14 m 368 83 q 508 133 454 83 q 578 274 563 182 l 611 490 q 588 631 626 582 q 464 681 549 681 q 325 631 379 681 q 254 490 271 582 l 221 274 q 245 133 207 182 q 368 83 283 83 m 651 904 q 594 926 614 904 q 581 988 575 949 q 614 1051 588 1028 q 679 1075 640 1075 q 736 1051 717 1075 q 749 988 756 1028 q 717 927 743 950 q 651 904 690 904 m 346 904 q 289 926 308 904 q 275 988 269 949 q 308 1051 282 1028 q 372 1075 335 1075 q 431 1051 411 1075 q 444 988 451 1028 q 412 927 439 950 q 346 904 385 904 z "},"ọ":{"ha":833,"x_min":97,"x_max":736,"o":"m 353 -14 q 206 21 265 -14 q 122 120 146 56 q 111 274 97 185 l 144 490 q 205 644 160 579 q 321 743 250 708 q 479 778 392 778 q 627 743 568 778 q 711 644 686 708 q 722 490 736 579 l 688 274 q 628 120 674 185 q 512 21 582 56 q 353 -14 442 -14 m 368 83 q 508 133 454 83 q 578 274 563 182 l 611 490 q 588 631 626 582 q 464 681 549 681 q 325 631 379 681 q 254 490 271 582 l 221 274 q 245 133 207 182 q 368 83 283 83 m 324 -293 q 258 -270 279 -293 q 242 -208 236 -247 q 278 -145 249 -168 q 350 -122 307 -122 q 415 -145 394 -122 q 431 -208 436 -168 q 396 -270 425 -247 q 324 -293 367 -293 z "},"ò":{"ha":833,"x_min":97,"x_max":736,"o":"m 353 -14 q 206 21 265 -14 q 122 120 146 56 q 111 274 97 185 l 144 490 q 205 644 160 579 q 321 743 250 708 q 479 778 392 778 q 627 743 568 778 q 711 644 686 708 q 722 490 736 579 l 688 274 q 628 120 674 185 q 512 21 582 56 q 353 -14 442 -14 m 368 83 q 508 133 454 83 q 578 274 563 182 l 611 490 q 588 631 626 582 q 464 681 549 681 q 325 631 379 681 q 254 490 271 582 l 221 274 q 245 133 207 182 q 368 83 283 83 m 461 896 l 333 1090 l 450 1090 l 571 896 l 461 896 z "},"ỏ":{"ha":833,"x_min":97,"x_max":736,"o":"m 353 -14 q 206 21 265 -14 q 122 120 146 56 q 111 274 97 185 l 144 490 q 205 644 160 579 q 321 743 250 708 q 479 778 392 778 q 627 743 568 778 q 711 644 686 708 q 722 490 736 579 l 688 274 q 628 120 674 185 q 512 21 582 56 q 353 -14 442 -14 m 368 83 q 508 133 454 83 q 578 274 563 182 l 611 490 q 588 631 626 582 q 464 681 549 681 q 325 631 379 681 q 254 490 271 582 l 221 274 q 245 133 207 182 q 368 83 283 83 m 438 896 l 524 988 q 544 1014 536 1001 q 553 1035 551 1026 q 515 1065 557 1065 l 403 1065 l 417 1144 l 556 1144 q 635 1119 608 1144 q 656 1047 663 1093 q 643 1007 653 1026 q 619 972 633 988 l 550 896 l 438 896 z "},"ơ":{"ha":833,"x_min":97,"x_max":824,"o":"m 597 657 l 610 736 l 657 736 q 698 751 682 736 q 717 790 714 765 l 733 889 l 824 889 l 808 785 q 755 692 799 728 q 650 657 711 657 l 597 657 m 353 -14 q 206 21 265 -14 q 122 120 146 56 q 111 274 97 185 l 144 490 q 205 644 160 579 q 321 743 250 708 q 479 778 392 778 q 627 743 568 778 q 711 644 686 708 q 722 490 736 579 l 688 274 q 628 120 674 185 q 512 21 582 56 q 353 -14 442 -14 m 368 83 q 508 133 454 83 q 578 274 563 182 l 611 490 q 588 631 626 582 q 464 681 549 681 q 325 631 379 681 q 254 490 271 582 l 221 274 q 245 133 207 182 q 368 83 283 83 z "},"ớ":{"ha":833,"x_min":97,"x_max":824,"o":"m 597 657 l 610 736 l 657 736 q 698 751 682 736 q 717 790 714 765 l 733 889 l 824 889 l 808 785 q 755 692 799 728 q 650 657 711 657 l 597 657 m 353 -14 q 206 21 265 -14 q 122 120 146 56 q 111 274 97 185 l 144 490 q 205 644 160 579 q 321 743 250 708 q 479 778 392 778 q 627 743 568 778 q 711 644 686 708 q 722 490 736 579 l 688 274 q 628 120 674 185 q 512 21 582 56 q 353 -14 442 -14 m 368 83 q 508 133 454 83 q 578 274 563 182 l 611 490 q 588 631 626 582 q 464 681 549 681 q 325 631 379 681 q 254 490 271 582 l 221 274 q 245 133 207 182 q 368 83 283 83 m 414 896 l 592 1090 l 719 1090 l 533 896 l 414 896 z "},"ợ":{"ha":833,"x_min":97,"x_max":824,"o":"m 597 657 l 610 736 l 657 736 q 698 751 682 736 q 717 790 714 765 l 733 889 l 824 889 l 808 785 q 755 692 799 728 q 650 657 711 657 l 597 657 m 353 -14 q 206 21 265 -14 q 122 120 146 56 q 111 274 97 185 l 144 490 q 205 644 160 579 q 321 743 250 708 q 479 778 392 778 q 627 743 568 778 q 711 644 686 708 q 722 490 736 579 l 688 274 q 628 120 674 185 q 512 21 582 56 q 353 -14 442 -14 m 368 83 q 508 133 454 83 q 578 274 563 182 l 611 490 q 588 631 626 582 q 464 681 549 681 q 325 631 379 681 q 254 490 271 582 l 221 274 q 245 133 207 182 q 368 83 283 83 m 324 -293 q 258 -270 279 -293 q 242 -208 236 -247 q 278 -145 249 -168 q 350 -122 307 -122 q 415 -145 394 -122 q 431 -208 436 -168 q 396 -270 425 -247 q 324 -293 367 -293 z "},"ờ":{"ha":833,"x_min":97,"x_max":824,"o":"m 597 657 l 610 736 l 657 736 q 698 751 682 736 q 717 790 714 765 l 733 889 l 824 889 l 808 785 q 755 692 799 728 q 650 657 711 657 l 597 657 m 353 -14 q 206 21 265 -14 q 122 120 146 56 q 111 274 97 185 l 144 490 q 205 644 160 579 q 321 743 250 708 q 479 778 392 778 q 627 743 568 778 q 711 644 686 708 q 722 490 736 579 l 688 274 q 628 120 674 185 q 512 21 582 56 q 353 -14 442 -14 m 368 83 q 508 133 454 83 q 578 274 563 182 l 611 490 q 588 631 626 582 q 464 681 549 681 q 325 631 379 681 q 254 490 271 582 l 221 274 q 245 133 207 182 q 368 83 283 83 m 450 896 l 322 1090 l 439 1090 l 560 896 l 450 896 z "},"ở":{"ha":833,"x_min":97,"x_max":824,"o":"m 597 657 l 610 736 l 657 736 q 698 751 682 736 q 717 790 714 765 l 733 889 l 824 889 l 808 785 q 755 692 799 728 q 650 657 711 657 l 597 657 m 353 -14 q 206 21 265 -14 q 122 120 146 56 q 111 274 97 185 l 144 490 q 205 644 160 579 q 321 743 250 708 q 479 778 392 778 q 627 743 568 778 q 711 644 686 708 q 722 490 736 579 l 688 274 q 628 120 674 185 q 512 21 582 56 q 353 -14 442 -14 m 368 83 q 508 133 454 83 q 578 274 563 182 l 611 490 q 588 631 626 582 q 464 681 549 681 q 325 631 379 681 q 254 490 271 582 l 221 274 q 245 133 207 182 q 368 83 283 83 m 438 896 l 524 988 q 544 1014 536 1001 q 553 1035 551 1026 q 515 1065 557 1065 l 403 1065 l 417 1144 l 556 1144 q 635 1119 608 1144 q 656 1047 663 1093 q 643 1007 653 1026 q 619 972 633 988 l 550 896 l 438 896 z "},"ỡ":{"ha":833,"x_min":97,"x_max":824,"o":"m 597 657 l 610 736 l 657 736 q 698 751 682 736 q 717 790 714 765 l 733 889 l 824 889 l 808 785 q 755 692 799 728 q 650 657 711 657 l 597 657 m 353 -14 q 206 21 265 -14 q 122 120 146 56 q 111 274 97 185 l 144 490 q 205 644 160 579 q 321 743 250 708 q 479 778 392 778 q 627 743 568 778 q 711 644 686 708 q 722 490 736 579 l 688 274 q 628 120 674 185 q 512 21 582 56 q 353 -14 442 -14 m 368 83 q 508 133 454 83 q 578 274 563 182 l 611 490 q 588 631 626 582 q 464 681 549 681 q 325 631 379 681 q 254 490 271 582 l 221 274 q 245 133 207 182 q 368 83 283 83 m 586 903 q 522 919 546 903 q 483 956 499 935 q 451 992 467 976 q 411 1008 436 1008 q 374 994 390 1008 q 354 953 358 981 l 347 910 l 267 910 l 272 953 q 323 1049 283 1015 q 419 1083 363 1083 q 484 1067 460 1083 q 524 1031 508 1051 q 554 994 539 1010 q 593 978 569 978 q 630 992 615 978 q 649 1033 644 1006 l 657 1076 l 738 1076 l 731 1033 q 682 937 721 971 q 586 903 643 903 z "},"ő":{"ha":833,"x_min":97,"x_max":836,"o":"m 353 -14 q 206 21 265 -14 q 122 120 146 56 q 111 274 97 185 l 144 490 q 205 644 160 579 q 321 743 250 708 q 479 778 392 778 q 627 743 568 778 q 711 644 686 708 q 722 490 736 579 l 688 274 q 628 120 674 185 q 512 21 582 56 q 353 -14 442 -14 m 368 83 q 508 133 454 83 q 578 274 563 182 l 611 490 q 588 631 626 582 q 464 681 549 681 q 325 631 379 681 q 254 490 271 582 l 221 274 q 245 133 207 182 q 368 83 283 83 m 536 896 l 718 1090 l 836 1090 l 647 896 l 536 896 m 293 896 l 475 1090 l 593 1090 l 404 896 l 293 896 z "},"ō":{"ha":833,"x_min":97,"x_max":736,"o":"m 353 -14 q 206 21 265 -14 q 122 120 146 56 q 111 274 97 185 l 144 490 q 205 644 160 579 q 321 743 250 708 q 479 778 392 778 q 627 743 568 778 q 711 644 686 708 q 722 490 736 579 l 688 274 q 628 120 674 185 q 512 21 582 56 q 353 -14 442 -14 m 368 83 q 508 133 454 83 q 578 274 563 182 l 611 490 q 588 631 626 582 q 464 681 549 681 q 325 631 379 681 q 254 490 271 582 l 221 274 q 245 133 207 182 q 368 83 283 83 m 289 936 l 304 1028 l 733 1028 l 718 936 l 289 936 z "},"ǫ":{"ha":833,"x_min":97,"x_max":736,"o":"m 413 -279 q 303 -244 340 -279 q 275 -154 265 -210 q 303 -90 279 -124 q 379 -12 326 -56 q 372 -13 376 -12 q 363 -14 367 -14 q 353 -14 358 -14 q 206 21 265 -14 q 122 120 146 56 q 111 274 97 185 l 144 490 q 205 644 160 579 q 321 743 250 708 q 479 778 392 778 q 627 743 568 778 q 711 644 686 708 q 722 490 736 579 l 688 274 q 633 128 674 190 q 529 31 592 67 l 490 1 q 413 -71 439 -37 q 382 -133 386 -104 q 394 -183 376 -164 q 446 -203 411 -203 l 531 -203 l 518 -279 l 413 -279 m 368 83 q 508 133 454 83 q 578 274 563 182 l 611 490 q 588 631 626 582 q 464 681 549 681 q 325 631 379 681 q 254 490 271 582 l 221 274 q 245 133 207 182 q 368 83 283 83 z "},"ø":{"ha":833,"x_min":-11,"x_max":844,"o":"m -11 -42 l 731 819 l 844 819 l 101 -42 l -11 -42 m 353 -14 q 206 21 265 -14 q 122 120 146 56 q 111 274 97 185 l 144 490 q 204 644 158 579 q 321 743 250 708 q 479 778 392 778 q 627 743 568 778 q 711 644 686 708 q 722 490 736 579 l 688 274 q 628 120 674 185 q 512 21 582 56 q 353 -14 442 -14 m 368 83 q 512 134 456 83 q 582 274 568 185 l 615 490 q 590 631 631 581 q 464 681 550 681 q 320 631 376 681 q 250 490 264 581 l 217 274 q 242 134 201 185 q 368 83 282 83 z "},"ǿ":{"ha":833,"x_min":-11,"x_max":844,"o":"m -11 -42 l 731 819 l 844 819 l 101 -42 l -11 -42 m 353 -14 q 206 21 265 -14 q 122 120 146 56 q 111 274 97 185 l 144 490 q 204 644 158 579 q 321 743 250 708 q 479 778 392 778 q 627 743 568 778 q 711 644 686 708 q 722 490 736 579 l 688 274 q 628 120 674 185 q 512 21 582 56 q 353 -14 442 -14 m 368 83 q 512 134 456 83 q 582 274 568 185 l 615 490 q 590 631 631 581 q 464 681 550 681 q 320 631 376 681 q 250 490 264 581 l 217 274 q 242 134 201 185 q 368 83 282 83 m 425 896 l 603 1090 l 731 1090 l 544 896 l 425 896 z "},"õ":{"ha":833,"x_min":97,"x_max":749,"o":"m 353 -14 q 206 21 265 -14 q 122 120 146 56 q 111 274 97 185 l 144 490 q 205 644 160 579 q 321 743 250 708 q 479 778 392 778 q 627 743 568 778 q 711 644 686 708 q 722 490 736 579 l 688 274 q 628 120 674 185 q 512 21 582 56 q 353 -14 442 -14 m 368 83 q 508 133 454 83 q 578 274 563 182 l 611 490 q 588 631 626 582 q 464 681 549 681 q 325 631 379 681 q 254 490 271 582 l 221 274 q 245 133 207 182 q 368 83 283 83 m 597 903 q 533 919 557 903 q 494 956 510 935 q 463 992 478 976 q 422 1008 447 1008 q 385 994 401 1008 q 365 953 369 981 l 358 910 l 278 910 l 283 953 q 334 1049 294 1015 q 431 1083 374 1083 q 495 1067 471 1083 q 535 1031 519 1051 q 565 994 550 1010 q 604 978 581 978 q 641 992 626 978 q 660 1033 656 1006 l 668 1076 l 749 1076 l 742 1033 q 693 937 732 971 q 597 903 654 903 z "},"œ":{"ha":833,"x_min":4,"x_max":828,"o":"m 183 -14 q 48 45 92 -14 q 19 204 4 104 l 76 558 q 156 719 92 660 q 313 778 219 778 q 401 759 368 778 q 447 715 433 740 q 460 664 461 689 l 464 664 q 493 715 471 689 q 554 759 515 740 q 647 778 593 778 q 783 719 739 778 q 813 560 828 660 l 779 351 l 465 351 l 442 204 q 456 115 433 149 q 526 81 479 81 q 600 106 568 81 q 646 174 632 132 l 750 174 q 663 37 725 88 q 522 -14 601 -14 q 434 4 467 -14 q 388 49 401 22 q 375 99 374 75 l 369 99 q 340 49 364 75 q 278 4 317 22 q 183 -14 240 -14 m 214 81 q 294 115 261 81 q 336 204 328 149 l 392 560 q 378 649 401 615 q 308 683 356 683 q 225 649 260 683 q 181 558 190 615 l 125 204 q 141 115 117 149 q 214 81 165 81 m 479 444 l 689 444 l 707 560 q 692 649 715 615 q 619 683 668 683 q 540 649 572 683 q 497 560 507 615 l 479 444 z "},"p":{"ha":833,"x_min":33,"x_max":742,"o":"m 33 -250 l 194 764 l 304 764 l 282 629 l 311 629 l 272 583 q 353 726 286 674 q 518 778 421 778 q 688 702 633 778 q 722 496 742 626 l 686 269 q 632 119 672 182 q 530 21 592 56 q 392 -14 468 -14 q 245 39 296 -14 q 208 181 194 92 l 231 135 l 203 135 l 181 -21 l 143 -250 l 33 -250 m 372 82 q 509 132 456 82 q 578 274 563 182 l 611 490 q 588 633 626 583 q 468 682 550 682 q 331 631 386 682 q 261 490 276 581 l 228 274 q 252 133 213 183 q 372 82 292 82 z "},"þ":{"ha":833,"x_min":28,"x_max":738,"o":"m 28 -250 l 81 82 l 192 82 l 139 -250 l 28 -250 m 385 -14 q 239 38 289 -14 q 203 181 189 90 l 229 135 l 200 135 l 178 0 l 68 0 l 229 1014 l 339 1014 l 304 796 l 275 629 l 303 629 l 267 583 q 349 725 282 672 q 511 778 417 778 q 682 701 626 778 q 717 494 738 625 l 682 268 q 627 118 668 181 q 524 21 586 56 q 385 -14 461 -14 m 367 82 q 503 132 450 82 q 572 274 557 182 l 606 490 q 583 632 621 582 q 461 682 544 682 q 326 631 381 682 q 256 490 271 581 l 222 274 q 247 133 207 183 q 367 82 286 82 z "},"q":{"ha":833,"x_min":90,"x_max":758,"o":"m 488 -250 l 522 -32 l 551 135 l 525 135 l 560 181 q 478 39 546 92 q 315 -14 411 -14 q 145 63 200 -14 q 110 269 90 139 l 146 496 q 201 647 160 583 q 303 744 242 710 q 442 778 365 778 q 588 726 538 778 q 624 583 638 674 l 599 629 l 626 629 l 649 764 l 758 764 l 597 -250 l 488 -250 m 365 82 q 502 133 447 82 q 571 274 557 183 l 604 490 q 582 631 621 581 q 460 682 543 682 q 324 633 378 682 q 254 490 271 583 l 221 274 q 244 132 207 182 q 365 82 282 82 z "},"r":{"ha":833,"x_min":99,"x_max":774,"o":"m 99 0 l 219 764 l 328 764 l 306 629 l 336 629 l 282 539 q 365 717 300 656 q 535 778 429 778 q 715 702 656 778 q 754 499 774 626 l 746 453 l 633 453 l 640 490 q 617 634 656 583 q 496 685 579 685 q 357 633 413 685 q 286 490 301 582 l 210 0 l 99 0 z "},"ŕ":{"ha":833,"x_min":99,"x_max":774,"o":"m 99 0 l 219 764 l 328 764 l 306 629 l 336 629 l 282 539 q 365 717 300 656 q 535 778 429 778 q 715 702 656 778 q 754 499 774 626 l 746 453 l 633 453 l 640 490 q 617 634 656 583 q 496 685 579 685 q 357 633 413 685 q 286 490 301 582 l 210 0 l 99 0 m 453 896 l 631 1090 l 758 1090 l 572 896 l 453 896 z "},"ř":{"ha":833,"x_min":99,"x_max":797,"o":"m 99 0 l 219 764 l 328 764 l 306 629 l 336 629 l 282 539 q 365 717 300 656 q 535 778 429 778 q 715 702 656 778 q 754 499 774 626 l 746 453 l 633 453 l 640 490 q 617 634 656 583 q 496 685 579 685 q 357 633 413 685 q 286 490 301 582 l 210 0 l 99 0 m 474 896 l 317 1090 l 433 1090 l 536 971 l 674 1090 l 797 1090 l 581 896 l 474 896 z "},"ŗ":{"ha":833,"x_min":-69,"x_max":774,"o":"m 99 0 l 219 764 l 328 764 l 306 629 l 336 629 l 282 539 q 365 717 300 656 q 535 778 429 778 q 715 702 656 778 q 754 499 774 626 l 746 453 l 633 453 l 640 490 q 617 634 656 583 q 496 685 579 685 q 357 633 413 685 q 286 490 301 582 l 210 0 l 99 0 m -69 -333 l 92 -132 l 224 -132 l 46 -333 l -69 -333 z "},"s":{"ha":833,"x_min":85,"x_max":736,"o":"m 319 -14 q 145 42 206 -14 q 89 188 85 97 l 199 188 q 237 113 201 142 q 336 85 272 85 l 404 85 q 522 118 478 85 q 574 206 565 151 q 553 290 582 257 q 465 333 525 324 l 353 351 q 200 419 247 368 q 168 563 153 469 q 258 721 183 664 q 458 778 333 778 l 513 778 q 678 726 621 778 q 736 586 736 674 l 626 586 q 591 653 624 628 q 497 679 558 679 l 443 679 q 328 649 369 679 q 279 563 288 618 q 296 485 271 511 q 383 449 321 458 l 494 431 q 653 360 606 414 q 686 210 700 307 q 592 47 668 107 q 388 -14 517 -14 l 319 -14 z "},"ś":{"ha":833,"x_min":85,"x_max":743,"o":"m 319 -14 q 145 42 206 -14 q 89 188 85 97 l 199 188 q 237 113 201 142 q 336 85 272 85 l 404 85 q 522 118 478 85 q 574 206 565 151 q 553 290 582 257 q 465 333 525 324 l 353 351 q 200 419 247 368 q 168 563 153 469 q 258 721 183 664 q 458 778 333 778 l 513 778 q 678 726 621 778 q 736 586 736 674 l 626 586 q 591 653 624 628 q 497 679 558 679 l 443 679 q 328 649 369 679 q 279 563 288 618 q 296 485 271 511 q 383 449 321 458 l 494 431 q 653 360 606 414 q 686 210 700 307 q 592 47 668 107 q 388 -14 517 -14 l 319 -14 m 439 896 l 617 1090 l 744 1090 l 558 896 l 439 896 z "},"š":{"ha":833,"x_min":85,"x_max":783,"o":"m 319 -14 q 145 42 206 -14 q 89 188 85 97 l 199 188 q 237 113 201 142 q 336 85 272 85 l 404 85 q 522 118 478 85 q 574 206 565 151 q 553 290 582 257 q 465 333 525 324 l 353 351 q 200 419 247 368 q 168 563 153 469 q 258 721 183 664 q 458 778 333 778 l 513 778 q 678 726 621 778 q 736 586 736 674 l 626 586 q 591 653 624 628 q 497 679 558 679 l 443 679 q 328 649 369 679 q 279 563 288 618 q 296 485 271 511 q 383 449 321 458 l 494 431 q 653 360 606 414 q 686 210 700 307 q 592 47 668 107 q 388 -14 517 -14 l 319 -14 m 460 896 l 303 1090 l 419 1090 l 522 971 l 660 1090 l 783 1090 l 567 896 l 460 896 z "},"ş":{"ha":833,"x_min":85,"x_max":736,"o":"m 288 -279 l 290 -210 l 390 -210 q 442 -193 422 -210 q 463 -158 463 -176 q 425 -113 464 -132 q 315 -94 386 -94 l 369 36 l 443 36 l 410 -49 q 482 -65 444 -51 q 544 -104 519 -79 q 568 -165 569 -129 q 520 -246 565 -212 q 404 -279 475 -279 l 288 -279 m 319 -14 q 145 42 206 -14 q 89 188 85 97 l 199 188 q 237 113 201 142 q 336 85 272 85 l 404 85 q 522 118 478 85 q 574 206 565 151 q 553 290 582 257 q 465 333 525 324 l 353 351 q 200 419 247 368 q 168 563 153 469 q 258 721 183 664 q 458 778 333 778 l 513 778 q 678 726 621 778 q 736 586 736 674 l 626 586 q 591 653 624 628 q 497 679 558 679 l 443 679 q 328 649 369 679 q 279 563 288 618 q 296 485 271 511 q 383 449 321 458 l 494 431 q 653 360 606 414 q 686 210 700 307 q 592 47 668 107 q 388 -14 517 -14 l 319 -14 z "},"ŝ":{"ha":833,"x_min":85,"x_max":751,"o":"m 319 -14 q 145 42 206 -14 q 89 188 85 97 l 199 188 q 237 113 201 142 q 336 85 272 85 l 404 85 q 522 118 478 85 q 574 206 565 151 q 553 290 582 257 q 465 333 525 324 l 353 351 q 200 419 247 368 q 168 563 153 469 q 258 721 183 664 q 458 778 333 778 l 513 778 q 678 726 621 778 q 736 586 736 674 l 626 586 q 591 653 624 628 q 497 679 558 679 l 443 679 q 328 649 369 679 q 279 563 288 618 q 296 485 271 511 q 383 449 321 458 l 494 431 q 653 360 606 414 q 686 210 700 307 q 592 47 668 107 q 388 -14 517 -14 l 319 -14 m 271 896 l 488 1090 l 594 1090 l 751 896 l 635 896 l 533 1015 l 396 896 l 271 896 z "},"ș":{"ha":833,"x_min":85,"x_max":736,"o":"m 319 -14 q 145 42 206 -14 q 89 188 85 97 l 199 188 q 237 113 201 142 q 336 85 272 85 l 404 85 q 522 118 478 85 q 574 206 565 151 q 553 290 582 257 q 465 333 525 324 l 353 351 q 200 419 247 368 q 168 563 153 469 q 258 721 183 664 q 458 778 333 778 l 513 778 q 678 726 621 778 q 736 586 736 674 l 626 586 q 591 653 624 628 q 497 679 558 679 l 443 679 q 328 649 369 679 q 279 563 288 618 q 296 485 271 511 q 383 449 321 458 l 494 431 q 653 360 606 414 q 686 210 700 307 q 592 47 668 107 q 388 -14 517 -14 l 319 -14 m 149 -333 l 310 -132 l 442 -132 l 264 -333 l 149 -333 z "},"ß":{"ha":833,"x_min":-183,"x_max":785,"o":"m -183 -250 l -167 -150 l -62 -150 q 26 -123 -6 -150 q 67 -40 58 -96 l 192 744 q 251 894 206 831 q 367 993 297 958 q 524 1028 436 1028 q 671 997 611 1028 q 758 908 731 967 q 771 768 785 850 q 722 642 760 697 q 625 557 683 588 q 494 528 567 526 l 497 546 q 629 516 576 547 q 705 426 682 485 q 715 289 728 368 q 655 138 701 203 q 536 36 608 72 q 372 0 464 0 l 282 0 l 299 100 l 378 100 q 527 151 468 100 q 600 289 586 203 q 572 424 614 375 q 438 472 529 472 l 378 472 l 393 568 l 450 568 q 587 619 532 568 q 654 747 642 669 q 628 880 667 832 q 507 928 589 928 q 371 878 426 928 q 301 744 315 829 l 178 -40 q 93 -194 161 -137 q -81 -250 25 -250 l -183 -250 z "},"ſ":{"ha":833,"x_min":-57,"x_max":871,"o":"m -57 -250 l -42 -150 l 115 -150 q 205 -123 172 -150 q 246 -40 238 -96 l 379 804 q 424 916 390 869 q 512 988 457 963 q 636 1014 567 1014 l 871 1014 l 854 914 l 619 914 q 530 887 563 914 q 489 804 497 860 l 356 -40 q 273 -194 342 -137 q 99 -250 204 -250 l -57 -250 z "},"t":{"ha":833,"x_min":126,"x_max":776,"o":"m 439 0 q 299 51 343 0 q 269 194 254 101 l 343 664 l 126 664 l 142 764 l 358 764 l 392 972 l 503 972 l 469 764 l 776 764 l 761 664 l 453 664 l 379 194 q 454 100 364 100 l 657 100 l 642 0 l 439 0 z "},"ŧ":{"ha":833,"x_min":114,"x_max":776,"o":"m 114 340 l 129 432 l 664 432 l 649 340 l 114 340 m 439 0 q 299 51 343 0 q 269 194 254 101 l 343 664 l 126 664 l 142 764 l 358 764 l 392 972 l 503 972 l 469 764 l 776 764 l 761 664 l 453 664 l 379 194 q 454 100 364 100 l 657 100 l 642 0 l 439 0 z "},"ť":{"ha":833,"x_min":126,"x_max":874,"o":"m 594 861 l 750 1078 l 874 1078 l 700 861 l 594 861 m 439 0 q 299 51 343 0 q 269 194 254 101 l 343 664 l 126 664 l 142 764 l 358 764 l 392 972 l 503 972 l 469 764 l 776 764 l 761 664 l 453 664 l 379 194 q 454 100 364 100 l 657 100 l 642 0 l 439 0 z "},"ţ":{"ha":833,"x_min":126,"x_max":776,"o":"m 369 -279 l 369 -210 l 471 -210 q 522 -193 503 -210 q 540 -158 540 -176 q 501 -113 540 -132 q 390 -94 461 -94 l 439 36 l 513 36 l 482 -49 q 556 -65 518 -51 q 619 -104 593 -79 q 646 -165 646 -129 q 602 -246 646 -212 q 486 -279 558 -279 l 369 -279 m 439 0 q 299 51 343 0 q 269 194 254 101 l 343 664 l 126 664 l 142 764 l 358 764 l 392 972 l 503 972 l 469 764 l 776 764 l 761 664 l 453 664 l 379 194 q 454 100 364 100 l 657 100 l 642 0 l 439 0 z "},"ț":{"ha":833,"x_min":126,"x_max":776,"o":"m 439 0 q 299 51 343 0 q 269 194 254 101 l 343 664 l 126 664 l 142 764 l 358 764 l 392 972 l 503 972 l 469 764 l 776 764 l 761 664 l 453 664 l 379 194 q 454 100 364 100 l 657 100 l 642 0 l 439 0 m 160 -333 l 321 -132 l 453 -132 l 275 -333 l 160 -333 z "},"u":{"ha":833,"x_min":93,"x_max":761,"o":"m 351 -14 q 158 64 222 -14 q 115 275 93 142 l 192 764 l 301 764 l 225 275 q 249 134 210 185 q 368 83 288 83 q 505 134 450 83 q 575 275 560 185 l 651 764 l 761 764 l 685 275 q 625 122 671 188 q 509 22 579 57 q 351 -14 439 -14 z "},"ú":{"ha":833,"x_min":93,"x_max":761,"o":"m 351 -14 q 158 64 222 -14 q 115 275 93 142 l 192 764 l 301 764 l 225 275 q 249 134 210 185 q 368 83 288 83 q 505 134 450 83 q 575 275 560 185 l 651 764 l 761 764 l 685 275 q 625 122 671 188 q 509 22 579 57 q 351 -14 439 -14 m 425 896 l 603 1090 l 731 1090 l 544 896 l 425 896 z "},"ŭ":{"ha":833,"x_min":93,"x_max":761,"o":"m 351 -14 q 158 64 222 -14 q 115 275 93 142 l 192 764 l 301 764 l 225 275 q 249 134 210 185 q 368 83 288 83 q 505 134 450 83 q 575 275 560 185 l 651 764 l 761 764 l 685 275 q 625 122 671 188 q 509 22 579 57 q 351 -14 439 -14 m 496 890 q 348 945 399 890 q 311 1090 297 1000 l 399 1090 q 419 999 390 1033 q 506 964 449 964 q 606 999 565 964 q 654 1090 646 1033 l 744 1090 q 663 945 731 1000 q 496 890 594 890 z "},"û":{"ha":833,"x_min":93,"x_max":761,"o":"m 351 -14 q 158 64 222 -14 q 115 275 93 142 l 192 764 l 301 764 l 225 275 q 249 134 210 185 q 368 83 288 83 q 505 134 450 83 q 575 275 560 185 l 651 764 l 761 764 l 685 275 q 625 122 671 188 q 509 22 579 57 q 351 -14 439 -14 m 257 896 l 474 1090 l 581 1090 l 738 896 l 621 896 l 519 1015 l 382 896 l 257 896 z "},"ü":{"ha":833,"x_min":93,"x_max":761,"o":"m 351 -14 q 158 64 222 -14 q 115 275 93 142 l 192 764 l 301 764 l 225 275 q 249 134 210 185 q 368 83 288 83 q 505 134 450 83 q 575 275 560 185 l 651 764 l 761 764 l 685 275 q 625 122 671 188 q 509 22 579 57 q 351 -14 439 -14 m 651 904 q 594 926 614 904 q 581 988 575 949 q 614 1051 588 1028 q 679 1075 640 1075 q 736 1051 717 1075 q 749 988 756 1028 q 717 927 743 950 q 651 904 690 904 m 346 904 q 289 926 308 904 q 275 988 269 949 q 308 1051 282 1028 q 372 1075 335 1075 q 431 1051 411 1075 q 444 988 451 1028 q 412 927 439 950 q 346 904 385 904 z "},"ụ":{"ha":833,"x_min":93,"x_max":761,"o":"m 351 -14 q 158 64 222 -14 q 115 275 93 142 l 192 764 l 301 764 l 225 275 q 249 134 210 185 q 368 83 288 83 q 505 134 450 83 q 575 275 560 185 l 651 764 l 761 764 l 685 275 q 625 122 671 188 q 509 22 579 57 q 351 -14 439 -14 m 310 -293 q 244 -270 265 -293 q 228 -208 222 -247 q 264 -145 235 -168 q 336 -122 293 -122 q 401 -145 381 -122 q 417 -208 422 -168 q 382 -270 411 -247 q 310 -293 353 -293 z "},"ù":{"ha":833,"x_min":93,"x_max":761,"o":"m 351 -14 q 158 64 222 -14 q 115 275 93 142 l 192 764 l 301 764 l 225 275 q 249 134 210 185 q 368 83 288 83 q 505 134 450 83 q 575 275 560 185 l 651 764 l 761 764 l 685 275 q 625 122 671 188 q 509 22 579 57 q 351 -14 439 -14 m 461 896 l 333 1090 l 450 1090 l 571 896 l 461 896 z "},"ủ":{"ha":833,"x_min":93,"x_max":761,"o":"m 351 -14 q 158 64 222 -14 q 115 275 93 142 l 192 764 l 301 764 l 225 275 q 249 134 210 185 q 368 83 288 83 q 505 134 450 83 q 575 275 560 185 l 651 764 l 761 764 l 685 275 q 625 122 671 188 q 509 22 579 57 q 351 -14 439 -14 m 438 896 l 524 988 q 544 1014 536 1001 q 553 1035 551 1026 q 515 1065 557 1065 l 403 1065 l 417 1144 l 556 1144 q 635 1119 608 1144 q 656 1047 663 1093 q 643 1007 653 1026 q 619 972 633 988 l 550 896 l 438 896 z "},"ư":{"ha":833,"x_min":93,"x_max":910,"o":"m 115 275 l 192 764 l 301 764 l 225 275 q 249 134 210 185 q 368 83 288 83 q 505 134 450 83 q 575 275 560 185 l 651 764 l 740 764 q 781 778 765 764 q 801 818 797 793 l 818 917 l 910 917 l 892 813 q 847 720 883 756 q 750 685 811 685 l 685 275 q 625 122 671 188 q 509 22 579 57 q 351 -14 439 -14 q 158 64 222 -14 q 115 275 93 142 z "},"ứ":{"ha":833,"x_min":93,"x_max":910,"o":"m 115 275 l 192 764 l 301 764 l 225 275 q 249 134 210 185 q 368 83 288 83 q 505 134 450 83 q 575 275 560 185 l 651 764 l 740 764 q 781 778 765 764 q 801 818 797 793 l 818 917 l 910 917 l 892 813 q 847 720 883 756 q 750 685 811 685 l 685 275 q 625 122 671 188 q 509 22 579 57 q 351 -14 439 -14 q 158 64 222 -14 q 115 275 93 142 m 425 896 l 603 1090 l 731 1090 l 544 896 l 425 896 z "},"ự":{"ha":833,"x_min":93,"x_max":910,"o":"m 115 275 l 192 764 l 301 764 l 225 275 q 249 134 210 185 q 368 83 288 83 q 505 134 450 83 q 575 275 560 185 l 651 764 l 740 764 q 781 778 765 764 q 801 818 797 793 l 818 917 l 910 917 l 892 813 q 847 720 883 756 q 750 685 811 685 l 685 275 q 625 122 671 188 q 509 22 579 57 q 351 -14 439 -14 q 158 64 222 -14 q 115 275 93 142 m 308 -293 q 242 -270 264 -293 q 226 -208 221 -247 q 263 -145 233 -168 q 335 -122 292 -122 q 400 -145 379 -122 q 415 -208 421 -168 q 381 -270 410 -247 q 308 -293 351 -293 z "},"ừ":{"ha":833,"x_min":93,"x_max":910,"o":"m 115 275 l 192 764 l 301 764 l 225 275 q 249 134 210 185 q 368 83 288 83 q 505 134 450 83 q 575 275 560 185 l 651 764 l 740 764 q 781 778 765 764 q 801 818 797 793 l 818 917 l 910 917 l 892 813 q 847 720 883 756 q 750 685 811 685 l 685 275 q 625 122 671 188 q 509 22 579 57 q 351 -14 439 -14 q 158 64 222 -14 q 115 275 93 142 m 461 896 l 333 1090 l 450 1090 l 571 896 l 461 896 z "},"ử":{"ha":833,"x_min":93,"x_max":910,"o":"m 115 275 l 192 764 l 301 764 l 225 275 q 249 134 210 185 q 368 83 288 83 q 505 134 450 83 q 575 275 560 185 l 651 764 l 740 764 q 781 778 765 764 q 801 818 797 793 l 818 917 l 910 917 l 892 813 q 847 720 883 756 q 750 685 811 685 l 685 275 q 625 122 671 188 q 509 22 579 57 q 351 -14 439 -14 q 158 64 222 -14 q 115 275 93 142 m 438 896 l 524 988 q 544 1014 536 1001 q 553 1035 551 1026 q 515 1065 557 1065 l 403 1065 l 417 1144 l 556 1144 q 635 1119 608 1144 q 656 1047 663 1093 q 643 1007 653 1026 q 619 972 633 988 l 550 896 l 438 896 z "},"ữ":{"ha":833,"x_min":93,"x_max":910,"o":"m 115 275 l 192 764 l 301 764 l 225 275 q 249 134 210 185 q 368 83 288 83 q 505 134 450 83 q 575 275 560 185 l 651 764 l 740 764 q 781 778 765 764 q 801 818 797 793 l 818 917 l 910 917 l 892 813 q 847 720 883 756 q 750 685 811 685 l 685 275 q 625 122 671 188 q 509 22 579 57 q 351 -14 439 -14 q 158 64 222 -14 q 115 275 93 142 m 597 903 q 533 919 557 903 q 494 956 510 935 q 463 992 478 976 q 422 1008 447 1008 q 385 994 401 1008 q 365 953 369 981 l 358 910 l 278 910 l 283 953 q 334 1049 294 1015 q 431 1083 374 1083 q 495 1067 471 1083 q 535 1031 519 1051 q 565 994 550 1010 q 604 978 581 978 q 641 992 626 978 q 660 1033 656 1006 l 668 1076 l 749 1076 l 742 1033 q 693 937 732 971 q 597 903 654 903 z "},"ű":{"ha":833,"x_min":93,"x_max":836,"o":"m 351 -14 q 158 64 222 -14 q 115 275 93 142 l 192 764 l 301 764 l 225 275 q 249 134 210 185 q 368 83 288 83 q 505 134 450 83 q 575 275 560 185 l 651 764 l 761 764 l 685 275 q 625 122 671 188 q 509 22 579 57 q 351 -14 439 -14 m 536 896 l 718 1090 l 836 1090 l 647 896 l 536 896 m 293 896 l 475 1090 l 593 1090 l 404 896 l 293 896 z "},"ū":{"ha":833,"x_min":93,"x_max":761,"o":"m 351 -14 q 158 64 222 -14 q 115 275 93 142 l 192 764 l 301 764 l 225 275 q 249 134 210 185 q 368 83 288 83 q 505 134 450 83 q 575 275 560 185 l 651 764 l 761 764 l 685 275 q 625 122 671 188 q 509 22 579 57 q 351 -14 439 -14 m 289 936 l 304 1028 l 733 1028 l 718 936 l 289 936 z "},"ų":{"ha":833,"x_min":93,"x_max":761,"o":"m 413 -279 q 303 -244 340 -279 q 275 -154 265 -210 q 303 -90 279 -124 q 379 -12 326 -56 q 372 -13 376 -12 q 363 -14 367 -14 q 353 -14 358 -14 q 157 63 221 -14 q 114 274 93 140 l 192 764 l 301 764 l 225 274 q 247 133 210 182 q 368 83 283 83 q 507 133 454 83 q 574 274 560 182 l 651 764 l 761 764 l 685 274 q 631 128 671 190 q 529 31 592 67 l 490 1 q 413 -71 439 -37 q 382 -133 386 -104 q 394 -183 376 -164 q 446 -203 411 -203 l 531 -203 l 518 -279 l 413 -279 z "},"ů":{"ha":833,"x_min":93,"x_max":761,"o":"m 351 -14 q 158 64 222 -14 q 115 275 93 142 l 192 764 l 301 764 l 225 275 q 249 134 210 185 q 368 83 288 83 q 505 134 450 83 q 575 275 560 185 l 651 764 l 761 764 l 685 275 q 625 122 671 188 q 509 22 579 57 q 351 -14 439 -14 m 490 847 q 380 890 417 847 q 353 1000 343 932 q 415 1111 364 1069 q 538 1153 465 1153 q 649 1110 611 1153 q 675 1000 686 1068 q 614 890 665 932 q 490 847 563 847 m 500 914 q 566 938 539 914 q 599 1000 593 961 q 586 1064 606 1040 q 528 1088 567 1088 q 462 1063 489 1088 q 428 1000 435 1039 q 442 938 422 961 q 500 914 463 914 z "},"ũ":{"ha":833,"x_min":93,"x_max":761,"o":"m 351 -14 q 158 64 222 -14 q 115 275 93 142 l 192 764 l 301 764 l 225 275 q 249 134 210 185 q 368 83 288 83 q 505 134 450 83 q 575 275 560 185 l 651 764 l 761 764 l 685 275 q 625 122 671 188 q 509 22 579 57 q 351 -14 439 -14 m 597 903 q 533 919 557 903 q 494 956 510 935 q 463 992 478 976 q 422 1008 447 1008 q 385 994 401 1008 q 365 953 369 981 l 358 910 l 278 910 l 283 953 q 334 1049 294 1015 q 431 1083 374 1083 q 495 1067 471 1083 q 535 1031 519 1051 q 565 994 550 1010 q 604 978 581 978 q 641 992 626 978 q 660 1033 656 1006 l 668 1076 l 749 1076 l 742 1033 q 693 937 732 971 q 597 903 654 903 z "},"v":{"ha":833,"x_min":149,"x_max":804,"o":"m 282 0 l 149 764 l 258 764 l 346 235 q 358 149 353 192 q 367 83 364 107 q 397 149 378 107 q 438 235 415 192 l 688 764 l 804 764 l 429 0 l 282 0 z "},"w":{"ha":833,"x_min":114,"x_max":839,"o":"m 117 0 l 114 764 l 210 764 l 203 215 q 202 147 203 185 q 200 85 201 110 q 219 147 207 110 q 240 215 231 185 l 421 764 l 529 764 l 533 215 q 535 147 535 185 q 533 85 535 110 q 552 147 540 110 q 574 215 564 185 l 743 764 l 839 764 l 589 0 l 464 0 l 463 532 q 463 612 463 571 q 463 676 463 653 q 442 612 456 653 q 417 532 429 571 l 243 0 l 117 0 z "},"ẃ":{"ha":833,"x_min":114,"x_max":839,"o":"m 117 0 l 114 764 l 210 764 l 203 215 q 202 147 203 185 q 200 85 201 110 q 219 147 207 110 q 240 215 231 185 l 421 764 l 529 764 l 533 215 q 535 147 535 185 q 533 85 535 110 q 552 147 540 110 q 574 215 564 185 l 743 764 l 839 764 l 589 0 l 464 0 l 463 532 q 463 612 463 571 q 463 676 463 653 q 442 612 456 653 q 417 532 429 571 l 243 0 l 117 0 m 425 896 l 603 1090 l 731 1090 l 544 896 l 425 896 z "},"ŵ":{"ha":833,"x_min":114,"x_max":839,"o":"m 117 0 l 114 764 l 210 764 l 203 215 q 202 147 203 185 q 200 85 201 110 q 219 147 207 110 q 240 215 231 185 l 421 764 l 529 764 l 533 215 q 535 147 535 185 q 533 85 535 110 q 552 147 540 110 q 574 215 564 185 l 743 764 l 839 764 l 589 0 l 464 0 l 463 532 q 463 612 463 571 q 463 676 463 653 q 442 612 456 653 q 417 532 429 571 l 243 0 l 117 0 m 257 896 l 474 1090 l 581 1090 l 738 896 l 621 896 l 519 1015 l 382 896 l 257 896 z "},"ẅ":{"ha":833,"x_min":114,"x_max":839,"o":"m 117 0 l 114 764 l 210 764 l 203 215 q 202 147 203 185 q 200 85 201 110 q 219 147 207 110 q 240 215 231 185 l 421 764 l 529 764 l 533 215 q 535 147 535 185 q 533 85 535 110 q 552 147 540 110 q 574 215 564 185 l 743 764 l 839 764 l 589 0 l 464 0 l 463 532 q 463 612 463 571 q 463 676 463 653 q 442 612 456 653 q 417 532 429 571 l 243 0 l 117 0 m 651 904 q 594 926 614 904 q 581 988 575 949 q 614 1051 588 1028 q 679 1075 640 1075 q 736 1051 717 1075 q 749 988 756 1028 q 717 927 743 950 q 651 904 690 904 m 346 904 q 289 926 308 904 q 275 988 269 949 q 308 1051 282 1028 q 372 1075 335 1075 q 431 1051 411 1075 q 444 988 451 1028 q 412 927 439 950 q 346 904 385 904 z "},"ẁ":{"ha":833,"x_min":114,"x_max":839,"o":"m 117 0 l 114 764 l 210 764 l 203 215 q 202 147 203 185 q 200 85 201 110 q 219 147 207 110 q 240 215 231 185 l 421 764 l 529 764 l 533 215 q 535 147 535 185 q 533 85 535 110 q 552 147 540 110 q 574 215 564 185 l 743 764 l 839 764 l 589 0 l 464 0 l 463 532 q 463 612 463 571 q 463 676 463 653 q 442 612 456 653 q 417 532 429 571 l 243 0 l 117 0 m 461 896 l 333 1090 l 450 1090 l 571 896 l 461 896 z "},"x":{"ha":833,"x_min":22,"x_max":794,"o":"m 22 0 l 351 396 l 160 764 l 288 764 l 404 517 q 418 485 411 503 q 429 458 425 468 q 447 485 436 468 q 468 517 458 503 l 663 764 l 794 764 l 486 389 l 689 0 l 563 0 l 435 261 q 421 294 429 275 q 408 325 413 314 q 388 294 400 314 q 363 261 375 275 l 154 0 l 22 0 z "},"y":{"ha":833,"x_min":101,"x_max":758,"o":"m 126 -250 l 143 -150 l 375 -150 q 476 -119 439 -150 q 522 -26 513 -89 l 538 75 l 561 211 l 533 211 l 569 251 q 491 108 556 160 q 329 56 426 56 q 158 127 215 56 q 121 321 101 199 l 190 764 l 301 764 l 233 333 q 257 198 218 247 q 374 149 296 149 q 512 200 456 149 q 582 343 568 251 l 647 764 l 758 764 l 632 -26 q 544 -191 617 -132 q 357 -250 471 -250 l 126 -250 z "},"ý":{"ha":833,"x_min":101,"x_max":758,"o":"m 126 -250 l 143 -150 l 375 -150 q 476 -119 439 -150 q 522 -26 513 -89 l 538 75 l 561 211 l 533 211 l 569 251 q 491 108 556 160 q 329 56 426 56 q 158 127 215 56 q 121 321 101 199 l 190 764 l 301 764 l 233 333 q 257 198 218 247 q 374 149 296 149 q 512 200 456 149 q 582 343 568 251 l 647 764 l 758 764 l 632 -26 q 544 -191 617 -132 q 357 -250 471 -250 l 126 -250 m 425 896 l 603 1090 l 731 1090 l 544 896 l 425 896 z "},"ŷ":{"ha":833,"x_min":101,"x_max":758,"o":"m 126 -250 l 143 -150 l 375 -150 q 476 -119 439 -150 q 522 -26 513 -89 l 538 75 l 561 211 l 533 211 l 569 251 q 491 108 556 160 q 329 56 426 56 q 158 127 215 56 q 121 321 101 199 l 190 764 l 301 764 l 233 333 q 257 198 218 247 q 374 149 296 149 q 512 200 456 149 q 582 343 568 251 l 647 764 l 758 764 l 632 -26 q 544 -191 617 -132 q 357 -250 471 -250 l 126 -250 m 257 896 l 474 1090 l 581 1090 l 738 896 l 621 896 l 519 1015 l 382 896 l 257 896 z "},"ÿ":{"ha":833,"x_min":101,"x_max":758,"o":"m 126 -250 l 143 -150 l 375 -150 q 476 -119 439 -150 q 522 -26 513 -89 l 538 75 l 561 211 l 533 211 l 569 251 q 491 108 556 160 q 329 56 426 56 q 158 127 215 56 q 121 321 101 199 l 190 764 l 301 764 l 233 333 q 257 198 218 247 q 374 149 296 149 q 512 200 456 149 q 582 343 568 251 l 647 764 l 758 764 l 632 -26 q 544 -191 617 -132 q 357 -250 471 -250 l 126 -250 m 651 904 q 594 926 614 904 q 581 988 575 949 q 614 1051 588 1028 q 679 1075 640 1075 q 736 1051 717 1075 q 749 988 756 1028 q 717 927 743 950 q 651 904 690 904 m 346 904 q 289 926 308 904 q 275 988 269 949 q 308 1051 282 1028 q 372 1075 335 1075 q 431 1051 411 1075 q 444 988 451 1028 q 412 927 439 950 q 346 904 385 904 z "},"ỵ":{"ha":833,"x_min":101,"x_max":758,"o":"m 126 -250 l 143 -150 l 375 -150 q 476 -119 439 -150 q 522 -26 513 -89 l 538 75 l 561 211 l 533 211 l 569 251 q 491 108 556 160 q 329 56 426 56 q 158 127 215 56 q 121 321 101 199 l 190 764 l 301 764 l 233 333 q 257 198 218 247 q 374 149 296 149 q 512 200 456 149 q 582 343 568 251 l 647 764 l 758 764 l 632 -26 q 544 -191 617 -132 q 357 -250 471 -250 l 126 -250 m 638 -349 q 572 -326 593 -349 q 556 -264 550 -303 q 592 -201 563 -224 q 664 -178 621 -178 q 729 -201 708 -178 q 744 -264 750 -224 q 710 -326 739 -303 q 638 -349 681 -349 z "},"ỳ":{"ha":833,"x_min":101,"x_max":758,"o":"m 126 -250 l 143 -150 l 375 -150 q 476 -119 439 -150 q 522 -26 513 -89 l 538 75 l 561 211 l 533 211 l 569 251 q 491 108 556 160 q 329 56 426 56 q 158 127 215 56 q 121 321 101 199 l 190 764 l 301 764 l 233 333 q 257 198 218 247 q 374 149 296 149 q 512 200 456 149 q 582 343 568 251 l 647 764 l 758 764 l 632 -26 q 544 -191 617 -132 q 357 -250 471 -250 l 126 -250 m 461 896 l 333 1090 l 450 1090 l 571 896 l 461 896 z "},"ỷ":{"ha":833,"x_min":101,"x_max":758,"o":"m 126 -250 l 143 -150 l 375 -150 q 476 -119 439 -150 q 522 -26 513 -89 l 538 75 l 561 211 l 533 211 l 569 251 q 491 108 556 160 q 329 56 426 56 q 158 127 215 56 q 121 321 101 199 l 190 764 l 301 764 l 233 333 q 257 198 218 247 q 374 149 296 149 q 512 200 456 149 q 582 343 568 251 l 647 764 l 758 764 l 632 -26 q 544 -191 617 -132 q 357 -250 471 -250 l 126 -250 m 438 896 l 524 988 q 544 1014 536 1001 q 553 1035 551 1026 q 515 1065 557 1065 l 403 1065 l 417 1144 l 556 1144 q 635 1119 608 1144 q 656 1047 663 1093 q 643 1007 653 1026 q 619 972 633 988 l 550 896 l 438 896 z "},"ȳ":{"ha":833,"x_min":101,"x_max":758,"o":"m 126 -250 l 143 -150 l 375 -150 q 476 -119 439 -150 q 522 -26 513 -89 l 538 75 l 561 211 l 533 211 l 569 251 q 491 108 556 160 q 329 56 426 56 q 158 127 215 56 q 121 321 101 199 l 190 764 l 301 764 l 233 333 q 257 198 218 247 q 374 149 296 149 q 512 200 456 149 q 582 343 568 251 l 647 764 l 758 764 l 632 -26 q 544 -191 617 -132 q 357 -250 471 -250 l 126 -250 m 289 936 l 304 1028 l 733 1028 l 718 936 l 289 936 z "},"ỹ":{"ha":833,"x_min":101,"x_max":758,"o":"m 126 -250 l 143 -150 l 375 -150 q 476 -119 439 -150 q 522 -26 513 -89 l 538 75 l 561 211 l 533 211 l 569 251 q 491 108 556 160 q 329 56 426 56 q 158 127 215 56 q 121 321 101 199 l 190 764 l 301 764 l 233 333 q 257 198 218 247 q 374 149 296 149 q 512 200 456 149 q 582 343 568 251 l 647 764 l 758 764 l 632 -26 q 544 -191 617 -132 q 357 -250 471 -250 l 126 -250 m 597 903 q 533 919 557 903 q 494 956 510 935 q 463 992 478 976 q 422 1008 447 1008 q 385 994 401 1008 q 365 953 369 981 l 358 910 l 278 910 l 283 953 q 334 1049 294 1015 q 431 1083 374 1083 q 495 1067 471 1083 q 535 1031 519 1051 q 565 994 550 1010 q 604 978 581 978 q 641 992 626 978 q 660 1033 656 1006 l 668 1076 l 749 1076 l 742 1033 q 693 937 732 971 q 597 903 654 903 z "},"z":{"ha":833,"x_min":68,"x_max":747,"o":"m 68 0 l 86 108 l 603 664 l 185 664 l 201 764 l 747 764 l 731 654 l 207 100 l 658 100 l 643 0 l 68 0 z "},"ź":{"ha":833,"x_min":68,"x_max":747,"o":"m 68 0 l 86 108 l 603 664 l 185 664 l 201 764 l 747 764 l 731 654 l 207 100 l 658 100 l 643 0 l 68 0 m 425 896 l 603 1090 l 731 1090 l 544 896 l 425 896 z "},"ž":{"ha":833,"x_min":68,"x_max":769,"o":"m 68 0 l 86 108 l 603 664 l 185 664 l 201 764 l 747 764 l 731 654 l 207 100 l 658 100 l 643 0 l 68 0 m 446 896 l 289 1090 l 406 1090 l 508 971 l 646 1090 l 769 1090 l 553 896 l 446 896 z "},"ż":{"ha":833,"x_min":68,"x_max":747,"o":"m 68 0 l 86 108 l 603 664 l 185 664 l 201 764 l 747 764 l 731 654 l 207 100 l 658 100 l 643 0 l 68 0 m 501 904 q 436 927 458 904 q 418 988 414 950 q 451 1051 424 1028 q 522 1075 479 1075 q 588 1051 565 1075 q 606 988 611 1028 q 574 927 601 950 q 501 904 546 904 z "},"ª":{"ha":833,"x_min":293,"x_max":674,"o":"m 561 632 l 574 708 l 569 708 l 600 903 q 583 956 606 936 q 517 976 560 976 q 451 960 479 976 q 414 917 422 943 l 350 917 q 413 998 367 968 q 525 1028 460 1028 q 635 994 597 1028 q 664 903 674 961 l 621 632 l 561 632 m 418 625 q 325 658 357 625 q 301 744 293 690 q 353 830 310 797 q 463 863 396 863 l 608 863 l 600 810 l 454 810 q 394 792 418 810 q 365 744 371 775 q 381 693 360 713 q 444 674 403 674 q 535 700 500 674 q 579 771 571 726 l 594 771 l 585 708 l 569 708 q 508 647 549 669 q 418 625 468 625 z "},"º":{"ha":833,"x_min":308,"x_max":664,"o":"m 453 618 q 345 658 382 618 q 318 760 308 697 l 338 881 q 397 983 349 944 q 517 1022 446 1022 q 626 983 588 1022 q 653 881 664 944 l 633 760 q 574 657 624 696 q 453 618 524 618 m 461 669 q 534 694 504 669 q 569 760 564 719 l 589 881 q 574 946 596 921 q 510 971 551 971 q 438 946 467 971 q 401 881 408 921 l 382 760 q 398 694 376 719 q 461 669 419 669 z "},"А":{"ha":833,"x_min":15,"x_max":696,"o":"m 15 0 l 444 1014 l 590 1014 l 696 0 l 588 0 l 563 275 l 244 275 l 131 0 l 15 0 m 282 369 l 553 369 l 519 708 q 509 851 513 793 q 506 925 506 908 q 479 851 500 908 q 422 708 458 793 l 282 369 z "},"Б":{"ha":833,"x_min":75,"x_max":789,"o":"m 75 0 l 236 1014 l 789 1014 l 774 914 l 331 914 l 279 586 l 456 586 q 614 550 551 586 q 703 449 676 514 q 717 293 731 383 q 655 138 703 204 q 533 36 607 72 q 363 0 458 0 l 75 0 m 201 100 l 379 100 q 529 152 469 100 q 603 293 589 204 q 574 435 618 383 q 440 486 531 486 l 263 486 l 201 100 z "},"В":{"ha":833,"x_min":75,"x_max":785,"o":"m 75 0 l 236 1014 l 515 1014 q 718 944 651 1014 q 765 751 785 874 q 717 630 754 682 q 624 549 681 578 q 494 522 567 521 l 496 542 q 628 510 575 542 q 705 420 682 479 q 714 281 728 361 q 654 131 700 194 q 536 34 608 68 q 371 0 464 0 l 75 0 m 199 100 l 376 100 q 531 149 469 100 q 606 283 592 199 q 574 424 619 371 q 436 478 529 478 l 258 478 l 199 100 m 274 574 l 444 574 q 585 619 529 574 q 656 744 642 665 q 626 869 667 824 q 500 914 585 914 l 328 914 l 274 574 z "},"Г":{"ha":833,"x_min":96,"x_max":839,"o":"m 96 0 l 257 1014 l 839 1014 l 824 914 l 350 914 l 206 0 l 96 0 z "},"Ѓ":{"ha":833,"x_min":96,"x_max":839,"o":"m 96 0 l 257 1014 l 839 1014 l 824 914 l 350 914 l 206 0 l 96 0 m 464 1125 l 642 1319 l 769 1319 l 583 1125 l 464 1125 z "},"Ґ":{"ha":833,"x_min":96,"x_max":860,"o":"m 96 0 l 257 1014 l 735 1014 l 756 1146 l 860 1146 l 824 914 l 350 914 l 206 0 l 96 0 z "},"Д":{"ha":833,"x_min":-49,"x_max":792,"o":"m -49 -194 l -3 94 l 56 94 q 102 169 76 122 q 151 277 128 217 q 185 406 174 338 l 293 1014 l 792 1014 l 644 94 l 743 94 l 697 -194 l 600 -194 l 631 0 l 81 0 l 50 -194 l -49 -194 m 171 94 l 535 94 l 665 915 l 383 915 l 293 406 q 260 272 282 333 q 214 165 238 211 q 171 94 190 119 z "},"Е":{"ha":833,"x_min":85,"x_max":818,"o":"m 85 0 l 246 1014 l 818 1014 l 803 914 l 339 914 l 286 579 l 701 579 l 685 481 l 271 481 l 210 100 l 674 100 l 657 0 l 85 0 z "},"Ё":{"ha":833,"x_min":85,"x_max":821,"o":"m 85 0 l 246 1014 l 818 1014 l 803 914 l 339 914 l 286 579 l 701 579 l 685 481 l 271 481 l 210 100 l 674 100 l 657 0 l 85 0 m 718 1138 q 660 1160 679 1138 q 646 1222 640 1183 q 680 1285 653 1263 q 746 1308 707 1308 q 803 1285 783 1308 q 815 1222 822 1263 q 783 1160 810 1183 q 718 1138 756 1138 m 413 1138 q 354 1160 374 1138 q 340 1222 335 1183 q 374 1285 347 1263 q 439 1308 401 1308 q 497 1285 478 1308 q 510 1222 517 1263 q 477 1160 504 1183 q 413 1138 450 1138 z "},"Ж":{"ha":833,"x_min":-37,"x_max":896,"o":"m -37 0 l 229 528 l 136 1014 l 249 1014 l 325 560 l 397 560 l 469 1014 l 563 1014 l 490 560 l 558 560 l 779 1014 l 896 1014 l 649 518 l 749 0 l 638 0 l 553 479 l 478 479 l 401 0 l 308 0 l 385 479 l 314 479 l 78 0 l -37 0 z "},"З":{"ha":833,"x_min":51,"x_max":793,"o":"m 343 -14 q 126 60 201 -14 q 65 258 51 135 l 175 258 q 219 131 169 178 q 358 85 268 85 q 522 137 457 85 q 600 275 586 189 q 565 415 614 364 q 419 467 517 467 l 296 467 l 311 567 l 433 567 q 540 591 493 567 q 618 658 588 615 q 657 756 649 700 q 626 885 671 839 q 492 931 581 931 q 339 880 401 931 q 264 747 276 829 l 154 747 q 216 895 168 832 q 338 993 264 958 q 507 1028 413 1028 q 720 960 647 1028 q 774 768 793 892 q 724 642 763 697 q 628 557 686 588 q 497 528 569 526 l 500 546 q 631 515 578 547 q 706 423 683 482 q 717 283 729 364 q 652 129 703 196 q 522 24 601 63 q 343 -14 443 -14 z "},"И":{"ha":833,"x_min":71,"x_max":801,"o":"m 71 0 l 232 1014 l 339 1014 l 239 389 q 222 293 232 343 q 203 200 213 243 q 188 128 194 157 l 653 1014 l 801 1014 l 640 0 l 533 0 l 633 625 q 649 714 639 665 q 668 808 658 763 q 686 886 678 854 l 218 0 l 71 0 z "},"Й":{"ha":833,"x_min":71,"x_max":801,"o":"m 71 0 l 232 1014 l 339 1014 l 239 389 q 222 293 232 343 q 203 200 213 243 q 188 128 194 157 l 653 1014 l 801 1014 l 640 0 l 533 0 l 633 625 q 649 714 639 665 q 668 808 658 763 q 686 886 678 854 l 218 0 l 71 0 m 532 1119 q 384 1174 435 1119 q 347 1319 333 1229 l 435 1319 q 456 1228 426 1263 q 542 1193 485 1193 q 642 1228 601 1193 q 690 1319 682 1263 l 781 1319 q 699 1174 767 1229 q 532 1119 631 1119 z "},"К":{"ha":833,"x_min":74,"x_max":857,"o":"m 74 0 l 235 1014 l 344 1014 l 275 574 l 439 574 l 733 1014 l 857 1014 l 531 522 l 710 0 l 586 0 l 426 476 l 260 476 l 183 0 l 74 0 z "},"Ќ":{"ha":833,"x_min":74,"x_max":857,"o":"m 457 1125 l 635 1319 l 763 1319 l 576 1125 l 457 1125 m 74 0 l 235 1014 l 344 1014 l 275 574 l 439 574 l 733 1014 l 857 1014 l 531 522 l 710 0 l 586 0 l 426 476 l 260 476 l 183 0 l 74 0 z "},"Л":{"ha":833,"x_min":-33,"x_max":797,"o":"m -33 -7 l -15 97 l 14 97 q 109 149 72 97 q 165 319 146 201 l 283 1014 l 797 1014 l 636 0 l 525 0 l 671 914 l 376 914 l 275 319 q 220 138 257 210 q 130 29 183 65 q 1 -7 76 -7 l -33 -7 z "},"М":{"ha":833,"x_min":50,"x_max":822,"o":"m 50 0 l 211 1014 l 357 1014 l 417 669 q 430 588 424 629 q 439 522 436 546 q 468 588 450 546 q 506 671 486 629 l 671 1014 l 822 1014 l 661 0 l 553 0 l 622 433 q 646 566 632 494 q 676 709 660 638 q 709 846 693 781 q 738 958 725 911 l 486 446 l 369 446 l 278 958 q 272 848 276 911 q 260 713 267 785 q 246 569 254 642 q 226 433 238 497 l 158 0 l 50 0 z "},"Н":{"ha":833,"x_min":75,"x_max":797,"o":"m 75 0 l 236 1014 l 346 1014 l 275 575 l 618 575 l 688 1014 l 797 1014 l 636 0 l 526 0 l 601 474 l 260 474 l 185 0 l 75 0 z "},"О":{"ha":833,"x_min":97,"x_max":776,"o":"m 353 -14 q 206 21 265 -14 q 122 120 146 56 q 111 274 97 185 l 185 740 q 245 894 200 829 q 360 993 290 958 q 518 1028 431 1028 q 666 993 607 1028 q 751 894 725 958 q 761 740 776 829 l 688 274 q 628 120 674 185 q 512 21 582 56 q 353 -14 442 -14 m 368 85 q 508 134 454 85 q 578 274 563 183 l 651 740 q 626 880 665 831 q 503 929 588 929 q 364 880 418 929 q 294 740 310 831 l 221 274 q 245 134 207 183 q 368 85 283 85 z "},"П":{"ha":833,"x_min":75,"x_max":797,"o":"m 75 0 l 236 1014 l 797 1014 l 636 0 l 525 0 l 671 914 l 331 914 l 186 0 l 75 0 z "},"Р":{"ha":833,"x_min":74,"x_max":825,"o":"m 74 0 l 235 1014 l 553 1014 q 709 978 646 1014 q 799 876 772 942 q 811 719 825 810 q 750 565 799 631 q 627 462 701 499 q 460 425 553 425 l 251 425 l 183 0 l 74 0 m 267 525 l 475 525 q 623 578 563 525 q 699 719 683 631 q 669 862 713 810 q 538 914 625 914 l 328 914 l 267 525 z "},"С":{"ha":833,"x_min":97,"x_max":786,"o":"m 360 -14 q 209 21 269 -14 q 123 121 149 56 q 111 274 97 186 l 185 740 q 246 894 200 829 q 363 993 292 958 q 525 1028 435 1028 q 674 992 614 1028 q 760 892 735 957 q 772 736 786 826 l 663 736 q 635 878 676 828 q 508 929 594 929 q 366 880 422 929 q 294 740 310 831 l 221 274 q 248 135 207 185 q 375 85 289 85 q 519 135 463 85 q 590 278 575 186 l 700 278 q 639 123 686 189 q 520 22 592 57 q 360 -14 449 -14 z "},"Т":{"ha":833,"x_min":163,"x_max":856,"o":"m 301 0 l 446 914 l 163 914 l 178 1015 l 856 1015 l 839 914 l 556 914 l 411 0 l 301 0 z "},"У":{"ha":833,"x_min":176,"x_max":857,"o":"m 210 0 l 354 264 l 176 1014 l 294 1014 l 400 518 q 417 426 411 471 q 425 358 424 382 q 451 426 433 382 q 490 518 468 471 l 735 1014 l 857 1014 l 329 0 l 210 0 z "},"Ў":{"ha":833,"x_min":176,"x_max":857,"o":"m 210 0 l 354 264 l 176 1014 l 294 1014 l 400 518 q 417 426 411 471 q 425 358 424 382 q 451 426 433 382 q 490 518 468 471 l 735 1014 l 857 1014 l 329 0 l 210 0 m 532 1119 q 384 1174 435 1119 q 347 1319 333 1229 l 435 1319 q 456 1228 426 1263 q 542 1193 485 1193 q 642 1228 601 1193 q 690 1319 682 1263 l 781 1319 q 699 1174 767 1229 q 532 1119 631 1119 z "},"Ф":{"ha":833,"x_min":60,"x_max":815,"o":"m 299 -35 l 314 63 q 169 98 228 63 q 85 198 110 133 q 74 349 60 263 l 126 681 q 185 835 140 769 q 301 936 231 900 q 458 972 371 972 l 474 1069 l 576 1069 l 561 972 q 707 936 649 972 q 790 835 765 900 q 800 681 815 769 l 749 349 q 689 198 735 263 q 574 98 643 133 q 417 63 504 63 l 401 -35 l 299 -35 m 328 157 l 443 878 q 343 853 388 878 q 269 785 299 829 q 231 681 240 742 l 178 349 q 204 210 164 263 q 328 157 244 157 m 432 157 q 533 181 489 157 q 606 247 576 204 q 644 349 635 290 l 696 681 q 671 824 711 771 q 547 878 631 878 l 432 157 z "},"Х":{"ha":833,"x_min":-1,"x_max":856,"o":"m -1 0 l 375 519 l 178 1014 l 299 1014 l 411 711 q 432 658 419 688 q 451 610 444 628 q 483 658 464 628 q 519 711 503 688 l 731 1014 l 856 1014 l 501 522 l 713 0 l 592 0 l 465 329 q 444 383 456 353 q 426 433 432 413 q 394 383 414 413 q 358 331 374 354 l 126 0 l -1 0 z "},"Ч":{"ha":833,"x_min":135,"x_max":796,"o":"m 525 0 l 589 401 q 517 392 568 397 q 396 388 465 388 q 199 465 263 388 q 156 672 135 542 l 210 1014 l 319 1014 l 265 672 q 297 536 253 588 q 431 485 340 485 q 542 490 496 485 q 603 499 588 494 l 686 1014 l 796 1014 l 635 0 l 525 0 z "},"Ц":{"ha":833,"x_min":75,"x_max":774,"o":"m 588 -194 l 618 0 l 75 0 l 236 1014 l 347 1014 l 201 99 l 519 99 l 664 1014 l 774 1014 l 629 99 l 733 99 l 688 -194 l 588 -194 z "},"Ш":{"ha":833,"x_min":35,"x_max":840,"o":"m 35 0 l 193 1014 l 297 1014 l 150 85 l 325 85 l 472 1014 l 564 1014 l 415 85 l 590 85 l 738 1014 l 840 1014 l 679 0 l 35 0 z "},"Щ":{"ha":833,"x_min":32,"x_max":829,"o":"m 603 -194 l 633 0 l 32 0 l 193 1014 l 293 1014 l 147 93 l 321 93 l 467 1014 l 556 1014 l 410 93 l 583 93 l 729 1014 l 829 1014 l 683 93 l 749 93 l 703 -194 l 603 -194 z "},"Џ":{"ha":833,"x_min":75,"x_max":797,"o":"m 272 -174 l 300 0 l 75 0 l 236 1014 l 349 1014 l 204 101 l 540 101 l 685 1014 l 797 1014 l 636 0 l 411 0 l 383 -174 l 272 -174 z "},"Ь":{"ha":833,"x_min":75,"x_max":754,"o":"m 75 0 l 236 1014 l 347 1014 l 279 593 l 483 593 q 638 556 575 593 q 727 453 700 519 q 740 297 754 386 q 678 141 726 208 q 556 37 629 74 q 390 0 482 0 l 75 0 m 201 100 l 400 100 q 551 154 489 100 q 626 297 613 208 q 596 440 642 386 q 463 493 550 493 l 264 493 l 201 100 z "},"Ъ":{"ha":833,"x_min":82,"x_max":754,"o":"m 128 0 l 274 913 l 82 913 l 99 1014 l 400 1014 l 332 593 l 483 593 q 638 556 575 593 q 727 453 700 519 q 740 297 754 386 q 678 141 726 208 q 556 37 629 74 q 390 0 482 0 l 128 0 m 254 100 l 400 100 q 551 154 489 100 q 626 297 613 208 q 596 440 642 386 q 463 493 550 493 l 317 493 l 254 100 z "},"Ы":{"ha":833,"x_min":35,"x_max":838,"o":"m 35 0 l 196 1014 l 300 1014 l 233 593 l 294 593 q 483 522 421 593 q 525 329 544 451 l 514 263 q 412 71 496 142 q 201 0 328 0 l 35 0 m 154 97 l 217 97 q 346 142 296 97 q 408 264 396 186 l 418 329 q 394 452 431 408 q 279 496 358 496 l 218 496 l 154 97 m 572 0 l 733 1014 l 838 1014 l 676 0 l 572 0 z "},"Љ":{"ha":833,"x_min":-69,"x_max":815,"o":"m -69 -7 l -53 93 l -25 93 q 42 137 13 93 q 83 256 71 181 l 213 1014 l 596 1014 l 528 593 l 614 593 q 765 535 714 593 q 800 381 815 476 l 774 214 q 689 58 758 117 q 521 0 619 0 l 335 0 l 481 921 l 296 921 l 183 256 q 137 117 169 176 q 58 25 104 57 q -44 -7 11 -7 l -69 -7 m 449 93 l 535 93 q 626 126 589 93 q 674 214 664 158 l 700 381 q 681 467 708 435 q 599 500 653 500 l 513 500 l 449 93 z "},"Њ":{"ha":833,"x_min":15,"x_max":815,"o":"m 15 0 l 176 1014 l 276 1014 l 210 593 l 428 593 l 496 1014 l 596 1014 l 528 593 l 613 593 q 765 535 714 593 q 800 381 815 478 l 774 214 q 690 58 758 115 q 518 0 621 0 l 335 0 l 413 500 l 194 500 l 115 0 l 15 0 m 449 93 l 533 93 q 627 125 590 93 q 674 214 664 157 l 700 381 q 681 469 708 438 q 597 500 654 500 l 513 500 l 449 93 z "},"Ѕ":{"ha":833,"x_min":67,"x_max":793,"o":"m 358 -14 q 140 60 213 -14 q 85 263 67 135 l 196 263 q 230 133 182 181 q 375 85 278 85 q 526 131 467 85 q 599 257 585 176 q 581 377 608 328 q 490 446 553 426 l 365 486 q 223 591 268 518 q 192 763 178 664 q 251 903 206 844 q 367 996 296 963 q 526 1029 438 1029 q 726 956 658 1029 q 775 758 793 882 l 664 758 q 637 883 678 838 q 510 929 596 929 q 370 888 425 929 q 304 772 315 847 q 322 656 294 706 q 410 585 350 606 l 536 543 q 678 437 633 513 q 708 260 724 361 q 648 116 696 178 q 526 20 600 54 q 358 -14 451 -14 z "},"Є":{"ha":833,"x_min":100,"x_max":783,"o":"m 360 -14 q 209 21 269 -14 q 124 121 149 56 q 113 274 100 186 l 188 740 q 247 894 201 829 q 363 993 292 958 q 525 1028 435 1028 q 674 992 614 1028 q 758 892 733 957 q 769 736 783 826 l 660 736 q 635 878 675 828 q 510 929 596 929 q 367 880 424 929 q 297 740 311 831 l 269 561 l 585 561 l 569 461 l 253 461 l 224 274 q 249 135 210 185 q 375 85 289 85 q 518 135 463 85 q 588 278 574 186 l 697 278 q 638 123 683 189 q 520 22 592 57 q 360 -14 449 -14 z "},"Э":{"ha":833,"x_min":90,"x_max":776,"o":"m 349 -14 q 200 22 260 -14 q 115 123 140 57 q 104 278 90 189 l 214 278 q 240 135 200 186 q 364 85 279 85 q 507 135 451 85 q 576 274 563 185 l 607 461 l 290 461 l 307 561 l 622 561 l 651 740 q 625 880 665 831 q 499 929 585 929 q 358 878 414 929 q 286 736 301 828 l 176 736 q 236 892 190 826 q 353 992 282 957 q 514 1028 425 1028 q 665 993 604 1028 q 751 894 725 958 q 761 740 776 829 l 688 274 q 628 121 674 186 q 510 21 582 56 q 349 -14 439 -14 z "},"І":{"ha":833,"x_min":90,"x_max":782,"o":"m 90 0 l 106 100 l 315 100 l 444 914 l 235 914 l 251 1014 l 782 1014 l 765 914 l 557 914 l 428 100 l 636 100 l 621 0 l 90 0 z "},"Ї":{"ha":833,"x_min":90,"x_max":793,"o":"m 90 0 l 106 100 l 315 100 l 444 914 l 235 914 l 251 1014 l 782 1014 l 765 914 l 557 914 l 428 100 l 636 100 l 621 0 l 90 0 m 689 1138 q 631 1160 650 1138 q 617 1222 611 1183 q 651 1285 624 1263 q 717 1308 678 1308 q 774 1285 754 1308 q 786 1222 793 1263 q 753 1160 781 1183 q 689 1138 726 1138 m 383 1138 q 325 1160 344 1138 q 311 1222 306 1183 q 345 1285 318 1263 q 410 1308 372 1308 q 468 1285 449 1308 q 481 1222 488 1263 q 448 1160 475 1183 q 383 1138 421 1138 z "},"Ј":{"ha":833,"x_min":33,"x_max":782,"o":"m 313 -14 q 102 67 171 -14 q 56 288 33 147 l 167 288 q 194 138 151 192 q 329 85 238 85 q 481 138 421 85 q 556 288 542 192 l 656 913 l 408 913 l 424 1014 l 782 1014 l 667 288 q 604 126 653 194 q 482 22 556 58 q 313 -14 408 -14 z "},"Ћ":{"ha":833,"x_min":83,"x_max":763,"o":"m 99 0 l 244 917 l 83 917 l 100 1014 l 539 1014 l 522 917 l 354 917 l 294 539 l 333 575 q 576 688 457 688 q 716 623 669 688 q 746 450 763 558 l 675 0 l 564 0 l 632 426 q 620 551 646 508 q 538 594 594 594 q 453 573 497 594 q 363 507 410 551 l 278 431 l 210 0 l 99 0 z "},"Ю":{"ha":833,"x_min":28,"x_max":850,"o":"m 475 -14 q 321 55 371 -14 q 290 243 271 124 l 326 474 l 206 474 l 131 0 l 28 0 l 189 1014 l 292 1014 l 221 569 l 342 569 l 374 771 q 464 960 393 892 q 640 1028 535 1028 q 799 959 749 1028 q 831 771 850 890 l 747 243 q 656 55 728 124 q 475 -14 583 -14 m 492 82 q 592 124 553 82 q 644 243 632 167 l 728 771 q 714 890 740 847 q 626 932 688 932 q 524 890 564 932 q 472 771 485 847 l 389 243 q 403 124 376 167 q 492 82 431 82 z "},"Я":{"ha":833,"x_min":22,"x_max":796,"o":"m 22 0 l 339 490 l 344 442 q 224 490 272 451 q 155 588 175 528 q 146 725 135 649 q 208 877 160 813 q 328 978 256 942 q 492 1014 401 1014 l 796 1014 l 635 0 l 525 0 l 593 438 l 422 438 l 147 0 l 22 0 m 415 536 l 610 536 l 669 915 l 475 915 q 333 864 393 915 q 260 726 274 813 q 289 588 246 640 q 415 536 332 536 z "},"Ђ":{"ha":833,"x_min":83,"x_max":763,"o":"m 263 -250 l 279 -150 l 365 -150 q 501 -104 447 -150 q 567 21 556 -58 l 632 426 q 620 551 646 508 q 538 594 594 594 q 453 573 497 594 q 363 507 410 551 l 278 431 l 210 0 l 99 0 l 244 917 l 83 917 l 100 1014 l 539 1014 l 522 917 l 354 917 l 294 539 l 333 575 q 575 688 456 688 q 716 623 669 688 q 746 450 763 558 l 678 21 q 620 -122 665 -61 q 506 -217 575 -183 q 349 -250 436 -250 l 263 -250 z "},"Ү":{"ha":833,"x_min":154,"x_max":879,"o":"m 300 0 l 361 382 l 154 1014 l 265 1014 l 406 586 q 424 528 417 553 q 432 490 431 503 q 453 528 439 503 q 489 586 467 553 l 763 1014 l 879 1014 l 471 382 l 411 0 l 300 0 z "},"Ө":{"ha":833,"x_min":92,"x_max":781,"o":"m 353 -14 q 156 64 221 -14 q 113 275 92 142 l 188 740 q 246 894 201 829 q 360 993 290 958 q 518 1028 431 1028 q 716 951 651 1028 q 760 740 781 874 l 685 275 q 626 121 672 186 q 511 21 581 56 q 353 -14 442 -14 m 368 83 q 508 133 454 83 q 576 275 561 182 l 607 469 l 253 469 l 222 275 q 246 133 208 182 q 368 83 283 83 m 269 568 l 624 568 l 650 740 q 626 881 664 832 q 503 931 589 931 q 364 881 418 931 q 296 740 310 832 l 269 568 z "},"а":{"ha":833,"x_min":90,"x_max":760,"o":"m 317 -14 q 147 63 203 -14 q 111 268 90 139 l 147 494 q 202 645 161 582 q 305 743 243 708 q 443 778 367 778 q 589 725 539 778 q 625 583 639 672 l 603 629 l 629 629 l 650 764 l 760 764 l 639 0 l 529 0 l 550 135 l 522 135 l 561 181 q 480 38 547 90 q 317 -14 413 -14 m 367 82 q 503 133 449 82 q 572 274 558 183 l 606 490 q 582 631 621 581 q 461 682 543 682 q 324 632 378 682 q 256 490 271 582 l 222 274 q 246 132 208 182 q 367 82 283 82 z "},"б":{"ha":833,"x_min":92,"x_max":768,"o":"m 353 -14 q 156 65 219 -14 q 114 283 92 144 l 171 639 q 306 917 200 819 q 579 1014 411 1014 l 768 1014 l 750 904 l 561 904 q 373 835 444 904 q 281 639 301 767 l 265 543 l 285 543 l 261 510 q 337 640 275 593 q 494 688 399 688 q 672 610 617 688 q 704 396 726 533 l 686 283 q 627 124 672 190 q 513 22 582 57 q 353 -14 443 -14 m 369 85 q 508 136 454 85 q 576 283 561 188 l 594 396 q 572 543 610 490 q 451 596 535 596 q 312 543 365 596 q 242 396 258 490 l 224 283 q 247 136 210 188 q 369 85 285 85 z "},"в":{"ha":833,"x_min":75,"x_max":751,"o":"m 75 0 l 196 764 l 524 764 q 694 710 638 764 q 736 563 751 657 q 663 435 724 483 q 513 388 601 388 l 514 397 q 660 348 610 397 q 699 217 711 299 q 604 58 682 115 q 406 0 526 0 l 75 0 m 200 97 l 421 97 q 535 130 490 97 q 589 218 581 163 q 563 309 597 276 q 460 342 528 342 l 238 342 l 200 97 m 253 438 l 471 438 q 574 468 532 438 q 625 551 617 499 q 602 635 633 604 q 508 667 571 667 l 289 667 l 253 438 z "}}}
